<?xml version="1.0" standalone="no"?>
<!DOCTYPE svg PUBLIC "-//W3C//DTD SVG 1.1//EN" "http://www.w3.org/Graphics/SVG/1.1/DTD/svg11.dtd" >
<svg xmlns="http://www.w3.org/2000/svg" xmlns:xlink="http://www.w3.org/1999/xlink" version="1.1">
<metadata>
Created by FontForge 20161003 at Tue Feb 28 10:37:50 2017
 By font
(URW)++,Copyright 2011 by (URW)++ Design &#38; Development
</metadata>
<defs>
<font id="MANEurope-Light" horiz-adv-x="2048" >
  <font-face 
    font-family="MANEurope Light"
    font-weight="300"
    font-stretch="normal"
    units-per-em="2048"
    panose-1="0 0 0 0 0 0 0 0 0 0"
    ascent="1599"
    descent="-449"
    x-height="1056"
    cap-height="1462"
    bbox="-345 -651 2695 2169"
    underline-thickness="102"
    underline-position="-360"
    unicode-range="U+0020-FB03"
  />
<missing-glyph horiz-adv-x="569" 
d="M57 0v1462h455v-1462h-455zM455 57v1348h-341v-1348h341z" />
    <glyph glyph-name=".notdef" horiz-adv-x="569" 
d="M57 0v1462h455v-1462h-455zM455 57v1348h-341v-1348h341z" />
    <glyph glyph-name="glyph1" horiz-adv-x="0" 
 />
    <glyph glyph-name="glyph2" horiz-adv-x="569" 
 />
    <glyph glyph-name="space" unicode=" " horiz-adv-x="569" 
 />
    <glyph glyph-name="exclam" unicode="!" horiz-adv-x="494" 
d="M329 1462v-429l-32 -666h-76l-31 667v428h139zM337 205v-205h-154v205h154z" />
    <glyph glyph-name="quotedbl" unicode="&#x22;" horiz-adv-x="758" 
d="M287 876h-101l-19 586h139zM572 876h-101l-19 586h139z" />
    <glyph glyph-name="numbersign" unicode="#" horiz-adv-x="1139" 
d="M758 504l-60 -431h-95l60 431h-255l-61 -431h-95l61 431h-271l13 94h271l34 242h-271l13 94h271l56 398h95l-56 -398h256l56 398h95l-56 -398h278l-13 -94h-278l-35 -242h278l-12 -94h-279zM711 840h-256l-34 -242h255z" />
    <glyph glyph-name="dollar" unicode="$" horiz-adv-x="1139" 
d="M528 1627h95v-178q180 -12 282 -93q132 -104 133 -305h-125q-7 273 -290 290v-553q135 -25 240 -72q100 -45 153.5 -133t53.5 -206q0 -237 -199 -350q-84 -48 -248 -59v-243h-95v243q-211 3 -339 119q-130 118 -132 346h127q3 -176 77 -254q87 -93 267 -107v616
q-184 36 -277 105q-134 99 -134 273q0 102 48 187.5t135 135.5q90 52 228 60v178zM528 1343q-118 -4 -190 -60q-98 -75 -98 -208q0 -137 121 -209q47 -28 167 -56v533zM623 74q146 11 221 73q102 83 102 223q0 157 -133 232q-44 24 -190 67v-595z" />
    <glyph glyph-name="percent" unicode="%" horiz-adv-x="1821" 
d="M1363 1418l-804 -1418h-107l804 1418h107zM1368 749q150 0 233 -98t83 -276q0 -204 -91 -305q-86 -96 -234 -96q-169 0 -254 112q-72 95 -72 266q0 188 81 288q90 109 254 109zM1356 660q-111 0 -167 -93q-42 -70 -42 -211q0 -132 47 -208q54 -88 166 -88q101 0 156 79
t55 225q0 296 -215 296zM471 1455q152 0 235 -98t83 -278q0 -187 -87 -295q-83 -104 -241 -104q-175 0 -258 123q-66 99 -66 267q0 187 90 287q89 98 244 98zM460 1366q-102 0 -156 -78t-54 -227q0 -141 54.5 -217t154.5 -76q123 0 177 107q40 79 40 201q0 290 -216 290z
" />
    <glyph glyph-name="ampersand" unicode="&#x26;" horiz-adv-x="1251" 
d="M1097 646q-3 -80 -28 -176.5t-61 -160.5l263 -309h-164l-167 202q-155 -231 -426 -231q-194 0 -318 112q-121 110 -121 284q0 190 175 324q103 79 188 122q-99 121 -139.5 200.5t-40.5 153.5q0 130 91.5 212t237.5 82q132 0 218 -74q99 -85 99 -216q0 -110 -67.5 -200
t-219.5 -184l309 -380q43 118 50 239h121zM549 871q234 132 234 292q0 82 -57.5 137.5t-142.5 55.5q-88 0 -146.5 -53t-58.5 -133q0 -54 37.5 -120t133.5 -179zM507 730q-96 -56 -153 -101q-147 -115 -147 -259q0 -127 99 -213q91 -79 219 -79q204 0 342 213z" />
    <glyph glyph-name="quotesingle" unicode="'" horiz-adv-x="569" 
d="M335 876h-101l-19 586h139z" />
    <glyph glyph-name="parenleft" unicode="(" horiz-adv-x="494" 
d="M452 1462q-126 -201 -194 -443t-68 -491q0 -485 262 -920h-101q-130 215 -191 379q-100 270 -100 545q0 290 106 572q78 205 185 358h101z" />
    <glyph glyph-name="parenright" unicode=")" horiz-adv-x="494" 
d="M41 -392q125 196 193.5 441t68.5 493q0 237 -68 475t-194 445h101q131 -216 191 -378q100 -270 100 -546q0 -290 -106 -572q-79 -208 -185 -358h-101z" />
    <glyph glyph-name="asterisk" unicode="*" horiz-adv-x="721" 
d="M667 1218l-240 -81l148 -201l-65 -48l-152 206l-150 -204l-69 49l150 198l-236 81l27 77l236 -84v251h85v-251l236 84z" />
    <glyph glyph-name="plus" unicode="+" horiz-adv-x="1229" 
d="M123 757h443v443h95v-443h443v-95h-443v-443h-95v443h-443v95z" />
    <glyph glyph-name="comma" unicode="," horiz-adv-x="569" 
d="M368 212v-151q0 -153 -41 -230.5t-140 -113.5v85q89 40 94 198h-81v212h168z" />
    <glyph glyph-name="hyphen" unicode="-" horiz-adv-x="758" 
d="M622 600v-117h-487v117h487z" />
    <glyph glyph-name="period" unicode="." horiz-adv-x="569" 
d="M369 219v-219h-168v219h168z" />
    <glyph glyph-name="slash" unicode="/" horiz-adv-x="682" 
d="M693 1462l-755 -1854h-110l760 1854h105z" />
    <glyph glyph-name="zero" unicode="0" horiz-adv-x="1139" 
d="M575 1449q183 0 307 -115q98 -90 143 -242.5t45 -390.5q0 -303 -84 -477q-61 -125 -167 -190t-249 -65q-195 0 -317 111q-96 88 -140.5 235t-44.5 375q0 334 91 512q125 247 416 247zM565 1338q-134 0 -221 -89q-143 -148 -143 -564q0 -242 60 -395q42 -106 133 -162
q77 -48 175 -48q184 0 276 156.5t92 468.5q0 633 -372 633z" />
    <glyph glyph-name="one" unicode="1" horiz-adv-x="1139" 
d="M724 1433v-1433h-136v1067h-54h-142h-116h-59v100q137 3 199.5 15.5t103.5 44.5q38 29 59 73t41 133h104z" />
    <glyph glyph-name="two" unicode="2" horiz-adv-x="1139" 
d="M1029 116v-116h-947q13 198 118 326q51 62 113.5 112t219.5 154q210 138 283.5 230.5t73.5 217.5q0 138 -93 221q-86 77 -223 77q-118 0 -200 -64q-66 -50 -96.5 -128.5t-33.5 -205.5h-127q-1 222 101 353q124 156 363 156q191 0 310 -101q132 -111 132 -307
q0 -182 -136 -326q-89 -94 -330 -249q-191 -123 -250 -192q-61 -72 -79 -158h31h41h729z" />
    <glyph glyph-name="three" unicode="3" horiz-adv-x="1139" 
d="M93 978q6 170 76 281q119 190 390 190q195 0 315 -102q119 -101 119 -269q0 -117 -65 -200t-179 -112q98 -20 164 -68q131 -97 131 -283q0 -200 -145 -330q-130 -116 -350 -116q-262 0 -396 166q-94 118 -94 297v29h125q0 -129 50 -217q50 -87 145 -128q84 -36 172 -36
q77 0 149 27t120 75q91 90 91 220q0 163 -126 245q-88 57 -254 57q-33 0 -68 -2v108q40 -1 61 -1q139 0 223 52q113 71 113 211q0 121 -83.5 193.5t-222.5 72.5q-158 0 -245 -92.5t-93 -267.5h-123z" />
    <glyph glyph-name="four" unicode="4" horiz-adv-x="1139" 
d="M1060 459v-108h-218v-351h-120v351h-662v122l672 960h110v-974h218zM722 459v566q0 122 2 238q-105 -165 -129 -200l-313 -444q-22 -31 -117 -160h67h75h415z" />
    <glyph glyph-name="five" unicode="5" horiz-adv-x="1139" 
d="M974 1418v-116h-624l-68 -334q-21 -100 -35 -160q120 145 327 145q181 0 306 -106q65 -56 107 -136q57 -111 57 -242q0 -208 -134 -351q-140 -149 -359 -149q-213 0 -343 121t-134 324h126q8 -106 51 -179q44 -74 124 -116t176 -42q171 0 274 128q86 107 86 256
q0 158 -92 264q-101 117 -270 117q-207 0 -320 -168l-114 6l142 738h717z" />
    <glyph glyph-name="six" unicode="6" horiz-adv-x="1139" 
d="M1033 1073h-129q-20 125 -100 195t-203 70q-260 0 -349 -312q-36 -125 -44 -342q57 120 161 185t239 65q200 0 332 -135q128 -130 128 -338q0 -213 -134 -350q-139 -142 -345 -142q-181 0 -309 106q-102 86 -149 229t-47 372q0 399 153 597q134 176 368 176
q182 0 293.5 -97.5t134.5 -278.5zM580 823q-160 0 -262 -122q-83 -100 -83 -243q0 -155 93 -262q100 -116 259 -116q163 0 262 120q86 103 86 252q0 152 -85 254q-99 117 -270 117z" />
    <glyph glyph-name="seven" unicode="7" horiz-adv-x="1139" 
d="M1033 1418v-117q-233 -241 -384 -554q-162 -342 -198 -747h-139q7 169 63.5 372.5t147.5 385.5q154 307 385 540q-119 -1 -148 -1h-651v121h924z" />
    <glyph glyph-name="eight" unicode="8" horiz-adv-x="1139" 
d="M367 773q-111 32 -172.5 113t-61.5 196q0 174 130 276q118 91 306 91q101 0 188 -29t141 -81q105 -100 105 -249q0 -118 -59 -198.5t-173 -118.5q99 -25 155 -68q136 -104 136 -291q0 -208 -138 -330q-130 -115 -356 -115q-233 0 -366 124q-126 119 -126 310
q0 143 76.5 240.5t214.5 129.5zM565 1338q-145 0 -226 -76q-78 -72 -78 -185q0 -118 82 -185q87 -72 227 -72q150 0 231 77q74 70 74 181q0 129 -87 196q-83 64 -223 64zM561 718q-158 0 -255 -86t-97 -226q0 -154 108 -245q97 -81 252 -81q180 0 274 100q86 92 86 225
q0 157 -111 238q-101 75 -257 75z" />
    <glyph glyph-name="nine" unicode="9" horiz-adv-x="1139" 
d="M107 344h125q15 -97 73 -163q89 -101 242 -101q142 0 233 98.5t126 288.5q19 104 20 283q-116 -264 -395 -264q-221 0 -352 157q-108 128 -108 317q0 220 146 361q134 128 333 128q200 0 328 -122q93 -90 134.5 -226.5t41.5 -354.5q0 -295 -74 -470
q-64 -150 -175.5 -228.5t-261.5 -78.5q-182 0 -300.5 102t-135.5 273zM542 1338q-149 0 -248 -113q-90 -103 -90 -259q0 -142 78 -243q96 -126 265 -126q166 0 264 117q86 102 86 249q0 157 -89 258q-103 117 -266 117z" />
    <glyph glyph-name="colon" unicode=":" horiz-adv-x="569" 
d="M381 219v-219h-168v219h168zM381 1056v-219h-168v219h168z" />
    <glyph glyph-name="semicolon" unicode=";" horiz-adv-x="569" 
d="M384 212v-151q0 -153 -41 -230.5t-140 -113.5v85q89 40 94 198h-81v212h168zM384 1056v-219h-168v219h168z" />
    <glyph glyph-name="less" unicode="&#x3c;" horiz-adv-x="1229" 
d="M1090 1232v-138l-803 -360l802 -362v-137l-950 439v121z" />
    <glyph glyph-name="equal" unicode="=" horiz-adv-x="1229" 
d="M123 914h981v-95h-981v95zM123 600h981v-95h-981v95z" />
    <glyph glyph-name="greater" unicode="&#x3e;" horiz-adv-x="1229" 
d="M140 235v138l802 361l-802 361v137l950 -438v-121z" />
    <glyph glyph-name="question" unicode="?" horiz-adv-x="1100" 
d="M118 1009q4 181 69 286q58 95 158.5 146.5t226.5 51.5q201 0 319 -115q107 -105 107 -264q0 -140 -82 -247q-34 -45 -163 -168q-62 -59 -84 -91.5t-33 -82.5q-13 -55 -13 -161h-123q3 162 29 230q19 50 49.5 86.5t156.5 161.5q130 129 130 264q0 110 -72 187
q-81 86 -223 86q-191 0 -277 -150q-44 -76 -51 -220h-124zM637 205v-205h-154v205h154z" />
    <glyph glyph-name="at" unicode="@" horiz-adv-x="1638" 
d="M1434 369h79q-60 -134 -179 -230q-215 -173 -484 -173q-224 0 -410 120q-179 114 -271 307q-75 156 -75 333q0 219 110 402q99 165 265 262q181 106 393 106q175 0 330 -76q183 -91 277 -256q76 -134 76 -295q0 -265 -197 -428q-142 -118 -281 -118q-65 0 -105.5 33
t-50.5 93q-119 -124 -251 -124q-116 0 -186 98q-48 68 -48 177q0 176 106 332q67 100 151 153.5t174 53.5q147 0 209 -145l40 110h101l-185 -541q-20 -60 -20 -99q0 -77 89 -77q116 0 231 114q150 149 150 363q0 254 -194 416q-175 147 -414 147q-199 0 -365 -102
q-148 -91 -234 -241q-93 -162 -93 -359q0 -286 191 -483q109 -112 256 -165q113 -41 232 -41q180 0 339 91t244 242zM942 644l52 145q29 80 29 126q0 69 -44 115q-42 45 -98 45q-119 0 -224 -143q-55 -75 -87 -172.5t-32 -188.5q0 -78 33 -126q40 -56 109 -56q90 0 164 75
q52 53 98 180z" />
    <glyph glyph-name="A" unicode="A" horiz-adv-x="1290" 
d="M726 1467l584 -1467h-156l-176 460h-669l-180 -460h-149l591 1467h155zM935 573l-210 541q-47 122 -79 222q-44 -125 -80 -215l-215 -548h584z" />
    <glyph glyph-name="B" unicode="B" horiz-adv-x="1366" 
d="M148 1462h591q114 0 185.5 -13t128.5 -45q86 -46 134 -127.5t48 -179.5q0 -120 -68.5 -207t-186.5 -116q96 -20 149 -52q163 -98 163 -304q0 -171 -112 -284q-71 -71 -165.5 -102.5t-239.5 -31.5h-627v1462zM287 1342v-528h390q177 0 257 29q75 28 118.5 91t43.5 145
q0 164 -144 229q-74 34 -240 34h-425zM287 703v-583h436q212 0 303 56q127 78 127 240q0 172 -154 244q-92 43 -286 43h-426z" />
    <glyph glyph-name="C" unicode="C" horiz-adv-x="1442" 
d="M1375 560q-18 -217 -140 -372q-176 -222 -488 -222q-331 0 -516 245q-154 204 -154 518q0 337 191 556q185 211 491 211q290 0 462 -186q118 -128 136 -286h-138q-26 123 -110 211q-133 141 -355 141q-273 0 -421 -220q-117 -175 -117 -426q0 -259 115 -427
q149 -217 420 -217q205 0 333 124t154 350h137z" />
    <glyph glyph-name="D" unicode="D" horiz-adv-x="1403" 
d="M149 1462h509q159 0 268 -34.5t195 -112.5q113 -103 166 -266q45 -136 45 -291q0 -389 -205 -596q-89 -88 -192.5 -125t-265.5 -37h-520v1462zM288 1342v-1222h348q152 0 239 28t155 98q163 166 163 505q0 301 -155 458q-70 69 -160.5 101t-219.5 32h-370z" />
    <glyph glyph-name="E" unicode="E" horiz-adv-x="1214" 
d="M1158 1462v-120h-876v-525h820v-120h-820v-577h885v-120h-1024v1462h1015z" />
    <glyph glyph-name="F" unicode="F" horiz-adv-x="1100" 
d="M1084 1462v-120h-796v-525h708v-120h-708v-697h-139v1462h935z" />
    <glyph glyph-name="G" unicode="G" horiz-adv-x="1518" 
d="M1398 743v-743h-92l-29 273q-42 -93 -118 -164q-155 -143 -396 -143q-215 0 -377 105q-160 104 -243 297q-68 158 -68 349q0 347 198 569q187 210 497 210q289 0 463 -184q118 -124 145 -300h-135q-30 164 -159.5 264t-312.5 100q-273 0 -429 -209q-128 -171 -128 -448
q0 -264 129 -432q155 -201 428 -201q217 0 357 136q146 142 147 407h-501v114h624z" />
    <glyph glyph-name="H" unicode="H" horiz-adv-x="1442" 
d="M1298 1462v-1462h-139v706h-876v-706h-139v1462h139v-636h876v636h139z" />
    <glyph glyph-name="I" unicode="I" horiz-adv-x="455" 
d="M297 1462v-1462h-139v1462h139z" />
    <glyph glyph-name="J" unicode="J" horiz-adv-x="1024" 
d="M873 1462v-1030q0 -118 -14 -185.5t-51 -125.5q-34 -53 -68.5 -78.5t-94.5 -41.5q-100 -27 -200 -27q-128 0 -223 52t-139 145t-44 262q0 21 1 54h134v-15v-33q0 -145 33 -213q64 -132 253 -132q158 0 226 100q48 71 48 255v1013h139z" />
    <glyph glyph-name="K" unicode="K" horiz-adv-x="1327" 
d="M1327 1462l-659 -597l692 -865h-179l-612 770l-280 -254v-516h-139v1462h139v-786q69 67 96 92l756 694h186z" />
    <glyph glyph-name="L" unicode="L" horiz-adv-x="1100" 
d="M1103 120v-120h-962v1462h139v-1342h823z" />
    <glyph glyph-name="M" unicode="M" horiz-adv-x="1706" 
d="M1566 1462v-1462h-133v884q0 270 16 460l-15 -43l-26 -71q-42 -120 -55 -152l-431 -1078h-126l-439 1065q-42 102 -95 271q14 -299 14 -449v-887h-133v1462h191l425 -1043q54 -132 100 -275q59 176 97 272l418 1046h192z" />
    <glyph glyph-name="N" unicode="N" horiz-adv-x="1442" 
d="M1298 1462v-1462h-155l-680 981q-126 181 -193 314q6 -73 8 -248l1 -102v-945h-133v1462h154l683 -991q101 -147 191 -306q-9 196 -9 386v911h133z" />
    <glyph glyph-name="O" unicode="O" horiz-adv-x="1518" 
d="M769 1496q294 0 488 -215q191 -211 191 -554q0 -303 -154 -505q-194 -256 -537 -256q-339 0 -533 256q-154 203 -154 507q0 347 189 552q197 215 510 215zM751 1376q-232 0 -388 -176q-154 -173 -154 -464q0 -275 131 -448q80 -105 204 -159q100 -43 215 -43
q240 0 393 171q157 175 157 469q0 292 -151 469q-154 181 -407 181z" />
    <glyph glyph-name="P" unicode="P" horiz-adv-x="1290" 
d="M149 1462h585q125 0 199 -16t134 -57q167 -111 167 -339q0 -232 -162 -346q-114 -81 -321 -81h-463v-623h-139v1462zM288 1342v-599h424q95 0 151.5 11.5t101.5 39.5q130 81 130 249q0 171 -126 249q-46 29 -101.5 39.5t-162.5 10.5h-417z" />
    <glyph glyph-name="Q" unicode="Q" horiz-adv-x="1518" 
d="M1443 -6l-71 -88l-230 175q-67 -53 -169 -84t-209 -31q-312 0 -507 221q-183 207 -183 540q0 340 191 554q192 215 497 215q316 0 507 -224q182 -213 182 -538q0 -176 -56.5 -327t-160.5 -255zM1131 231q181 196 181 503q0 269 -136 444q-155 198 -413 198
q-127 0 -235 -52.5t-183 -150.5q-132 -173 -132 -443q0 -268 122 -433q74 -100 189 -155.5t247 -55.5q151 0 265 78l-194 146l73 89z" />
    <glyph glyph-name="R" unicode="R" horiz-adv-x="1366" 
d="M143 1462h644q194 0 302 -66q171 -105 171 -326q0 -141 -74.5 -236t-211.5 -128q125 -21 187 -97q41 -51 53 -104.5t26 -256.5q9 -115 21 -164.5t40 -83.5h-158q-29 44 -36 202q-8 178 -25.5 250.5t-64.5 121.5q-41 42 -111.5 60.5t-194.5 18.5h-429v-653h-139v1462z
M282 1342v-576h412q208 0 299 53q128 73 128 240q0 170 -139 242q-80 41 -240 41h-460z" />
    <glyph glyph-name="S" unicode="S" horiz-adv-x="1290" 
d="M1161 1041h-134q-15 169 -111 249q-108 90 -295 90q-160 0 -254 -63q-111 -76 -111 -217q0 -124 89 -179q75 -45 305 -98q174 -40 248 -63t129 -55q181 -103 181 -307q0 -207 -166 -330q-139 -102 -385 -102q-274 0 -427 132q-75 65 -116 162t-41 208v16h134
q5 -167 81 -258q119 -143 379 -143q207 0 309 89q97 84 97 213q0 161 -171 231q-77 33 -322 90q-146 34 -213 58t-120 60q-127 89 -127 268q0 187 137 295.5t374 108.5q244 0 383 -119t147 -336z" />
    <glyph glyph-name="T" unicode="T" horiz-adv-x="1139" 
d="M1153 1462v-120h-513v-1342h-139v1342h-515v120h1167z" />
    <glyph glyph-name="U" unicode="U" horiz-adv-x="1403" 
d="M1272 1462v-876q0 -166 -22 -251q-48 -180 -186 -274.5t-353 -94.5q-357 0 -500 236q-43 72 -60.5 158.5t-17.5 230.5v871h139v-877q0 -128 15.5 -203.5t53.5 -134.5q105 -164 371 -164q255 0 353 158q37 59 52.5 138t15.5 208v875h139z" />
    <glyph glyph-name="V" unicode="V" horiz-adv-x="1214" 
d="M1234 1462l-543 -1462h-163l-548 1462h156l382 -1052q37 -101 93 -291q62 203 94 290l381 1053h148z" />
    <glyph glyph-name="W" unicode="W" horiz-adv-x="1858" 
d="M1856 1462l-405 -1462h-151l-297 1029q-48 167 -75 302q-31 -129 -79 -297l-293 -1034h-152l-403 1462h146l272 -1014q43 -161 68 -303q23 123 74 303l289 1014h159l296 -1029q41 -139 70 -288q27 144 65 287l277 1030h139z" />
    <glyph glyph-name="X" unicode="X" horiz-adv-x="1176" 
d="M1173 1462l-501 -710l528 -752h-167l-367 525q-12 18 -37 58q-18 29 -42 66l-84 -124l-369 -525h-159l530 752l-498 710h165l326 -468q22 -32 90 -146q91 140 96 147l333 467h156z" />
    <glyph glyph-name="Y" unicode="Y" horiz-adv-x="1251" 
d="M1277 1462l-579 -857v-605h-139v605l-581 857h167l408 -612q36 -54 79 -129q45 79 75 124l410 617h160z" />
    <glyph glyph-name="Z" unicode="Z" horiz-adv-x="1176" 
d="M1134 1462v-122l-890 -1131q-48 -57 -75 -92q55 0 210 3h775v-120h-1143v125l897 1138q48 56 68 82q-153 -3 -192 -3h-706v120h1056z" />
    <glyph glyph-name="bracketleft" unicode="[" horiz-adv-x="494" 
d="M461 1462v-102h-211v-1650h211v-102h-332v1854h332z" />
    <glyph glyph-name="backslash" unicode="\" horiz-adv-x="682" 
d="M-11 1462h105l760 -1854h-110z" />
    <glyph glyph-name="bracketright" unicode="]" horiz-adv-x="494" 
d="M32 -392v102h212v1650h-212v102h332v-1854h-332z" />
    <glyph glyph-name="asciicircum" unicode="^" horiz-adv-x="1229" 
d="M277 832h-134l393 633h158l393 -633h-135l-339 538z" />
    <glyph glyph-name="underscore" unicode="_" horiz-adv-x="1024" 
d="M-36 -164h1097v-95h-1097v95z" />
    <glyph glyph-name="grave" unicode="`" horiz-adv-x="379" 
d="M-80 1505h157l206 -291h-104z" />
    <glyph glyph-name="a" unicode="a" horiz-adv-x="1063" 
d="M1041 107v-99q-48 -17 -103 -17q-75 0 -106 43.5t-31 150.5q-51 -80 -105 -123q-118 -93 -294 -93q-153 0 -242 71q-103 80 -103 228q0 208 199 285q57 23 108.5 31t262.5 29q96 9 132 38t36 97q0 123 -68 176q-70 56 -208 56q-136 0 -205.5 -60t-82.5 -190h-124
q8 172 119 264.5t308 92.5q216 0 322 -108q37 -39 51 -91.5t14 -157.5l-1 -322q1 -194 2.5 -229t7.5 -51q13 -29 62 -29q22 0 49 8zM795 576q-33 -28 -77 -39.5t-214 -34.5t-241 -72q-75 -52 -75 -150q0 -94 66 -149q67 -57 180 -57q157 0 259 93t102 237v172z" />
    <glyph glyph-name="b" unicode="b" horiz-adv-x="1176" 
d="M257 1462v-604q33 75 91 128q112 101 286 101q215 0 346 -154q125 -147 125 -402q0 -264 -135 -416q-130 -146 -341 -146q-281 0 -380 238v-207h-121v1462h129zM611 980q-152 0 -252 -113q-105 -119 -105 -337q0 -216 104 -339q98 -115 259 -115q160 0 256 118
q102 126 102 333q0 200 -89 321q-98 132 -275 132z" />
    <glyph glyph-name="c" unicode="c" horiz-adv-x="1063" 
d="M1009 377q-21 -145 -95 -242q-126 -166 -351 -166q-252 0 -384 189q-103 147 -103 360q0 275 147 428q135 141 345 141q184 0 298 -96.5t135 -268.5h-131q-20 99 -68 157q-82 101 -232 101q-189 0 -286 -150q-78 -122 -78 -302q0 -190 83 -312q96 -140 269 -140
q132 0 216.5 79t104.5 222h130z" />
    <glyph glyph-name="d" unicode="d" horiz-adv-x="1176" 
d="M1053 1462v-1462h-121v210q-35 -80 -85 -129q-117 -112 -294 -112q-227 0 -357 161q-122 152 -122 398q0 262 132 411q132 148 342 148q268 0 376 -226v601h129zM557 980q-154 0 -251 -115q-102 -122 -102 -334q0 -194 88 -319q95 -136 272 -136q172 0 268 127
q95 125 95 325q0 210 -101 331t-269 121z" />
    <glyph glyph-name="e" unicode="e" horiz-adv-x="1063" 
d="M997 348q-20 -101 -63 -172q-125 -207 -386 -207q-238 0 -370 169q-116 150 -116 379q0 254 138 414q136 156 344 156q168 0 288 -103q93 -82 135.5 -198t41.5 -289h-817q3 -108 26 -177q80 -244 332 -244q127 0 209 69t114 203h124zM878 604q-7 134 -62 222
q-95 154 -275 154q-121 0 -210 -73q-113 -93 -138 -303h685z" />
    <glyph glyph-name="f" unicode="f" horiz-adv-x="530" 
d="M556 1466v-110q-51 8 -89 8q-101 0 -132 -56q-19 -34 -19 -147v-105h213v-107h-213v-949h-129v949h-180v107h180v90q0 97 7.5 141.5t28.5 79.5q66 106 228 106q47 0 105 -7z" />
    <glyph glyph-name="g" unicode="g" horiz-adv-x="1139" 
d="M1016 1056v-955q0 -120 -14.5 -193t-49.5 -133q-112 -189 -410 -189q-195 0 -308.5 83.5t-125.5 235.5h130q31 -215 305 -215q204 0 283 114q63 90 63 266v177q-110 -233 -365 -233q-216 0 -343 154q-115 141 -115 371q0 250 128 397q131 151 341 151q241 0 360 -228v197
h121zM535 980q-167 0 -261 -138q-78 -115 -78 -291q0 -217 108 -332q93 -98 234 -98q175 0 272 140q78 112 78 296q0 218 -112 330q-94 93 -241 93z" />
    <glyph glyph-name="h" unicode="h" horiz-adv-x="1100" 
d="M251 1462v-479q0 -22 -3 -125q108 229 368 229q220 0 317 -156q52 -85 52 -251v-680h-130v664q0 147 -47 210q-73 100 -225 100q-94 0 -167.5 -43t-114.5 -122q-29 -54 -39.5 -116t-10.5 -176v-517h-129v1462h129z" />
    <glyph glyph-name="i" unicode="i" horiz-adv-x="379" 
d="M254 1462v-206h-129v206h129zM254 1056v-1056h-129v1056h129z" />
    <glyph glyph-name="j" unicode="j" horiz-adv-x="379" 
d="M254 1056v-1126q0 -113 -10 -166t-38 -91q-58 -78 -209 -78q-28 0 -62 6v107q30 -3 52 -3q88 0 113 40t25 181v1130h129zM254 1462v-206h-129v206h129z" />
    <glyph glyph-name="k" unicode="k" horiz-adv-x="1024" 
d="M1014 1056l-452 -388l483 -668h-161l-421 579l-210 -178v-401h-129v1462h129v-921q75 70 80 74l509 441h172z" />
    <glyph glyph-name="l" unicode="l" horiz-adv-x="379" 
d="M254 1462v-1462h-129v1462h129z" />
    <glyph glyph-name="m" unicode="m" horiz-adv-x="1706" 
d="M246 1056v-184q55 90 112 135q101 80 238 80q229 0 305 -207q47 82 100 124q103 83 251 83q184 0 276 -122q33 -45 47 -98t14 -140v-727h-129v692q0 125 -32 180q-60 102 -211 102q-179 0 -254 -144q-40 -76 -40 -222v-608h-129v689q0 122 -29 178q-26 50 -80 78.5
t-123 28.5q-88 0 -158.5 -42t-108.5 -116q-42 -84 -42 -234v-582h-129v1056h122z" />
    <glyph glyph-name="n" unicode="n" horiz-adv-x="1100" 
d="M245 1056v-198q46 80 87 120q110 109 287 109q142 0 238 -69q72 -51 100 -125t28 -214v-679h-129v638q0 176 -46 240q-68 96 -220 96q-144 0 -235 -89q-56 -56 -79 -135t-23 -219v-531h-129v1056h121z" />
    <glyph glyph-name="o" unicode="o" horiz-adv-x="1139" 
d="M578 1087q229 0 367 -166q124 -147 124 -397q0 -263 -143 -413q-135 -142 -355 -142q-240 0 -377 165q-125 150 -125 393q0 236 118 385q138 175 391 175zM566 980q-158 0 -260 -119q-105 -122 -105 -332q0 -213 102 -334q100 -119 270 -119q162 0 258 111
q108 124 108 338q0 206 -97 329q-100 126 -276 126z" />
    <glyph glyph-name="p" unicode="p" horiz-adv-x="1176" 
d="M246 1056v-201q116 232 377 232q213 0 344 -151q134 -153 134 -411q0 -239 -121 -391q-130 -165 -351 -165q-271 0 -375 228v-589h-129v1448h121zM603 980q-167 0 -264 -129q-90 -119 -90 -325q0 -210 97 -327q102 -123 268 -123q171 0 268 135q89 123 89 312
q0 207 -97 332q-96 125 -271 125z" />
    <glyph glyph-name="q" unicode="q" horiz-adv-x="1176" 
d="M1050 1056v-1449h-129v589q-106 -227 -377 -227q-221 0 -349 159q-121 151 -121 395q0 267 139 420q130 144 343 144q194 0 303 -122q32 -37 70 -111v202h121zM558 980q-160 0 -255 -122q-99 -126 -99 -335q0 -203 94 -324q97 -123 263 -123q168 0 265 125q98 125 98 327
t-95 326q-96 126 -271 126z" />
    <glyph glyph-name="r" unicode="r" horiz-adv-x="645" 
d="M653 1072v-131q-21 1 -37 1q-164 0 -266 -118q-54 -62 -73.5 -144t-19.5 -248v-432h-129v1056h121v-253q113 273 404 269z" />
    <glyph glyph-name="s" unicode="s" horiz-adv-x="985" 
d="M880 750h-127q-9 84 -40 130q-67 100 -244 100q-142 0 -209 -70q-40 -43 -40 -109q0 -77 58 -114.5t245 -80.5q198 -45 283 -101q52 -34 81.5 -90.5t29.5 -121.5q0 -74 -35 -139t-98 -108q-112 -77 -287 -77q-242 0 -357 141q-73 89 -77 235h125q8 -107 49 -162
q79 -107 263 -107q164 0 242 85q48 51 48 120q0 79 -61.5 122.5t-229.5 83.5q-141 34 -193 50t-93 39q-56 31 -88 87t-32 124q0 164 143 246q94 54 240 54q223 0 329 -123q65 -75 75 -214z" />
    <glyph glyph-name="t" unicode="t" horiz-adv-x="606" 
d="M543 1056v-106h-219v-668q0 -103 16 -132q26 -45 112 -45q37 0 91 7v-111q-61 -8 -114 -8q-160 0 -208 86q-17 29 -21.5 78t-4.5 190v603h-184v106h184v323h129v-323h219z" />
    <glyph glyph-name="u" unicode="u" horiz-adv-x="1100" 
d="M975 1056v-1056h-121v197q-120 -228 -370 -228q-89 0 -168 34t-127 94q-72 91 -72 278v681h129v-625q0 -149 26 -214q26 -62 90 -98q68 -38 151 -38q84 0 155.5 39t115.5 109q62 100 62 285v542h129z" />
    <glyph glyph-name="v" unicode="v" horiz-adv-x="948" 
d="M942 1056l-389 -1056h-139l-408 1056h139l245 -642q23 -59 97 -287q57 183 97 296l227 633h131z" />
    <glyph glyph-name="w" unicode="w" horiz-adv-x="1518" 
d="M1504 1056l-343 -1056h-140l-209 694q-22 74 -53 208q-33 -137 -53 -206l-206 -696h-143l-344 1056h141l200 -644q27 -85 75 -273q54 231 69 279l189 638h148l200 -670q22 -71 61 -245q38 156 64 241l210 674h134z" />
    <glyph glyph-name="x" unicode="x" horiz-adv-x="985" 
d="M944 1056l-376 -493l418 -563h-164l-282 387q-21 30 -52 80q-46 -67 -54 -79l-280 -388h-154l409 554l-378 502h163l229 -309q6 -8 65 -98q50 73 69 98l233 309h154z" />
    <glyph glyph-name="y" unicode="y" horiz-adv-x="948" 
d="M948 1056l-415 -1096q-77 -203 -117 -263q-65 -98 -194 -98q-42 0 -86 6l-28 4v114q59 -14 95 -14q57 0 97 37t71 117l56 139q0 3 -1 6l-425 1048h141l287 -727q14 -35 62 -186q42 136 66 199l259 714h132z" />
    <glyph glyph-name="z" unicode="z" horiz-adv-x="948" 
d="M892 1056v-91l-630 -775q-43 -50 -69 -84l52 1h59h618v-107h-885v105l619 761l73 84q-27 0 -85 -1h-560v107h808z" />
    <glyph glyph-name="braceleft" unicode="{" horiz-adv-x="682" 
d="M260 533q67 -37 94 -93.5t27 -160.5v-353q0 -74 10.5 -111.5t38.5 -64.5q17 -17 56 -28.5t77 -11.5h24v-102h-24q-166 0 -234.5 74t-68.5 252v344q0 96 -28 142t-98 67v100q69 20 97.5 66t28.5 136v375q0 156 71 227t233 71h23v-102h-24q-99 0 -140.5 -47.5t-41.5 -159.5
v-371q0 -103 -26.5 -157.5t-94.5 -91.5z" />
    <glyph glyph-name="bar" unicode="|" horiz-adv-x="455" 
d="M159 1462h138v-1828h-138v1828z" />
    <glyph glyph-name="braceright" unicode="}" horiz-adv-x="682" 
d="M419 537q-67 37 -94 93.5t-27 160.5v354q0 73 -10.5 110.5t-38.5 64.5q-42 40 -133 40h-24v102h24q166 0 234.5 -73.5t68.5 -251.5v-345q0 -95 28 -141.5t98 -67.5v-100q-69 -20 -97.5 -65.5t-28.5 -135.5v-376q0 -156 -71 -227t-233 -71h-23v102h24q99 0 140.5 47.5
t41.5 159.5v371q0 104 26.5 158t94.5 91z" />
    <glyph glyph-name="asciitilde" unicode="~" horiz-adv-x="1229" 
d="M168 434l-77 60q114 235 291 235q83 0 256 -89q93 -48 133 -62.5t78 -14.5q63 0 112 39t101 131l77 -59q-47 -100 -111 -159q-82 -75 -188 -75q-49 0 -97 18t-182 87q-118 60 -190 60q-107 0 -203 -171z" />
    <glyph glyph-name="Adieresis" unicode="&#xc4;" horiz-adv-x="1290" 
d="M726 1467l584 -1467h-156l-176 460h-669l-180 -460h-149l591 1467h155zM935 573l-210 541q-47 122 -79 222q-44 -125 -80 -215l-215 -548h584zM936 1821v-205h-139v205h139zM493 1821v-205h-139v205h139z" />
    <glyph glyph-name="Aring" unicode="&#xc5;" horiz-adv-x="1290" 
d="M726 1467l584 -1467h-156l-176 460h-669l-180 -460h-149l591 1467h155zM935 573l-210 541q-47 122 -79 222q-44 -125 -80 -215l-215 -548h584zM649 1967q90 0 153 -70q55 -60 55 -142q0 -94 -70 -158q-61 -54 -142 -54q-95 0 -158 70q-54 61 -54 144q0 91 70 155
q60 55 146 55zM643 1882q-51 0 -88 -37.5t-37 -89.5q0 -53 37 -90t90 -37t90 37.5t37 90.5t-37.5 89.5t-91.5 36.5z" />
    <glyph glyph-name="Ccedilla" unicode="&#xc7;" horiz-adv-x="1442" 
d="M1381 560q-16 -224 -150 -386q-168 -202 -475 -206l-68 -91q48 9 74 9q69 0 115 -38t46 -96q0 -77 -62.5 -126t-161.5 -49q-84 0 -193 42l28 62q79 -34 151 -34q53 0 87 26.5t34 67.5q0 35 -29.5 58t-72.5 23q-37 0 -91 -18l-32 31l102 137q-255 18 -416 201
q-184 207 -184 553q0 330 179 544q190 226 502 226q289 0 460 -186q111 -119 138 -286h-139q-22 103 -95 192q-133 160 -365 160q-273 0 -426 -224q-116 -169 -116 -421q0 -261 118 -430q150 -215 416 -215q244 0 379 177q97 128 109 297h138z" />
    <glyph glyph-name="Eacute" unicode="&#xc9;" horiz-adv-x="1214" 
d="M1158 1462v-120h-876v-525h820v-120h-820v-577h885v-120h-1024v1462h1015zM955 1860l-289 -276h-107l227 276h169z" />
    <glyph glyph-name="Ntilde" unicode="&#xd1;" horiz-adv-x="1442" 
d="M1298 1462v-1462h-155l-680 981q-126 181 -193 314q6 -73 8 -248l1 -102v-945h-133v1462h154l683 -991q101 -147 191 -306q-9 196 -9 386v911h133zM1066 1823q-18 -97 -63.5 -148t-112.5 -51q-41 0 -77 12.5t-141 63.5q-38 19 -78 19q-70 0 -98 -103h-77q16 96 64.5 148
t122.5 52q58 0 137 -40q74 -37 96.5 -45.5t49.5 -8.5q72 0 97 101h80z" />
    <glyph glyph-name="Odieresis" unicode="&#xd6;" horiz-adv-x="1518" 
d="M769 1496q294 0 488 -215q191 -211 191 -554q0 -303 -154 -505q-194 -256 -537 -256q-339 0 -533 256q-154 203 -154 507q0 347 189 552q197 215 510 215zM751 1376q-232 0 -388 -176q-154 -173 -154 -464q0 -275 131 -448q80 -105 204 -159q100 -43 215 -43
q240 0 393 171q157 175 157 469q0 292 -151 469q-154 181 -407 181zM1056 1821v-205h-139v205h139zM613 1821v-205h-139v205h139z" />
    <glyph glyph-name="Udieresis" unicode="&#xdc;" horiz-adv-x="1403" 
d="M1272 1462v-876q0 -166 -22 -251q-48 -180 -186 -274.5t-353 -94.5q-357 0 -500 236q-43 72 -60.5 158.5t-17.5 230.5v871h139v-877q0 -128 15.5 -203.5t53.5 -134.5q105 -164 371 -164q255 0 353 158q37 59 52.5 138t15.5 208v875h139zM992 1821v-205h-139v205h139z
M549 1821v-205h-139v205h139z" />
    <glyph glyph-name="aacute" unicode="&#xe1;" horiz-adv-x="1063" 
d="M1038 107v-99q-48 -17 -103 -17q-75 0 -106 43.5t-31 150.5q-51 -80 -105 -123q-118 -93 -294 -93q-153 0 -242 71q-103 80 -103 228q0 208 199 285q57 23 108.5 31t262.5 29q96 9 132 38t36 97q0 123 -68 176q-70 56 -208 56q-136 0 -205.5 -60t-82.5 -190h-124
q8 172 119 264.5t308 92.5q216 0 322 -108q37 -39 51 -91.5t14 -157.5l-1 -322q1 -194 2.5 -229t7.5 -51q13 -29 62 -29q22 0 49 8zM792 576q-33 -28 -77 -39.5t-214 -34.5t-241 -72q-75 -52 -75 -150q0 -94 66 -149q67 -57 180 -57q157 0 259 93t102 237v172zM830 1505
l-259 -291h-104l205 291h158z" />
    <glyph glyph-name="agrave" unicode="&#xe0;" horiz-adv-x="1063" 
d="M1038 107v-99q-48 -17 -103 -17q-75 0 -106 43.5t-31 150.5q-51 -80 -105 -123q-118 -93 -294 -93q-153 0 -242 71q-103 80 -103 228q0 208 199 285q57 23 108.5 31t262.5 29q96 9 132 38t36 97q0 123 -68 176q-70 56 -208 56q-136 0 -205.5 -60t-82.5 -190h-124
q8 172 119 264.5t308 92.5q216 0 322 -108q37 -39 51 -91.5t14 -157.5l-1 -322q1 -194 2.5 -229t7.5 -51q13 -29 62 -29q22 0 49 8zM792 576q-33 -28 -77 -39.5t-214 -34.5t-241 -72q-75 -52 -75 -150q0 -94 66 -149q67 -57 180 -57q157 0 259 93t102 237v172zM298 1505h157
l206 -291h-104z" />
    <glyph glyph-name="acircumflex" unicode="&#xe2;" horiz-adv-x="1063" 
d="M1038 107v-99q-48 -17 -103 -17q-75 0 -106 43.5t-31 150.5q-51 -80 -105 -123q-118 -93 -294 -93q-153 0 -242 71q-103 80 -103 228q0 208 199 285q57 23 108.5 31t262.5 29q96 9 132 38t36 97q0 123 -68 176q-70 56 -208 56q-136 0 -205.5 -60t-82.5 -190h-124
q8 172 119 264.5t308 92.5q216 0 322 -108q37 -39 51 -91.5t14 -157.5l-1 -322q1 -194 2.5 -229t7.5 -51q13 -29 62 -29q22 0 49 8zM792 576q-33 -28 -77 -39.5t-214 -34.5t-241 -72q-75 -52 -75 -150q0 -94 66 -149q67 -57 180 -57q157 0 259 93t102 237v172zM814 1214
h-128l-160 216l-163 -216h-115l217 291h130z" />
    <glyph glyph-name="adieresis" unicode="&#xe4;" horiz-adv-x="1063" 
d="M1038 107v-99q-48 -17 -103 -17q-75 0 -106 43.5t-31 150.5q-51 -80 -105 -123q-118 -93 -294 -93q-153 0 -242 71q-103 80 -103 228q0 208 199 285q57 23 108.5 31t262.5 29q96 9 132 38t36 97q0 123 -68 176q-70 56 -208 56q-136 0 -205.5 -60t-82.5 -190h-124
q8 172 119 264.5t308 92.5q216 0 322 -108q37 -39 51 -91.5t14 -157.5l-1 -322q1 -194 2.5 -229t7.5 -51q13 -29 62 -29q22 0 49 8zM792 576q-33 -28 -77 -39.5t-214 -34.5t-241 -72q-75 -52 -75 -150q0 -94 66 -149q67 -57 180 -57q157 0 259 93t102 237v172zM783 1465
v-209h-132v209h132zM412 1465v-209h-132v209h132z" />
    <glyph glyph-name="atilde" unicode="&#xe3;" horiz-adv-x="1063" 
d="M1038 107v-99q-48 -17 -103 -17q-75 0 -106 43.5t-31 150.5q-51 -80 -105 -123q-118 -93 -294 -93q-153 0 -242 71q-103 80 -103 228q0 208 199 285q57 23 108.5 31t262.5 29q96 9 132 38t36 97q0 123 -68 176q-70 56 -208 56q-136 0 -205.5 -60t-82.5 -190h-124
q8 172 119 264.5t308 92.5q216 0 322 -108q37 -39 51 -91.5t14 -157.5l-1 -322q1 -194 2.5 -229t7.5 -51q13 -29 62 -29q22 0 49 8zM792 576q-33 -28 -77 -39.5t-214 -34.5t-241 -72q-75 -52 -75 -150q0 -94 66 -149q67 -57 180 -57q157 0 259 93t102 237v172zM822 1465
q-16 -97 -56.5 -148t-102.5 -51q-36 0 -68.5 12.5t-126.5 63.5q-34 18 -70 18q-61 0 -83 -102h-75q15 96 58.5 147.5t109.5 51.5q52 0 123 -40q68 -37 88 -45t44 -8q60 0 82 101h77z" />
    <glyph glyph-name="aring" unicode="&#xe5;" horiz-adv-x="1063" 
d="M1038 107v-99q-48 -17 -103 -17q-75 0 -106 43.5t-31 150.5q-51 -80 -105 -123q-118 -93 -294 -93q-153 0 -242 71q-103 80 -103 228q0 208 199 285q57 23 108.5 31t262.5 29q96 9 132 38t36 97q0 123 -68 176q-70 56 -208 56q-136 0 -205.5 -60t-82.5 -190h-124
q8 172 119 264.5t308 92.5q216 0 322 -108q37 -39 51 -91.5t14 -157.5l-1 -322q1 -194 2.5 -229t7.5 -51q13 -29 62 -29q22 0 49 8zM792 576q-33 -28 -77 -39.5t-214 -34.5t-241 -72q-75 -52 -75 -150q0 -94 66 -149q67 -57 180 -57q157 0 259 93t102 237v172zM545 1579
q87 0 148 -68q53 -58 53 -136q0 -91 -68 -152q-58 -53 -136 -53q-91 0 -152 68q-53 58 -53 138q0 88 68 150q58 53 140 53zM539 1494q-48 0 -82.5 -35.5t-34.5 -83.5q0 -50 35 -85t85 -35q49 0 84 35t35 85t-35.5 84.5t-86.5 34.5z" />
    <glyph glyph-name="ccedilla" unicode="&#xe7;" horiz-adv-x="1063" 
d="M549 -31l-63 -84q42 8 72 8q74 0 118 -36.5t44 -98.5q0 -80 -60.5 -127.5t-162.5 -47.5q-84 0 -190 42l29 62q74 -33 146 -33q57 0 91 25t34 67q0 37 -30 60t-78 23q-37 0 -86 -18l-31 31l102 132q-138 18 -237 106q-171 154 -171 438q0 275 147 428q135 141 345 141
q184 0 298 -96.5t135 -268.5h-131q-20 99 -68 157q-82 101 -232 101q-189 0 -286 -150q-78 -122 -78 -302q0 -190 83 -312q96 -140 269 -140q132 0 216.5 79t104.5 222h130q-21 -145 -95 -242q-126 -166 -344 -166h-21z" />
    <glyph glyph-name="eacute" unicode="&#xe9;" horiz-adv-x="1063" 
d="M997 348q-20 -101 -63 -172q-125 -207 -386 -207q-238 0 -370 169q-116 150 -116 379q0 254 138 414q136 156 344 156q168 0 288 -103q93 -82 135.5 -198t41.5 -289h-817q3 -108 26 -177q80 -244 332 -244q127 0 209 69t114 203h124zM878 604q-7 134 -62 222
q-95 154 -275 154q-121 0 -210 -73q-113 -93 -138 -303h685zM865 1505l-259 -291h-104l205 291h158z" />
    <glyph glyph-name="egrave" unicode="&#xe8;" horiz-adv-x="1063" 
d="M997 348q-20 -101 -63 -172q-125 -207 -386 -207q-238 0 -370 169q-116 150 -116 379q0 254 138 414q136 156 344 156q168 0 288 -103q93 -82 135.5 -198t41.5 -289h-817q3 -108 26 -177q80 -244 332 -244q127 0 209 69t114 203h124zM878 604q-7 134 -62 222
q-95 154 -275 154q-121 0 -210 -73q-113 -93 -138 -303h685zM315 1505h157l206 -291h-104z" />
    <glyph glyph-name="ecircumflex" unicode="&#xea;" horiz-adv-x="1063" 
d="M997 348q-20 -101 -63 -172q-125 -207 -386 -207q-238 0 -370 169q-116 150 -116 379q0 254 138 414q136 156 344 156q168 0 288 -103q93 -82 135.5 -198t41.5 -289h-817q3 -108 26 -177q80 -244 332 -244q127 0 209 69t114 203h124zM878 604q-7 134 -62 222
q-95 154 -275 154q-121 0 -210 -73q-113 -93 -138 -303h685zM836 1214h-128l-160 216l-163 -216h-115l217 291h130z" />
    <glyph glyph-name="edieresis" unicode="&#xeb;" horiz-adv-x="1063" 
d="M997 348q-20 -101 -63 -172q-125 -207 -386 -207q-238 0 -370 169q-116 150 -116 379q0 254 138 414q136 156 344 156q168 0 288 -103q93 -82 135.5 -198t41.5 -289h-817q3 -108 26 -177q80 -244 332 -244q127 0 209 69t114 203h124zM878 604q-7 134 -62 222
q-95 154 -275 154q-121 0 -210 -73q-113 -93 -138 -303h685zM797 1465v-209h-132v209h132zM426 1465v-209h-132v209h132z" />
    <glyph glyph-name="iacute" unicode="&#xed;" horiz-adv-x="379" 
d="M254 1056v-1056h-129v1056h129zM474 1505l-215 -291h-104l169 291h150z" />
    <glyph glyph-name="igrave" unicode="&#xec;" horiz-adv-x="379" 
d="M254 1056v-1056h-129v1056h129zM-43 1505h150l169 -291h-104z" />
    <glyph glyph-name="icircumflex" unicode="&#xee;" horiz-adv-x="379" 
d="M256 1056v-1056h-129v1056h129zM425 1214h-121l-115 209l-120 -209h-115l173 291h130z" />
    <glyph glyph-name="idieresis" unicode="&#xef;" horiz-adv-x="379" 
d="M254 1056v-1056h-129v1056h129zM381 1465v-209h-132v209h132zM130 1465v-209h-132v209h132z" />
    <glyph glyph-name="ntilde" unicode="&#xf1;" horiz-adv-x="1100" 
d="M245 1056v-198q46 80 87 120q110 109 287 109q142 0 238 -69q72 -51 100 -125t28 -214v-679h-129v638q0 176 -46 240q-68 96 -220 96q-144 0 -235 -89q-56 -56 -79 -135t-23 -219v-531h-129v1056h121zM868 1465q-16 -97 -56.5 -148t-102.5 -51q-36 0 -68.5 12.5
t-126.5 63.5q-34 18 -70 18q-61 0 -83 -102h-75q15 96 58.5 147.5t109.5 51.5q52 0 123 -40q68 -37 88 -45t44 -8q60 0 82 101h77z" />
    <glyph glyph-name="oacute" unicode="&#xf3;" horiz-adv-x="1139" 
d="M578 1087q229 0 367 -166q124 -147 124 -397q0 -263 -143 -413q-135 -142 -355 -142q-240 0 -377 165q-125 150 -125 393q0 236 118 385q138 175 391 175zM566 980q-158 0 -260 -119q-105 -122 -105 -332q0 -213 102 -334q100 -119 270 -119q162 0 258 111
q108 124 108 338q0 206 -97 329q-100 126 -276 126zM872 1505l-259 -291h-104l205 291h158z" />
    <glyph glyph-name="ograve" unicode="&#xf2;" horiz-adv-x="1139" 
d="M578 1087q229 0 367 -166q124 -147 124 -397q0 -263 -143 -413q-135 -142 -355 -142q-240 0 -377 165q-125 150 -125 393q0 236 118 385q138 175 391 175zM566 980q-158 0 -260 -119q-105 -122 -105 -332q0 -213 102 -334q100 -119 270 -119q162 0 258 111
q108 124 108 338q0 206 -97 329q-100 126 -276 126zM335 1505h157l206 -291h-104z" />
    <glyph glyph-name="ocircumflex" unicode="&#xf4;" horiz-adv-x="1139" 
d="M578 1087q229 0 367 -166q124 -147 124 -397q0 -263 -143 -413q-135 -142 -355 -142q-240 0 -377 165q-125 150 -125 393q0 236 118 385q138 175 391 175zM566 980q-158 0 -260 -119q-105 -122 -105 -332q0 -213 102 -334q100 -119 270 -119q162 0 258 111
q108 124 108 338q0 206 -97 329q-100 126 -276 126zM865 1214h-128l-160 216l-163 -216h-115l217 291h130z" />
    <glyph glyph-name="odieresis" unicode="&#xf6;" horiz-adv-x="1139" 
d="M578 1087q229 0 367 -166q124 -147 124 -397q0 -263 -143 -413q-135 -142 -355 -142q-240 0 -377 165q-125 150 -125 393q0 236 118 385q138 175 391 175zM566 980q-158 0 -260 -119q-105 -122 -105 -332q0 -213 102 -334q100 -119 270 -119q162 0 258 111
q108 124 108 338q0 206 -97 329q-100 126 -276 126zM821 1465v-209h-132v209h132zM450 1465v-209h-132v209h132z" />
    <glyph glyph-name="otilde" unicode="&#xf5;" horiz-adv-x="1139" 
d="M578 1087q229 0 367 -166q124 -147 124 -397q0 -263 -143 -413q-135 -142 -355 -142q-240 0 -377 165q-125 150 -125 393q0 236 118 385q138 175 391 175zM566 980q-158 0 -260 -119q-105 -122 -105 -332q0 -213 102 -334q100 -119 270 -119q162 0 258 111
q108 124 108 338q0 206 -97 329q-100 126 -276 126zM874 1465q-16 -97 -56.5 -148t-102.5 -51q-36 0 -68.5 12.5t-126.5 63.5q-34 18 -70 18q-61 0 -83 -102h-75q15 96 58.5 147.5t109.5 51.5q52 0 123 -40q68 -37 88 -45t44 -8q60 0 82 101h77z" />
    <glyph glyph-name="uacute" unicode="&#xfa;" horiz-adv-x="1100" 
d="M975 1056v-1056h-121v197q-120 -228 -370 -228q-89 0 -168 34t-127 94q-72 91 -72 278v681h129v-625q0 -149 26 -214q26 -62 90 -98q68 -38 151 -38q84 0 155.5 39t115.5 109q62 100 62 285v542h129zM829 1505l-259 -291h-104l205 291h158z" />
    <glyph glyph-name="ugrave" unicode="&#xf9;" horiz-adv-x="1100" 
d="M975 1056v-1056h-121v197q-120 -228 -370 -228q-89 0 -168 34t-127 94q-72 91 -72 278v681h129v-625q0 -149 26 -214q26 -62 90 -98q68 -38 151 -38q84 0 155.5 39t115.5 109q62 100 62 285v542h129zM301 1505h157l206 -291h-104z" />
    <glyph glyph-name="ucircumflex" unicode="&#xfb;" horiz-adv-x="1100" 
d="M975 1056v-1056h-121v197q-120 -228 -370 -228q-89 0 -168 34t-127 94q-72 91 -72 278v681h129v-625q0 -149 26 -214q26 -62 90 -98q68 -38 151 -38q84 0 155.5 39t115.5 109q62 100 62 285v542h129zM838 1214h-128l-160 216l-163 -216h-115l217 291h130z" />
    <glyph glyph-name="udieresis" unicode="&#xfc;" horiz-adv-x="1100" 
d="M975 1056v-1056h-121v197q-120 -228 -370 -228q-89 0 -168 34t-127 94q-72 91 -72 278v681h129v-625q0 -149 26 -214q26 -62 90 -98q68 -38 151 -38q84 0 155.5 39t115.5 109q62 100 62 285v542h129zM808 1465v-209h-132v209h132zM437 1465v-209h-132v209h132z" />
    <glyph glyph-name="dagger" unicode="&#x2020;" horiz-adv-x="1139" 
d="M1041 1010v-110h-415v-1293h-121v1293h-409v110h409v452h121v-452h415z" />
    <glyph glyph-name="degree" unicode="&#xb0;" horiz-adv-x="819" 
d="M416 1456q125 0 218 -96q87 -90 87 -214q0 -133 -92 -225q-90 -90 -218 -90q-139 0 -233 102q-81 88 -81 211q0 146 106 235q92 77 213 77zM404 1373q-83 0 -147 -60q-75 -70 -75 -169q0 -86 56 -151q67 -79 172 -79q92 0 159 67t67 160q0 96 -65 162q-69 70 -167 70z
" />
    <glyph glyph-name="cent" unicode="&#xa2;" horiz-adv-x="1139" 
d="M1049 598q-21 -172 -131 -284q-107 -107 -277 -119v-220h-95v220q-187 19 -298 141q-138 153 -138 412q0 301 183 454q96 79 253 105v180h95v-180q179 -14 282 -111q103 -98 122 -253h-132q-19 110 -90 176.5t-182 79.5v-898q131 13 209 115q57 74 74 182h125zM546 1196
q-126 -23 -200 -111q-103 -123 -103 -331q0 -190 78 -306.5t225 -145.5v894z" />
    <glyph glyph-name="sterling" unicode="&#xa3;" horiz-adv-x="1139" 
d="M1070 971h-128q-2 134 -58 230q-40 68 -117 105.5t-177 37.5q-157 0 -248 -87q-86 -82 -86 -201q0 -96 74 -233q24 -43 39 -73h335v-95h-285q39 -82 39 -178q0 -131 -97 -255q-26 -34 -126 -130q81 40 124.5 52.5t101.5 12.5q54 0 93 -9t168 -53q49 -16 101 -16
q128 0 239 106l65 -97q-59 -60 -138.5 -93t-164.5 -33q-54 0 -90 8.5t-162 51.5q-94 32 -167 32q-59 0 -106.5 -18t-122.5 -69l-73 108q231 171 231 379q0 80 -50 201h-174v95h119q-63 110 -84.5 173t-21.5 138q0 187 155 303q122 91 315 91q229 0 353 -126t124 -358z" />
    <glyph glyph-name="section" unicode="&#xa7;" horiz-adv-x="1139" 
d="M935 1082h-125q-15 256 -250 256q-86 0 -145 -40q-78 -52 -78 -147t95 -166q28 -21 250 -149q209 -120 279 -194q86 -92 86 -207q0 -99 -59 -177.5t-164 -118.5q65 -58 92 -111.5t27 -124.5q0 -135 -103 -221.5t-263 -86.5q-181 0 -282 98t-109 281h127q7 -133 74.5 -202
t192.5 -69q112 0 176 61q58 56 58 133q0 88 -77 153q-63 54 -255 165q-161 94 -210 127t-88 73q-93 95 -93 221q0 104 59.5 183t161.5 111q-102 95 -102 214q0 133 98.5 217t254.5 84q175 0 272.5 -94.5t99.5 -268.5zM386 867q-174 -79 -174 -220q0 -85 80 -157
q46 -41 266 -170q128 -75 187 -118q86 32 132.5 87t46.5 126q0 90 -81.5 161.5t-367.5 233.5q-56 32 -89 57z" />
    <glyph glyph-name="bullet" unicode="&#x2022;" horiz-adv-x="1024" 
d="M520 1047q121 0 209 -88q90 -89 90 -216q0 -126 -89 -215t-215 -89q-124 0 -213 88q-91 90 -91 215q0 130 90 217q91 88 219 88z" />
    <glyph glyph-name="paragraph" unicode="&#xb6;" horiz-adv-x="1229" 
d="M532 -392v1079h-33q-121 0 -217 57q-78 47 -124 133q-47 87 -47 194q0 108 47.5 197t129.5 136q100 58 283 58h509v-98h-95v-1756h-126v1756h-201v-1756h-126z" />
    <glyph glyph-name="germandbls" unicode="&#xdf;" horiz-adv-x="1100" 
d="M461 95q43 -4 73 -4q171 0 258 86q96 95 96 260q0 190 -129 269q-89 54 -262 54h-36v103h27q158 0 241 66q86 67 86 197q0 115 -77.5 186t-202.5 71q-153 0 -220 -93q-30 -40 -41.5 -94.5t-11.5 -151.5v-1044h-129v1002q0 143 11.5 209t45.5 118q50 77 141.5 119.5
t208.5 42.5q177 0 288 -94q117 -98 117 -265q0 -120 -61 -201t-171 -108q80 -11 138 -45q80 -47 123.5 -135t43.5 -202q0 -206 -124.5 -330.5t-330.5 -124.5q-35 0 -102 3v106z" />
    <glyph glyph-name="registered" unicode="&#xae;" horiz-adv-x="1638" 
d="M508 1149h395q119 0 185 -38q107 -61 107 -190q0 -144 -144 -201q64 -19 96 -68q17 -28 22 -54t14 -135q5 -71 13.5 -97t32.5 -51h-117q-21 27 -25 121q-6 101 -15.5 138.5t-36.5 64.5q-43 42 -178 42h-249v-366h-100v834zM608 1066v-306h239q122 0 176 29q72 38 72 126
q0 151 -219 151h-268zM831 1496q204 0 388 -113t281 -304q83 -165 83 -348q0 -215 -112 -399t-304 -282q-164 -84 -347 -84q-214 0 -398 112q-184 113 -282 305q-84 165 -84 346q0 218 113 403q110 181 305 281q163 83 357 83zM812 1421q-182 0 -347 -102
q-164 -101 -251 -274q-75 -148 -75 -314q0 -194 101 -361q101 -166 272 -254q146 -75 308 -75q192 0 356 102q163 102 250 275q74 147 74 311q0 197 -100 363q-98 163 -271 254q-144 75 -317 75z" />
    <glyph glyph-name="copyright" unicode="&#xa9;" horiz-adv-x="1638" 
d="M1224 644q-11 -132 -87 -221q-108 -127 -299 -127q-202 0 -316 140q-94 116 -94 295q0 195 115.5 316t302.5 121q176 0 283 -107q75 -75 85 -173h-99q-21 93 -93 145t-180 52q-160 0 -246 -120q-69 -95 -69 -233q0 -143 67 -235q88 -118 246 -118q123 0 196.5 68
t89.5 197h98zM831 1496q204 0 388 -113t281 -304q83 -165 83 -348q0 -215 -112 -399t-304 -282q-164 -84 -347 -84q-214 0 -398 112q-184 113 -282 305q-84 165 -84 346q0 218 113 403q110 181 305 281q163 83 357 83zM812 1421q-182 0 -347 -102q-164 -101 -251 -274
q-75 -148 -75 -314q0 -194 101 -361q101 -166 272 -254q146 -75 308 -75q192 0 356 102q163 102 250 275q74 147 74 311q0 197 -100 363q-98 163 -271 254q-144 75 -317 75z" />
    <glyph glyph-name="trademark" unicode="&#x2122;" horiz-adv-x="2028" 
d="M842 1462v-82h-304v-752h-97v752h-303v82h704zM1800 1462v-833h-94v502q0 80 6 207l-6 -16q-27 -70 -34 -85l-255 -608h-83l-260 600q-18 41 -40 103q6 -133 6 -199v-504h-94v833h126l252 -588q30 -72 52 -135q30 86 50 133l247 590h127z" />
    <glyph glyph-name="acute" unicode="&#xb4;" horiz-adv-x="379" 
d="M459 1505l-259 -291h-104l205 291h158z" />
    <glyph glyph-name="dieresis" unicode="&#xa8;" horiz-adv-x="379" 
d="M441 1465v-209h-132v209h132zM70 1465v-209h-132v209h132z" />
    <glyph glyph-name="notequal" unicode="&#x2260;" horiz-adv-x="1214" 
d="M660 946l129 266l98 -36l-111 -230h308v-115h-358l-108 -228h465v-115h-511l-133 -276l-98 36l114 240h-323v115h369l109 228h-478v115h528z" />
    <glyph glyph-name="AE" unicode="&#xc6;" horiz-adv-x="1858" 
d="M1804 1462v-120h-756v-525h705v-120h-705v-577h765v-120h-904v478h-524l-245 -478h-160l764 1462h1060zM909 595v747h-85l-382 -747h467z" />
    <glyph glyph-name="Oslash" unicode="&#xd8;" horiz-adv-x="1518" 
d="M1290 1242q158 -212 158 -515t-154 -505q-194 -256 -537 -256q-272 0 -460 174l-153 -165l-74 66l158 176q-158 211 -158 514q0 342 189 550q194 215 499 215q277 0 464 -178l149 168l74 -67zM1191 1150l-802 -919q53 -44 97 -71q120 -74 273 -74q240 0 393 171
q157 175 157 469q0 253 -118 424zM324 313l805 914q-162 149 -370 149q-241 0 -396 -176q-154 -174 -154 -463q0 -251 115 -424z" />
    <glyph glyph-name="infinity" unicode="&#x221e;" horiz-adv-x="1554" 
d="M779 677q-91 -136 -178.5 -196.5t-192.5 -60.5q-106 0 -183 51q-137 91 -137 280q0 173 128 263q85 60 192 60q199 0 368 -257q50 76 93 123q124 133 279 133q167 0 255 -122q63 -86 63 -207q0 -156 -100 -245q-90 -79 -217 -79q-108 0 -195.5 60.5t-174.5 196.5z
M828 747q42 -65 79 -109q108 -127 236 -127q103 0 166 76q54 64 54 160q0 125 -86 189q-62 47 -138 47q-87 0 -155 -51.5t-156 -184.5zM726 745q-41 65 -79 111q-109 127 -235 127q-104 0 -167 -76q-54 -64 -54 -160q0 -126 85 -190q63 -47 138 -47q87 0 156 52t156 183z
" />
    <glyph glyph-name="plusminus" unicode="&#xb1;" horiz-adv-x="1229" 
d="M123 867h443v443h95v-443h443v-95h-443v-443h-95v443h-443v95zM123 205h981v-95h-981v95z" />
    <glyph glyph-name="lessequal" unicode="&#x2264;" horiz-adv-x="1214" 
d="M1083 1280v-131l-799 -322l798 -321v-131l-950 392v121zM1083 311v-122h-951v122h951z" />
    <glyph glyph-name="greaterequal" unicode="&#x2265;" horiz-adv-x="1214" 
d="M132 375v131l799 321l-799 322v131l951 -392v-121zM132 189v122h951v-122h-951z" />
    <glyph glyph-name="yen" unicode="&#xa5;" horiz-adv-x="1139" 
d="M375 834l-341 585h144l326 -569q28 -48 68 -129q44 88 65 125l329 573h138l-342 -585h298v-88h-349l-82 -141v-108h387v-88h-387v-409h-120v409h-387v88h387v108l-83 141h-348v88h297z" />
    <glyph glyph-name="mu" unicode="&#xb5;" horiz-adv-x="1100" 
d="M123 -362v1415h120v-607q0 -117 16 -171q26 -90 103 -146t174 -56q157 0 243 128q43 63 60.5 124.5t17.5 144.5v583h120v-1053h-120v215q-40 -102 -95 -155q-92 -90 -228 -90q-97 0 -166.5 40.5t-124.5 129.5v-502h-120z" />
    <glyph glyph-name="partialdiff" unicode="&#x2202;" horiz-adv-x="1047" 
d="M175 1365l16 108q172 -24 286 -74q266 -117 404 -391q113 -223 113 -497q0 -197 -84 -325q-70 -108 -185 -165q-94 -46 -199 -46q-167 0 -298 110q-67 56 -110 131q-65 115 -65 250q0 161 90 294q70 103 180 154q90 41 187 41q67 0 133.5 -20.5t110.5 -54.5
q34 -27 95 -106q-11 25 -70 177q-95 193 -258 290q-85 54 -159 80.5t-187 43.5zM534 853q-52 0 -113.5 -21.5t-104.5 -54.5q-54 -41 -92 -111q-51 -96 -51 -201q0 -169 117 -283q102 -100 236 -100q119 0 214 79q133 111 133 314q0 194 -119 296q-95 82 -220 82z" />
    <glyph glyph-name="summation" unicode="&#x2211;" horiz-adv-x="1260" 
d="M1196 1645v-489h-121l-11 366h-945l551 -929l-550 -1020h964l6 367h127v-488h-1243v142l541 999l-541 915v137h1222z" />
    <glyph glyph-name="product" unicode="&#x220f;" horiz-adv-x="1473" 
d="M68 1645h1336v-109h-163v-1975h163v-109h-456v109h172v1975h-768v-1975h169v-109h-453v109h164v1975h-164v109z" />
    <glyph glyph-name="pi" unicode="&#x3c0;" horiz-adv-x="1167" 
d="M826 955h-485v-955h-128v955h-166v101h1074v-101h-166v-955h-129v955z" />
    <glyph glyph-name="integral" unicode="&#x222b;" horiz-adv-x="1135" 
d="M259 -525l31 123q46 -22 84 -22q89 0 113 75q11 32 11 187v1399q2 158 4 190.5t13 69.5q21 68 84 108t149 40q56 0 128 -24l-31 -122q-45 22 -85 22q-89 0 -113 -75q-10 -34 -10 -154v-1430q0 -156 -7 -209.5t-32 -92.5q-30 -47 -96.5 -76t-146.5 -29q-47 0 -96 20z" />
    <glyph glyph-name="ordfeminine" unicode="&#xaa;" horiz-adv-x="637" 
d="M644 651h-652v73h652v-73zM608 952v-69q-33 -10 -65 -10q-75 0 -83 88q-74 -100 -218 -100q-88 0 -139 39q-60 47 -60 129q0 118 116 162q46 17 210 33q50 4 68.5 17.5t18.5 46.5q0 64 -35 90q-38 29 -112 29q-76 0 -112 -32t-43 -103h-83q4 102 67 155t178 53
q125 0 186 -61q39 -38 39 -122l-1 -234q1 -88 5 -102.5t28 -14.5q14 0 35 6zM456 1181q-46 -18 -94 -24q-130 -16 -170 -34q-61 -26 -61 -87q0 -47 35.5 -75t95.5 -28q85 0 139.5 47.5t54.5 122.5v78z" />
    <glyph glyph-name="ordmasculine" unicode="&#xba;" horiz-adv-x="684" 
d="M668 651h-652v73h652v-73zM348 1478q131 0 211 -92q71 -82 71 -218q0 -145 -82 -228q-78 -79 -204 -79q-140 0 -217 91q-72 85 -72 217q0 131 68 212q81 97 225 97zM340 1406q-88 0 -142.5 -65t-54.5 -171q0 -112 55 -175q55 -62 146 -62q87 0 139 57q59 64 59 178
q0 109 -53 173q-54 65 -149 65z" />
    <glyph glyph-name="glyph159" horiz-adv-x="569" 
 />
    <glyph glyph-name="ae" unicode="&#xe6;" horiz-adv-x="1782" 
d="M1704 345q-28 -135 -104 -225q-128 -151 -352 -151q-296 0 -392 267q-49 -123 -172.5 -197t-279.5 -74q-155 0 -249.5 86.5t-94.5 227.5q0 150 106 234q83 66 315 88q234 22 270 46q25 17 34.5 39t9.5 62q0 115 -57 169q-66 63 -214 63q-143 0 -215 -61t-83 -192h-124
q15 153 95 237q114 123 331 123q190 0 281 -80q50 -43 76 -138q37 79 95 128q108 90 272 90q225 0 353 -161q111 -141 111 -381q0 -16 -1 -48h-800q-1 -155 50 -252q90 -169 295 -169q256 0 320 269h124zM1586 604q-3 139 -63 232q-93 144 -272 144q-91 0 -166.5 -42.5
t-118.5 -118.5q-42 -74 -54 -215h674zM794 574q-29 -26 -65 -36.5t-124 -18.5q-205 -19 -274 -44q-140 -50 -140 -190q0 -98 63 -158q65 -62 184 -62q171 0 278 124q43 49 60.5 107t17.5 152v126z" />
    <glyph glyph-name="oslash" unicode="&#xf8;" horiz-adv-x="1139" 
d="M972 888q35 -56 54 -102q44 -110 44 -261q0 -265 -143 -414q-136 -142 -354 -142q-201 0 -341 124l-116 -126l-68 62l124 134q-103 157 -103 365q0 236 118 384q139 175 383 175q206 0 341 -127l112 119l68 -61zM878 800l-560 -622q114 -102 256 -102q161 0 258 111
q108 124 108 340q0 152 -62 273zM263 253l563 622q-110 105 -256 105q-164 0 -265 -119q-106 -123 -106 -328q0 -166 64 -280z" />
    <glyph glyph-name="questiondown" unicode="&#xbf;" horiz-adv-x="1100" 
d="M982 47q-5 -181 -70 -286q-58 -95 -158.5 -146.5t-225.5 -51.5q-201 0 -319 115q-107 105 -107 264q0 140 81 247q34 44 164 168q62 60 83.5 92.5t33.5 82.5q12 54 13 160h123q-2 -158 -29 -229q-19 -49 -50 -87t-156 -162q-130 -129 -130 -264q0 -110 72 -187
q81 -86 223 -86q191 0 277 150q43 76 51 220h124zM463 851v205h154v-205h-154z" />
    <glyph glyph-name="exclamdown" unicode="&#xa1;" horiz-adv-x="494" 
d="M161 -406v429l32 666h76l31 -666v-429h-139zM154 851v205h154v-205h-154z" />
    <glyph glyph-name="logicalnot" unicode="&#xac;" horiz-adv-x="1229" 
d="M956 0v480h-816v122h950v-602h-134z" />
    <glyph glyph-name="radical" unicode="&#x221a;" horiz-adv-x="1032" 
d="M1247 1813v-112h-435l-519 -1701h-138l-199 664h-171v112h251l101 -325q9 -30 35 -131q35 -131 43 -162h6q11 43 56 201l62 221l117 382l259 851h532z" />
    <glyph glyph-name="florin" unicode="&#x192;" horiz-adv-x="1139" 
d="M932 1000l-18 -102h-230l-160 -887q-23 -129 -49 -198t-68 -117q-79 -88 -224 -88q-52 0 -114 9l19 111q52 -7 86 -7q98 0 143 62.5t79 245.5l158 869h-208l19 102h207l46 252q31 168 85 238q82 105 250 105q56 0 124 -8l-22 -111q-58 8 -99 8q-91 0 -138.5 -53
t-70.5 -180l-47 -251h232z" />
    <glyph glyph-name="approxequal" unicode="&#x2248;" horiz-adv-x="1214" 
d="M161 763l-78 52q115 236 290 236q85 0 257 -89q93 -48 133 -62.5t79 -14.5q63 0 108.5 35t103.5 128l77 -52q-47 -101 -111 -159q-83 -75 -189 -75q-49 0 -95 17.5t-183 87.5q-118 60 -190 60q-55 0 -102.5 -38.5t-99.5 -125.5zM161 410l-78 53q115 235 290 235
q85 0 257 -89q92 -48 132.5 -62.5t80.5 -14.5q63 0 108.5 35.5t102.5 128.5l77 -53q-48 -101 -111 -159q-83 -75 -189 -75q-48 0 -97 18.5t-181 86.5q-118 60 -190 60q-55 0 -102 -37.5t-100 -126.5z" />
    <glyph glyph-name="Delta" unicode="&#x394;" horiz-adv-x="1380" 
d="M1346 0h-1311l577 1462h147zM222 120h934l-475 1208z" />
    <glyph glyph-name="guillemotleft" unicode="&#xab;" horiz-adv-x="872" 
d="M394 220l-275 260v125l275 257v-134l-193 -186l193 -182v-140zM724 222l-273 256v125l273 258v-134l-192 -186l192 -184v-135z" />
    <glyph glyph-name="guillemotright" unicode="&#xbb;" horiz-adv-x="872" 
d="M477 862l276 -260v-125l-276 -257v135l194 185l-194 182v140zM148 861l273 -257v-125l-273 -258v134l192 186l-192 185v135z" />
    <glyph glyph-name="ellipsis" unicode="&#x2026;" 
d="M618 219v-219h-168v219h168zM1108 219v-219h-168v219h168zM1598 219v-219h-168v219h168z" />
    <glyph glyph-name="glyph172" horiz-adv-x="1139" 
 />
    <glyph glyph-name="Agrave" unicode="&#xc0;" horiz-adv-x="1290" 
d="M726 1467l584 -1467h-156l-176 460h-669l-180 -460h-149l591 1467h155zM935 573l-210 541q-47 122 -79 222q-44 -125 -80 -215l-215 -548h584zM352 1860h168l228 -276h-108z" />
    <glyph glyph-name="Atilde" unicode="&#xc3;" horiz-adv-x="1290" 
d="M726 1467l584 -1467h-156l-176 460h-669l-180 -460h-149l591 1467h155zM935 573l-210 541q-47 122 -79 222q-44 -125 -80 -215l-215 -548h584zM983 1823q-18 -97 -63.5 -148t-112.5 -51q-41 0 -77 12.5t-141 63.5q-38 19 -78 19q-70 0 -98 -103h-77q16 96 64.5 148
t122.5 52q58 0 137 -40q74 -37 96.5 -45.5t49.5 -8.5q72 0 97 101h80z" />
    <glyph glyph-name="Otilde" unicode="&#xd5;" horiz-adv-x="1518" 
d="M769 1496q294 0 488 -215q191 -211 191 -554q0 -303 -154 -505q-194 -256 -537 -256q-339 0 -533 256q-154 203 -154 507q0 347 189 552q197 215 510 215zM751 1376q-232 0 -388 -176q-154 -173 -154 -464q0 -275 131 -448q80 -105 204 -159q100 -43 215 -43
q240 0 393 171q157 175 157 469q0 292 -151 469q-154 181 -407 181zM1104 1823q-18 -97 -63.5 -148t-112.5 -51q-41 0 -77 12.5t-141 63.5q-38 19 -78 19q-70 0 -98 -103h-77q16 96 64.5 148t122.5 52q58 0 137 -40q74 -37 96.5 -45.5t49.5 -8.5q72 0 97 101h80z" />
    <glyph glyph-name="OE" unicode="&#x152;" horiz-adv-x="2200" 
d="M2137 1462v-120h-834v-525h756v-120h-756v-577h841v-120h-971v149q-173 -183 -422 -183q-323 0 -520 250q-159 203 -159 507q0 341 189 552q198 221 504 221q179 0 311 -78l97 -76v120h964zM1164 351v768q0 42 -18.5 75.5t-64.5 74.5q-120 107 -302 107q-274 0 -436 -210
q-132 -171 -132 -440q0 -286 155 -463t398 -177q207 0 333 128q67 69 67 137z" />
    <glyph glyph-name="oe" unicode="&#x153;" horiz-adv-x="1821" 
d="M1754 344q-30 -130 -98 -214q-131 -161 -356 -161q-299 0 -387 270q-30 -90 -85 -150q-111 -120 -302 -120q-229 0 -358 178q-104 142 -104 379q0 254 125 406q127 155 347 155q287 0 382 -257q44 102 104 156q110 101 283 101q218 0 339 -146.5t121 -410.5q0 -11 -1 -33
h-791q-1 -25 -1 -38q0 -137 67 -238q95 -146 271 -146q242 0 320 269h124zM1635 604q-9 151 -59 228q-94 148 -274 148q-92 0 -166 -43.5t-116 -122.5q-43 -79 -50 -210h665zM526 980q-155 0 -241 -120q-91 -126 -91 -336q0 -203 85 -323q42 -59 109.5 -92t145.5 -33
q115 0 195 68q131 112 131 391q0 214 -85 330q-83 115 -249 115z" />
    <glyph glyph-name="endash" unicode="&#x2013;" horiz-adv-x="1199" 
d="M1060 600v-117h-921v117h921z" />
    <glyph glyph-name="emdash" unicode="&#x2014;" 
d="M1755 600v-117h-1462v117h1462z" />
    <glyph glyph-name="quotedblleft" unicode="&#x201c;" horiz-adv-x="758" 
d="M455 996v176q0 245 174 313v-85q-51 -34 -69.5 -74.5t-20.5 -123.5h77v-206h-161zM141 996v176q0 245 174 313v-85q-51 -34 -69.5 -75t-20.5 -123h77v-206h-161z" />
    <glyph glyph-name="quotedblright" unicode="&#x201d;" horiz-adv-x="758" 
d="M302 1462v-176q0 -120 -44.5 -200.5t-129.5 -112.5v84q51 34 69.5 76t20.5 123h-77v206h161zM617 1462v-176q0 -120 -45 -200.5t-129 -112.5v84q51 34 69.5 75.5t20.5 123.5h-77v206h161z" />
    <glyph glyph-name="quoteleft" unicode="&#x2018;" horiz-adv-x="569" 
d="M201 987v167q0 92 12 142t46 100q43 63 123 89v-88q-90 -47 -93 -196h80v-214h-168z" />
    <glyph glyph-name="quoteright" unicode="&#x2019;" horiz-adv-x="569" 
d="M368 1462v-167q0 -91 -12 -141.5t-47 -100.5q-42 -62 -122 -88v87q50 30 70.5 74t21.5 122h-79v214h168z" />
    <glyph glyph-name="divide" unicode="&#xf7;" horiz-adv-x="1229" 
d="M123 757h981v-95h-981v95zM616 1124q39 0 67 -28.5t28 -67.5q0 -40 -28.5 -68.5t-68.5 -28.5t-68 28.5t-28 69.5q0 39 28.5 67t69.5 28zM616 487q39 0 67 -28.5t28 -68.5q0 -39 -28.5 -67.5t-67.5 -28.5q-41 0 -69 28.5t-28 68.5t28.5 68t69.5 28z" />
    <glyph glyph-name="lozenge" unicode="&#x25ca;" horiz-adv-x="1214" 
d="M607 1520l570 -788l-570 -788l-569 788zM607 1248l-375 -516l375 -516l376 516z" />
    <glyph glyph-name="ydieresis" unicode="&#xff;" horiz-adv-x="948" 
d="M948 1056l-415 -1096q-77 -203 -117 -263q-65 -98 -194 -98q-42 0 -86 6l-28 4v114q59 -14 95 -14q57 0 97 37t71 117l56 139q0 3 -1 6l-425 1048h141l287 -727q14 -35 62 -186q42 136 66 199l259 714h132zM726 1465v-209h-132v209h132zM355 1465v-209h-132v209h132z" />
    <glyph glyph-name="Ydieresis" unicode="&#x178;" horiz-adv-x="1251" 
d="M1277 1462l-579 -857v-605h-139v605l-581 857h167l408 -612q36 -54 79 -129q45 79 75 124l410 617h160zM917 1821v-205h-139v205h139zM474 1821v-205h-139v205h139z" />
    <glyph glyph-name="fraction" unicode="&#x2044;" horiz-adv-x="342" 
d="M654 1436l-868 -1436h-98l870 1436h96z" />
    <glyph glyph-name="currency" unicode="&#xa4;" horiz-adv-x="1139" 
d="M39 251l179 183q-103 130 -103 283q0 146 103 281l-185 183l67 66l183 -182q136 105 287 105t285 -104l183 181l67 -67l-183 -181q103 -136 103 -284t-102 -281l183 -183l-65 -67l-184 184q-133 -103 -284 -103q-146 0 -286 102l-183 -183zM566 1066q-140 0 -242 -103
q-101 -102 -101 -246t101 -246q102 -102 246 -102q143 0 246 102q101 102 101 245q0 148 -101 247q-104 103 -250 103z" />
    <glyph glyph-name="guilsinglleft" unicode="&#x2039;" horiz-adv-x="530" 
d="M387 221l-273 256v125l273 259v-134l-192 -187l192 -184v-135z" />
    <glyph glyph-name="guilsinglright" unicode="&#x203a;" horiz-adv-x="530" 
d="M143 861l273 -257v-125l-273 -258v134l192 186l-192 185v135z" />
    <glyph glyph-name="glyph192" horiz-adv-x="569" 
 />
    <glyph glyph-name="glyph193" horiz-adv-x="569" 
 />
    <glyph glyph-name="daggerdbl" unicode="&#x2021;" horiz-adv-x="1139" 
d="M1041 1028v-110h-414v-738h414v-110h-414v-462h-121v462h-409v110h409v738h-409v110h409v434h121v-434h414z" />
    <glyph glyph-name="periodcentered" unicode="&#xb7;" horiz-adv-x="569" 
d="M369 650v-219h-168v219h168z" />
    <glyph glyph-name="quotesinglbase" unicode="&#x201a;" horiz-adv-x="569" 
d="M368 214v-167q0 -91 -12 -141.5t-47 -100.5q-42 -63 -122 -89v88q90 47 92 196h-79v214h168z" />
    <glyph glyph-name="quotedblbase" unicode="&#x201e;" horiz-adv-x="758" 
d="M302 206v-176q0 -120 -44.5 -200.5t-129.5 -112.5v84q50 34 69 76t21 123h-77v206h161zM617 206v-176q0 -120 -45 -200.5t-129 -112.5v84q50 34 69 75.5t21 123.5h-77v206h161z" />
    <glyph glyph-name="perthousand" unicode="&#x2030;" horiz-adv-x="2275" 
d="M1159 671q153 0 232 -101q70 -89 70 -236q0 -172 -78.5 -264t-224.5 -92q-164 0 -242 101q-67 88 -67 242q0 178 85 266q80 84 225 84zM1153 586q-95 0 -144 -68.5t-49 -201.5q0 -253 196 -253q194 0 194 265q0 123 -44 184q-53 74 -153 74zM1895 673q145 0 225 -89.5
t80 -251.5q0 -167 -80.5 -260.5t-224.5 -93.5q-165 0 -243 103q-67 87 -67 241q0 180 86 266q84 85 224 85zM1889 588q-94 0 -145 -70t-51 -197q0 -124 51.5 -191t147.5 -67q194 0 194 265q0 260 -197 260zM386 1454q144 0 223.5 -90.5t79.5 -254.5t-82.5 -258t-227.5 -94
q-154 0 -230 98q-74 93 -74 251q0 171 85 261q81 87 226 87zM379 1368q-92 0 -142.5 -70.5t-50.5 -197.5q0 -255 194 -255q94 0 145 67.5t51 192.5q0 118 -41 183q-52 80 -156 80zM1222 1418l-803 -1418h-107l803 1418h107z" />
    <glyph glyph-name="Acircumflex" unicode="&#xc2;" horiz-adv-x="1290" 
d="M726 1467l584 -1467h-156l-176 460h-669l-180 -460h-149l591 1467h155zM935 573l-210 541q-47 122 -79 222q-44 -125 -80 -215l-215 -548h584zM965 1584h-130l-195 199l-199 -199h-117l252 276h134z" />
    <glyph glyph-name="Ecircumflex" unicode="&#xca;" horiz-adv-x="1214" 
d="M1158 1462v-120h-876v-525h820v-120h-820v-577h885v-120h-1024v1462h1015zM975 1584h-130l-195 199l-199 -199h-117l252 276h134z" />
    <glyph glyph-name="Aacute" unicode="&#xc1;" horiz-adv-x="1290" 
d="M726 1467l584 -1467h-156l-176 460h-669l-180 -460h-149l591 1467h155zM935 573l-210 541q-47 122 -79 222q-44 -125 -80 -215l-215 -548h584zM987 1860l-289 -276h-107l227 276h169z" />
    <glyph glyph-name="Edieresis" unicode="&#xcb;" horiz-adv-x="1214" 
d="M1158 1462v-120h-876v-525h820v-120h-820v-577h885v-120h-1024v1462h1015zM942 1821v-205h-139v205h139zM499 1821v-205h-139v205h139z" />
    <glyph glyph-name="Egrave" unicode="&#xc8;" horiz-adv-x="1214" 
d="M1158 1462v-120h-876v-525h820v-120h-820v-577h885v-120h-1024v1462h1015zM393 1860h168l228 -276h-108z" />
    <glyph glyph-name="Iacute" unicode="&#xcd;" horiz-adv-x="455" 
d="M297 1462v-1462h-139v1462h139zM536 1860l-252 -276h-100l191 276h161z" />
    <glyph glyph-name="Icircumflex" unicode="&#xce;" horiz-adv-x="455" 
d="M297 1462v-1462h-139v1462h139zM497 1584h-123l-151 199l-155 -199h-117l208 276h134z" />
    <glyph glyph-name="Idieresis" unicode="&#xcf;" horiz-adv-x="455" 
d="M297 1462v-1462h-139v1462h139zM430 1821v-205h-139v205h139zM163 1821v-205h-139v205h139z" />
    <glyph glyph-name="Igrave" unicode="&#xcc;" horiz-adv-x="455" 
d="M297 1462v-1462h-139v1462h139zM-29 1860h161l191 -276h-100z" />
    <glyph glyph-name="Oacute" unicode="&#xd3;" horiz-adv-x="1518" 
d="M769 1496q294 0 488 -215q191 -211 191 -554q0 -303 -154 -505q-194 -256 -537 -256q-339 0 -533 256q-154 203 -154 507q0 347 189 552q197 215 510 215zM751 1376q-232 0 -388 -176q-154 -173 -154 -464q0 -275 131 -448q80 -105 204 -159q100 -43 215 -43
q240 0 393 171q157 175 157 469q0 292 -151 469q-154 181 -407 181zM1059 1860l-289 -276h-107l227 276h169z" />
    <glyph glyph-name="Ocircumflex" unicode="&#xd4;" horiz-adv-x="1518" 
d="M769 1496q294 0 488 -215q191 -211 191 -554q0 -303 -154 -505q-194 -256 -537 -256q-339 0 -533 256q-154 203 -154 507q0 347 189 552q197 215 510 215zM751 1376q-232 0 -388 -176q-154 -173 -154 -464q0 -275 131 -448q80 -105 204 -159q100 -43 215 -43
q240 0 393 171q157 175 157 469q0 292 -151 469q-154 181 -407 181zM1079 1584h-130l-195 199l-199 -199h-117l252 276h134z" />
    <glyph glyph-name="glyph210" horiz-adv-x="569" 
 />
    <glyph glyph-name="Ograve" unicode="&#xd2;" horiz-adv-x="1518" 
d="M769 1496q294 0 488 -215q191 -211 191 -554q0 -303 -154 -505q-194 -256 -537 -256q-339 0 -533 256q-154 203 -154 507q0 347 189 552q197 215 510 215zM751 1376q-232 0 -388 -176q-154 -173 -154 -464q0 -275 131 -448q80 -105 204 -159q100 -43 215 -43
q240 0 393 171q157 175 157 469q0 292 -151 469q-154 181 -407 181zM488 1860h168l228 -276h-108z" />
    <glyph glyph-name="Uacute" unicode="&#xda;" horiz-adv-x="1403" 
d="M1272 1462v-876q0 -166 -22 -251q-48 -180 -186 -274.5t-353 -94.5q-357 0 -500 236q-43 72 -60.5 158.5t-17.5 230.5v871h139v-877q0 -128 15.5 -203.5t53.5 -134.5q105 -164 371 -164q255 0 353 158q37 59 52.5 138t15.5 208v875h139zM1020 1860l-289 -276h-107
l227 276h169z" />
    <glyph glyph-name="Ucircumflex" unicode="&#xdb;" horiz-adv-x="1403" 
d="M1272 1462v-876q0 -166 -22 -251q-48 -180 -186 -274.5t-353 -94.5q-357 0 -500 236q-43 72 -60.5 158.5t-17.5 230.5v871h139v-877q0 -128 15.5 -203.5t53.5 -134.5q105 -164 371 -164q255 0 353 158q37 59 52.5 138t15.5 208v875h139zM1023 1584h-130l-195 199
l-199 -199h-117l252 276h134z" />
    <glyph glyph-name="Ugrave" unicode="&#xd9;" horiz-adv-x="1403" 
d="M1272 1462v-876q0 -166 -22 -251q-48 -180 -186 -274.5t-353 -94.5q-357 0 -500 236q-43 72 -60.5 158.5t-17.5 230.5v871h139v-877q0 -128 15.5 -203.5t53.5 -134.5q105 -164 371 -164q255 0 353 158q37 59 52.5 138t15.5 208v875h139zM430 1860h168l228 -276h-108z" />
    <glyph glyph-name="dotlessi" unicode="&#x131;" horiz-adv-x="379" 
d="M254 1056v-1056h-129v1056h129z" />
    <glyph glyph-name="circumflex" unicode="&#x2c6;" horiz-adv-x="379" 
d="M472 1214h-128l-160 216l-163 -216h-115l217 291h130z" />
    <glyph glyph-name="tilde" unicode="&#x2dc;" horiz-adv-x="379" 
d="M480 1465q-16 -97 -56.5 -148t-102.5 -51q-36 0 -68.5 12.5t-126.5 63.5q-34 18 -70 18q-61 0 -83 -102h-75q15 96 58.5 147.5t109.5 51.5q52 0 123 -40q68 -37 88 -45t44 -8q60 0 82 101h77z" />
    <glyph glyph-name="macron" unicode="&#xaf;" horiz-adv-x="379" 
d="M477 1408v-92h-576v92h576z" />
    <glyph glyph-name="breve" unicode="&#x2d8;" horiz-adv-x="379" 
d="M456 1501q-12 -91 -47 -151q-71 -122 -223 -122q-113 0 -184 73.5t-79 199.5h79q32 -179 193 -179q146 0 182 179h79z" />
    <glyph glyph-name="dotaccent" unicode="&#x2d9;" horiz-adv-x="379" 
d="M256 1465v-209h-132v209h132z" />
    <glyph glyph-name="ring" unicode="&#x2da;" horiz-adv-x="379" 
d="M193 1579q87 0 148 -68q53 -58 53 -136q0 -91 -68 -152q-58 -53 -136 -53q-91 0 -152 68q-53 58 -53 138q0 88 68 150q58 53 140 53zM187 1494q-48 0 -82.5 -35.5t-34.5 -83.5q0 -50 35 -85t85 -35q49 0 84 35t35 85t-35.5 84.5t-86.5 34.5z" />
    <glyph glyph-name="cedilla" unicode="&#xb8;" horiz-adv-x="379" 
d="M249 0l-87 -115q43 8 72 8q74 0 118 -36.5t44 -98.5q0 -80 -60.5 -127.5t-162.5 -47.5q-84 0 -190 42l29 62q75 -33 146 -33q57 0 91 25t34 67q0 37 -30 60t-78 23q-37 0 -86 -18l-31 31l122 158h69z" />
    <glyph glyph-name="hungarumlaut" unicode="&#x2dd;" horiz-adv-x="379" 
d="M567 1505l-211 -291h-96l157 291h150zM290 1505l-212 -291h-96l157 291h151z" />
    <glyph glyph-name="ogonek" unicode="&#x2db;" horiz-adv-x="379" 
d="M614 0h91q-149 -94 -149 -201q0 -41 37.5 -67.5t95.5 -26.5q37 0 92 18v-77q-65 -22 -121 -22q-106 0 -164 53q-49 46 -49 111q0 115 167 212z" />
    <glyph glyph-name="caron" unicode="&#x2c7;" horiz-adv-x="379" 
d="M-94 1505h128l160 -217l163 217h115l-217 -291h-129z" />
    <glyph glyph-name="Lslash" unicode="&#x141;" horiz-adv-x="1100" 
d="M138 728v734h139v-667l342 258v-139l-342 -257v-537h823v-120h-962v590l-154 -114v138z" />
    <glyph glyph-name="lslash" unicode="&#x142;" horiz-adv-x="379" 
d="M124 804v658h129v-593l139 105v-122l-139 -105v-747h-129v682l-137 -105v122z" />
    <glyph glyph-name="Scaron" unicode="&#x160;" horiz-adv-x="1290" 
d="M1164 1041h-134q-15 169 -111 249q-108 90 -295 90q-160 0 -254 -63q-111 -76 -111 -217q0 -124 89 -179q75 -45 305 -98q174 -40 248 -63t129 -55q181 -103 181 -307q0 -207 -166 -330q-139 -102 -385 -102q-274 0 -427 132q-75 65 -116 162t-41 208v16h134
q5 -167 81 -258q119 -143 379 -143q207 0 309 89q97 84 97 213q0 161 -171 231q-77 33 -322 90q-146 34 -213 58t-120 60q-127 89 -127 268q0 187 137 295.5t374 108.5q244 0 383 -119t147 -336zM337 1860h130l195 -199l199 199h117l-252 -276h-134z" />
    <glyph glyph-name="scaron" unicode="&#x161;" horiz-adv-x="985" 
d="M880 750h-127q-9 84 -40 130q-67 100 -244 100q-142 0 -209 -70q-40 -43 -40 -109q0 -77 58 -114.5t245 -80.5q198 -45 283 -101q52 -34 81.5 -90.5t29.5 -121.5q0 -74 -35 -139t-98 -108q-112 -77 -287 -77q-242 0 -357 141q-73 89 -77 235h125q8 -107 49 -162
q79 -107 263 -107q164 0 242 85q48 51 48 120q0 79 -61.5 122.5t-229.5 83.5q-141 34 -193 50t-93 39q-56 31 -88 87t-32 124q0 164 143 246q94 54 240 54q223 0 329 -123q65 -75 75 -214zM210 1505h128l160 -217l163 217h115l-217 -291h-129z" />
    <glyph glyph-name="Zcaron" unicode="&#x17d;" horiz-adv-x="1176" 
d="M1140 1462v-122l-890 -1131q-48 -57 -75 -92q55 0 210 3h775v-120h-1143v125l897 1138q48 56 68 82q-153 -3 -192 -3h-706v120h1056zM290 1860h130l195 -199l199 199h117l-252 -276h-134z" />
    <glyph glyph-name="zcaron" unicode="&#x17e;" horiz-adv-x="948" 
d="M892 1056v-91l-630 -775q-43 -50 -69 -84l52 1h59h618v-107h-885v105l619 761l73 84q-27 0 -85 -1h-560v107h808zM219 1505h128l160 -217l163 217h115l-217 -291h-129z" />
    <glyph glyph-name="brokenbar" unicode="&#xa6;" horiz-adv-x="455" 
d="M159 1462h138v-725h-138v725zM159 336h138v-702h-138v702z" />
    <glyph glyph-name="Eth" unicode="&#xd0;" horiz-adv-x="1403" 
d="M149 1462h509q159 0 267.5 -34.5t194.5 -112.5q113 -102 166 -266q45 -136 45 -291q0 -390 -205 -596q-89 -88 -192.5 -125t-264.5 -37h-520v709h-154v117h154v636zM288 1342v-516h438v-117h-438v-589h348q151 0 238.5 28t155.5 98q162 166 162 504q0 302 -155 459
q-69 69 -159.5 101t-220.5 32h-369z" />
    <glyph glyph-name="eth" unicode="&#xf0;" horiz-adv-x="1139" 
d="M424 1243l155 82l-97 136l78 51l117 -138l159 78l52 -77l-153 -79q182 -259 258 -434.5t76 -337.5q0 -244 -126 -393q-136 -162 -371 -162q-249 0 -386 176q-117 151 -117 384q0 265 151 419q135 139 343 139q65 0 104 -12.5t100 -52.5q-67 121 -137 222l-161 -79z
M566 980q-158 0 -260 -119q-105 -122 -105 -332q0 -213 102 -334q100 -119 270 -119q162 0 258 111q108 124 108 338q0 206 -97 329q-100 126 -276 126z" />
    <glyph glyph-name="Yacute" unicode="&#xdd;" horiz-adv-x="1251" 
d="M1277 1462l-579 -857v-605h-139v605l-581 857h167l408 -612q36 -54 79 -129q45 79 75 124l410 617h160zM925 1860l-289 -276h-107l227 276h169z" />
    <glyph glyph-name="yacute" unicode="&#xfd;" horiz-adv-x="948" 
d="M948 1056l-415 -1096q-77 -203 -117 -263q-65 -98 -194 -98q-42 0 -86 6l-28 4v114q59 -14 95 -14q57 0 97 37t71 117l56 139q0 3 -1 6l-425 1048h141l287 -727q14 -35 62 -186q42 136 66 199l259 714h132zM763 1505l-259 -291h-104l205 291h158z" />
    <glyph glyph-name="Thorn" unicode="&#xde;" horiz-adv-x="1290" 
d="M155 1462h139v-219h445q123 0 198 -16.5t135 -56.5q167 -111 167 -339q0 -232 -162 -346q-114 -81 -321 -81h-462v-404h-139v1462zM294 1123v-599h423q95 0 151.5 11.5t101.5 39.5q130 81 130 249q0 171 -126 249q-47 30 -101.5 40t-163.5 10h-415z" />
    <glyph glyph-name="thorn" unicode="&#xfe;" horiz-adv-x="1176" 
d="M260 1462v-604q33 75 91 128q112 101 286 101q215 0 346 -154q125 -147 125 -400q0 -256 -125 -406q-131 -158 -345 -158q-134 0 -232 62.5t-146 179.5v-604h-129v1855h129zM614 980q-153 0 -253 -113q-104 -119 -104 -337q0 -217 104 -339q98 -115 259 -115
q160 0 256 118q102 126 102 333q0 200 -89 321q-98 132 -275 132z" />
    <glyph glyph-name="minus" unicode="&#x2212;" horiz-adv-x="1229" 
d="M123 757h981v-95h-981v95z" />
    <glyph glyph-name="multiply" unicode="&#xd7;" horiz-adv-x="1229" 
d="M198 360l350 349l-350 350l67 67l350 -350l349 350l67 -67l-349 -350l349 -349l-67 -68l-349 350l-350 -350z" />
    <glyph glyph-name="onesuperior" unicode="&#xb9;" horiz-adv-x="682" 
d="M437 1445v-860h-98v629h-26h-89h-72h-44v74q94 2 130.5 9t61.5 25q23 17 35 41.5t25 81.5h77z" />
    <glyph glyph-name="twosuperior" unicode="&#xb2;" horiz-adv-x="682" 
d="M636 668v-83h-603q8 119 62.5 188.5t221.5 174.5q127 80 172.5 133.5t45.5 124.5q0 76 -52 122.5t-137 46.5q-192 0 -197 -236h-94v22q0 135 79.5 214t214.5 79q121 0 197 -61q85 -67 85 -187q0 -98 -59.5 -168.5t-232.5 -176.5q-105 -64 -145.5 -103.5t-52.5 -89.5h495z
" />
    <glyph glyph-name="threesuperior" unicode="&#xb3;" horiz-adv-x="682" 
d="M38 1161q3 109 49 178q76 115 248 115q122 0 199 -62q76 -62 76 -164q0 -129 -127 -183q76 -22 117.5 -76t41.5 -132q0 -121 -87 -195.5t-227 -74.5q-166 0 -251 100q-60 71 -60 176q0 9 1 28h92q-1 -10 -1 -15q0 -67 30 -116q26 -43 77.5 -68.5t112.5 -25.5
q94 0 155.5 52t61.5 131q0 84 -58.5 127.5t-171.5 43.5q-23 0 -48 -2v79q29 -1 47 -1q95 0 147 39t52 109q0 69 -49.5 110t-133.5 41q-194 0 -202 -214h-91z" />
    <glyph glyph-name="onehalf" unicode="&#xbd;" horiz-adv-x="1708" 
d="M423 1445v-860h-98v629h-26h-89h-72h-44v74q94 2 130.5 9t61.5 25q23 17 35 41.5t25 81.5h77zM1290 1436l-868 -1436h-98l870 1436h96zM1606 83v-83h-603q10 120 63.5 188.5t221.5 174.5q127 79 172.5 133t45.5 125q0 77 -51.5 123t-137.5 46q-193 0 -198 -236h-93
q-1 114 40 185q74 131 255 131q121 0 198 -61q84 -67 84 -188q0 -98 -59 -168t-234 -177q-106 -65 -146 -103.5t-53 -89.5h495z" />
    <glyph glyph-name="onequarter" unicode="&#xbc;" horiz-adv-x="1708" 
d="M429 1445v-860h-98v629h-26h-89h-72h-44v74q94 2 130.5 9t61.5 25q23 17 35 41.5t25 81.5h77zM1299 1436l-868 -1436h-98l870 1436h96zM1567 285v-77h-134v-208h-89v208h-411v80l421 572h79v-575h134zM1344 285v442l-323 -442h323z" />
    <glyph glyph-name="threequarters" unicode="&#xbe;" horiz-adv-x="1708" 
d="M49 1161q3 109 49 178q76 115 248 115q122 0 199 -62q76 -62 76 -164q0 -129 -127 -183q76 -22 117.5 -76t41.5 -132q0 -121 -87 -195.5t-227 -74.5q-166 0 -251 100q-60 71 -60 176q0 9 1 28h92q-1 -10 -1 -15q0 -67 30 -116q26 -43 77.5 -68.5t112.5 -25.5
q94 0 155.5 52t61.5 131q0 84 -58.5 127.5t-171.5 43.5q-23 0 -48 -2v79q29 -1 47 -1q95 0 147 39t52 109q0 69 -49.5 110t-133.5 41q-194 0 -202 -214h-91zM1355 1436l-867 -1436h-98l870 1436h95zM1570 285v-77h-135v-208h-89v208h-411v80l421 572h79v-575h135zM1346 285
v442l-323 -442h323z" />
    <glyph glyph-name="franc" unicode="&#x20a3;" horiz-adv-x="1301" 
d="M952 1418v-116h-646v-528h471v-116h-471v-658h-129v1418h775zM1309 789v-118h-32q-149 0 -241 -106q-49 -56 -66.5 -130t-17.5 -223v-212h-116v774h110v-228q96 248 363 243z" />
    <glyph glyph-name="Gbreve" unicode="&#x11e;" horiz-adv-x="1518" 
d="M1398 743v-743h-92l-29 273q-42 -93 -118 -164q-155 -143 -396 -143q-215 0 -377 105q-160 104 -243 297q-68 158 -68 349q0 347 198 569q187 210 497 210q289 0 463 -184q118 -124 145 -300h-135q-30 164 -159.5 264t-312.5 100q-273 0 -429 -209q-128 -171 -128 -448
q0 -264 129 -432q155 -201 428 -201q217 0 357 136q146 142 147 407h-501v114h624zM1074 1860q-14 -92 -52 -149q-80 -120 -247 -120q-127 0 -206 72.5t-87 196.5h81q12 -61 40 -98q60 -77 176 -77q175 0 215 175h80z" />
    <glyph glyph-name="gbreve" unicode="&#x11f;" horiz-adv-x="1139" 
d="M1013 1056v-955q0 -120 -14.5 -193t-49.5 -133q-112 -189 -410 -189q-195 0 -308.5 83.5t-125.5 235.5h130q31 -215 305 -215q204 0 283 114q63 90 63 266v177q-110 -233 -365 -233q-216 0 -343 154q-115 141 -115 371q0 250 128 397q131 151 341 151q241 0 360 -228v197
h121zM532 980q-167 0 -261 -138q-78 -115 -78 -291q0 -217 108 -332q93 -98 234 -98q175 0 272 140q78 112 78 296q0 218 -112 330q-94 93 -241 93zM839 1501q-12 -91 -47 -151q-71 -122 -223 -122q-113 0 -184 73.5t-79 199.5h79q32 -179 193 -179q146 0 182 179h79z" />
    <glyph glyph-name="glyph250" horiz-adv-x="569" 
 />
    <glyph glyph-name="Scedilla" unicode="&#x15e;" horiz-adv-x="1290" 
d="M632 -35l-64 -88q49 9 74 9q69 0 115 -38t46 -96q0 -77 -62.5 -126t-161.5 -49q-84 0 -193 42l28 62q80 -34 151 -34q53 0 87 26.5t34 67.5q0 35 -29 58t-73 23q-37 0 -91 -18l-32 31l99 132q-227 37 -336 132q-75 64 -116 161t-41 208v16h134q5 -166 81 -258
q119 -143 379 -143q207 0 309 89q97 84 97 213q0 161 -171 231q-77 33 -322 90q-146 34 -213 58t-120 60q-127 89 -127 268q0 187 137 295.5t374 108.5q244 0 383 -119t147 -336h-134q-15 169 -111 249q-108 90 -295 90q-160 0 -254 -63q-111 -76 -111 -217q0 -124 89 -178
q75 -46 305 -99q174 -40 248 -63t129 -55q181 -103 181 -307q0 -116 -57 -210.5t-162 -152.5q-125 -68 -351 -70z" />
    <glyph glyph-name="scedilla" unicode="&#x15f;" horiz-adv-x="985" 
d="M472 -31l-64 -84q43 8 73 8q74 0 118 -36.5t44 -98.5q0 -80 -60.5 -127.5t-162.5 -47.5q-84 0 -190 42l29 62q74 -33 146 -33q57 0 91 25t34 67q0 37 -30 60t-78 23q-37 0 -86 -18l-31 31l99 132q-24 6 -37 9q-85 20 -135 48t-92 79q-73 88 -77 235h125q8 -107 49 -162
q79 -107 263 -107q164 0 242 85q48 51 48 120q0 79 -61.5 122.5t-229.5 83.5q-141 34 -193 50t-93 39q-56 31 -88 87t-32 124q0 164 143 246q94 54 240 54q223 0 329 -123q65 -75 75 -214h-127q-9 84 -40 130q-67 100 -244 100q-142 0 -209 -70q-40 -43 -40 -109
q0 -77 58 -114.5t245 -80.5q198 -45 283 -101q52 -34 81.5 -90.5t29.5 -121.5q0 -74 -35.5 -139.5t-97.5 -106.5q-115 -78 -288 -78h-24z" />
    <glyph glyph-name="Cacute" unicode="&#x106;" horiz-adv-x="1442" 
d="M1381 560q-18 -217 -140 -372q-176 -222 -488 -222q-331 0 -516 245q-154 204 -154 518q0 337 191 556q185 211 491 211q290 0 462 -186q118 -128 136 -286h-138q-26 123 -110 211q-133 141 -355 141q-273 0 -421 -220q-117 -175 -117 -426q0 -259 115 -427
q149 -217 420 -217q205 0 333 124t154 350h137zM1087 1860l-289 -276h-107l227 276h169z" />
    <glyph glyph-name="cacute" unicode="&#x107;" horiz-adv-x="1063" 
d="M1009 377q-21 -145 -95 -242q-126 -166 -351 -166q-252 0 -384 189q-103 147 -103 360q0 275 147 428q135 141 345 141q184 0 298 -96.5t135 -268.5h-131q-20 99 -68 157q-82 101 -232 101q-189 0 -286 -150q-78 -122 -78 -302q0 -190 83 -312q96 -140 269 -140
q132 0 216.5 79t104.5 222h130zM864 1505l-259 -291h-104l205 291h158z" />
    <glyph glyph-name="Ccaron" unicode="&#x10c;" horiz-adv-x="1442" 
d="M1381 560q-18 -217 -140 -372q-176 -222 -488 -222q-331 0 -516 245q-154 204 -154 518q0 337 191 556q185 211 491 211q290 0 462 -186q118 -128 136 -286h-138q-26 123 -110 211q-133 141 -355 141q-273 0 -421 -220q-117 -175 -117 -426q0 -259 115 -427
q149 -217 420 -217q205 0 333 124t154 350h137zM455 1860h130l195 -199l199 199h117l-252 -276h-134z" />
    <glyph glyph-name="ccaron" unicode="&#x10d;" horiz-adv-x="1063" 
d="M1009 377q-21 -145 -95 -242q-126 -166 -351 -166q-252 0 -384 189q-103 147 -103 360q0 275 147 428q135 141 345 141q184 0 298 -96.5t135 -268.5h-131q-20 99 -68 157q-82 101 -232 101q-189 0 -286 -150q-78 -122 -78 -302q0 -190 83 -312q96 -140 269 -140
q132 0 216.5 79t104.5 222h130zM298 1505h128l160 -217l163 217h115l-217 -291h-129z" />
    <glyph glyph-name="glyph257" horiz-adv-x="569" 
 />
    <glyph glyph-name="nonbreakingspace" unicode="&#xa0;" horiz-adv-x="569" 
 />
    <glyph glyph-name="uni00AD" unicode="&#xad;" horiz-adv-x="758" 
d="M622 600v-117h-487v117h487z" />
    <glyph glyph-name="Amacron" unicode="&#x100;" horiz-adv-x="1290" 
d="M726 1467l584 -1467h-156l-176 460h-669l-180 -460h-149l591 1467h155zM935 573l-210 541q-47 122 -79 222q-44 -125 -80 -215l-215 -548h584zM977 1759v-92h-664v92h664z" />
    <glyph glyph-name="amacron" unicode="&#x101;" horiz-adv-x="1063" 
d="M1038 107v-99q-48 -17 -103 -17q-75 0 -106 43.5t-31 150.5q-51 -80 -105 -123q-118 -93 -294 -93q-153 0 -242 71q-103 80 -103 228q0 208 199 285q57 23 108.5 31t262.5 29q96 9 132 38t36 97q0 123 -68 176q-70 56 -208 56q-136 0 -205.5 -60t-82.5 -190h-124
q8 172 119 264.5t308 92.5q216 0 322 -108q37 -39 51 -91.5t14 -157.5l-1 -322q1 -194 2.5 -229t7.5 -51q13 -29 62 -29q22 0 49 8zM792 576q-33 -28 -77 -39.5t-214 -34.5t-241 -72q-75 -52 -75 -150q0 -94 66 -149q67 -57 180 -57q157 0 259 93t102 237v172zM819 1408v-92
h-576v92h576z" />
    <glyph glyph-name="Abreve" unicode="&#x102;" horiz-adv-x="1290" 
d="M726 1467l584 -1467h-156l-176 460h-669l-180 -460h-149l591 1467h155zM935 573l-210 541q-47 122 -79 222q-44 -125 -80 -215l-215 -548h584zM941 1860q-14 -92 -52 -149q-80 -120 -247 -120q-127 0 -206 72.5t-87 196.5h81q12 -61 40 -98q60 -77 176 -77q175 0 215 175
h80z" />
    <glyph glyph-name="abreve" unicode="&#x103;" horiz-adv-x="1063" 
d="M1038 107v-99q-48 -17 -103 -17q-75 0 -106 43.5t-31 150.5q-51 -80 -105 -123q-118 -93 -294 -93q-153 0 -242 71q-103 80 -103 228q0 208 199 285q57 23 108.5 31t262.5 29q96 9 132 38t36 97q0 123 -68 176q-70 56 -208 56q-136 0 -205.5 -60t-82.5 -190h-124
q8 172 119 264.5t308 92.5q216 0 322 -108q37 -39 51 -91.5t14 -157.5l-1 -322q1 -194 2.5 -229t7.5 -51q13 -29 62 -29q22 0 49 8zM792 576q-33 -28 -77 -39.5t-214 -34.5t-241 -72q-75 -52 -75 -150q0 -94 66 -149q67 -57 180 -57q157 0 259 93t102 237v172zM804 1501
q-12 -91 -47 -151q-71 -122 -223 -122q-113 0 -184 73.5t-79 199.5h79q32 -179 193 -179q146 0 182 179h79z" />
    <glyph glyph-name="Aogonek" unicode="&#x104;" horiz-adv-x="1290" 
d="M1310 0q-67 -35 -108.5 -91t-41.5 -112q0 -40 37.5 -66.5t95.5 -26.5q37 0 93 18v-76q-65 -23 -122 -23q-106 0 -164 54q-49 45 -49 109q0 118 167 214h-64l-176 460h-669l-180 -460h-149l591 1467h155zM935 573l-210 541q-47 122 -79 222q-44 -125 -80 -215l-215 -548
h584z" />
    <glyph glyph-name="aogonek" unicode="&#x105;" horiz-adv-x="1063" 
d="M1094 -277v-77q-65 -22 -122 -22q-105 0 -164 53q-49 46 -49 110q0 121 163 205q-64 7 -91 42q-33 41 -33 151q-51 -80 -105 -123q-118 -93 -294 -93q-153 0 -242 71q-103 80 -103 228q0 208 199 285q57 23 108.5 31t262.5 29q96 9 132 38t36 97q0 123 -68 176
q-70 56 -208 56q-136 0 -205.5 -60t-82.5 -190h-124q8 172 119 264.5t308 92.5q216 0 322 -108q37 -39 51 -91.5t14 -157.5l-1 -322q1 -194 2.5 -229t7.5 -51q13 -29 62 -29q22 0 49 8v-99q-60 -29 -91 -57q-79 -72 -79 -150q0 -53 54 -79q37 -17 80 -17q37 0 92 18z
M792 576q-33 -28 -77 -39.5t-214 -34.5t-241 -72q-75 -52 -75 -150q0 -94 66 -149q67 -57 180 -57q157 0 259 93t102 237v172z" />
    <glyph glyph-name="Ccircumflex" unicode="&#x108;" horiz-adv-x="1442" 
d="M1381 560q-18 -217 -140 -372q-176 -222 -488 -222q-331 0 -516 245q-154 204 -154 518q0 337 191 556q185 211 491 211q290 0 462 -186q118 -128 136 -286h-138q-26 123 -110 211q-133 141 -355 141q-273 0 -421 -220q-117 -175 -117 -426q0 -259 115 -427
q149 -217 420 -217q205 0 333 124t154 350h137zM1096 1584h-130l-195 199l-199 -199h-117l252 276h134z" />
    <glyph glyph-name="ccircumflex" unicode="&#x109;" horiz-adv-x="1063" 
d="M1009 377q-21 -145 -95 -242q-126 -166 -351 -166q-252 0 -384 189q-103 147 -103 360q0 275 147 428q135 141 345 141q184 0 298 -96.5t135 -268.5h-131q-20 99 -68 157q-82 101 -232 101q-189 0 -286 -150q-78 -122 -78 -302q0 -190 83 -312q96 -140 269 -140
q132 0 216.5 79t104.5 222h130zM855 1214h-128l-160 216l-163 -216h-115l217 291h130z" />
    <glyph glyph-name="Cdotaccent" unicode="&#x10a;" horiz-adv-x="1442" 
d="M1381 560q-18 -217 -140 -372q-176 -222 -488 -222q-331 0 -516 245q-154 204 -154 518q0 337 191 556q185 211 491 211q290 0 462 -186q118 -128 136 -286h-138q-26 123 -110 211q-133 141 -355 141q-273 0 -421 -220q-117 -175 -117 -426q0 -259 115 -427
q149 -217 420 -217q205 0 333 124t154 350h137zM840 1821v-205h-139v205h139z" />
    <glyph glyph-name="cdotaccent" unicode="&#x10b;" horiz-adv-x="1063" 
d="M1009 377q-21 -145 -95 -242q-126 -166 -351 -166q-252 0 -384 189q-103 147 -103 360q0 275 147 428q135 141 345 141q184 0 298 -96.5t135 -268.5h-131q-20 99 -68 157q-82 101 -232 101q-189 0 -286 -150q-78 -122 -78 -302q0 -190 83 -312q96 -140 269 -140
q132 0 216.5 79t104.5 222h130zM641 1465v-209h-132v209h132z" />
    <glyph glyph-name="Dcaron" unicode="&#x10e;" horiz-adv-x="1403" 
d="M149 1462h509q159 0 268 -34.5t195 -112.5q113 -103 166 -266q45 -136 45 -291q0 -389 -205 -596q-89 -88 -192.5 -125t-265.5 -37h-520v1462zM288 1342v-1222h348q152 0 239 28t155 98q163 166 163 505q0 301 -155 458q-70 69 -160.5 101t-219.5 32h-370zM323 1860h130
l195 -199l199 199h117l-252 -276h-134z" />
    <glyph glyph-name="dcaron" unicode="&#x10f;" horiz-adv-x="1321" 
d="M1059 1462v-1462h-121v210q-35 -80 -85 -129q-117 -112 -294 -112q-227 0 -357 161q-122 152 -122 398q0 262 132 411q132 148 342 148q268 0 376 -226v601h129zM563 980q-154 0 -251 -115q-102 -122 -102 -334q0 -194 88 -319q95 -136 272 -136q172 0 268 127
q95 125 95 325q0 210 -101 331t-269 121zM1346 1462v-134q4 -199 -155 -238v66q42 21 60 51.5t23 90.5h-68v164h140z" />
    <glyph glyph-name="Dcroat" unicode="&#x110;" horiz-adv-x="1403" 
d="M149 1462h509q159 0 267.5 -34.5t194.5 -112.5q113 -102 166 -266q45 -136 45 -291q0 -390 -205 -596q-89 -88 -192.5 -125t-264.5 -37h-520v709h-154v117h154v636zM288 1342v-516h438v-117h-438v-589h348q151 0 238.5 28t155.5 98q162 166 162 504q0 302 -155 459
q-69 69 -159.5 101t-220.5 32h-369z" />
    <glyph glyph-name="dcroat" unicode="&#x111;" horiz-adv-x="1225" 
d="M934 1317v145h129v-145h146v-102h-146v-1215h-121v210q-35 -80 -85 -129q-117 -112 -294 -112q-227 0 -357 161q-122 152 -122 398q0 261 132 411q131 148 339 148q271 0 379 -226v354h-351v102h351zM567 980q-154 0 -251 -115q-102 -122 -102 -334q0 -194 88 -319
q95 -136 272 -136q171 0 268 127q95 123 95 325q0 210 -101 331t-269 121z" />
    <glyph glyph-name="Emacron" unicode="&#x112;" horiz-adv-x="1214" 
d="M1158 1462v-120h-876v-525h820v-120h-820v-577h885v-120h-1024v1462h1015zM983 1759v-92h-664v92h664z" />
    <glyph glyph-name="emacron" unicode="&#x113;" horiz-adv-x="1063" 
d="M997 348q-20 -101 -63 -172q-125 -207 -386 -207q-238 0 -370 169q-116 150 -116 379q0 254 138 414q136 156 344 156q168 0 288 -103q93 -82 135.5 -198t41.5 -289h-817q3 -108 26 -177q80 -244 332 -244q127 0 209 69t114 203h124zM878 604q-7 134 -62 222
q-95 154 -275 154q-121 0 -210 -73q-113 -93 -138 -303h685zM834 1408v-92h-576v92h576z" />
    <glyph glyph-name="Ebreve" unicode="&#x114;" horiz-adv-x="1214" 
d="M1158 1462v-120h-876v-525h820v-120h-820v-577h885v-120h-1024v1462h1015zM947 1860q-14 -92 -52 -149q-80 -120 -247 -120q-127 0 -206 72.5t-87 196.5h81q12 -61 40 -98q60 -77 176 -77q175 0 215 175h80z" />
    <glyph glyph-name="ebreve" unicode="&#x115;" horiz-adv-x="1063" 
d="M997 348q-20 -101 -63 -172q-125 -207 -386 -207q-238 0 -370 169q-116 150 -116 379q0 254 138 414q136 156 344 156q168 0 288 -103q93 -82 135.5 -198t41.5 -289h-817q3 -108 26 -177q80 -244 332 -244q127 0 209 69t114 203h124zM878 604q-7 134 -62 222
q-95 154 -275 154q-121 0 -210 -73q-113 -93 -138 -303h685zM812 1501q-12 -91 -47 -151q-71 -122 -223 -122q-113 0 -184 73.5t-79 199.5h79q32 -179 193 -179q146 0 182 179h79z" />
    <glyph glyph-name="Edotaccent" unicode="&#x116;" horiz-adv-x="1214" 
d="M1158 1462v-120h-876v-525h820v-120h-820v-577h885v-120h-1024v1462h1015zM730 1821v-205h-139v205h139z" />
    <glyph glyph-name="edotaccent" unicode="&#x117;" horiz-adv-x="1063" 
d="M997 348q-20 -101 -63 -172q-125 -207 -386 -207q-238 0 -370 169q-116 150 -116 379q0 254 138 414q136 156 344 156q168 0 288 -103q93 -82 135.5 -198t41.5 -289h-817q3 -108 26 -177q80 -244 332 -244q127 0 209 69t114 203h124zM878 604q-7 134 -62 222
q-95 154 -275 154q-121 0 -210 -73q-113 -93 -138 -303h685zM622 1465v-209h-132v209h132z" />
    <glyph glyph-name="Eogonek" unicode="&#x118;" horiz-adv-x="1214" 
d="M1167 0q-66 -33 -108 -89.5t-42 -113.5q0 -40 38 -66t96 -26q36 0 92 18v-77q-66 -22 -122 -22q-106 0 -164 53q-49 46 -49 111q0 116 167 212h-932v1462h1015v-120h-876v-525h820v-120h-820v-577h885v-120z" />
    <glyph glyph-name="eogonek" unicode="&#x119;" horiz-adv-x="1063" 
d="M893 -277v-77q-65 -22 -122 -22q-105 0 -164 53q-49 46 -49 110q0 59 34 103.5t127 105.5q-88 -27 -164 -27q-246 0 -377 169q-116 150 -116 379q0 254 138 414q136 156 344 156q168 0 288 -103q93 -82 135.5 -198t41.5 -289h-817q3 -108 26 -177q80 -244 332 -244
q127 0 209 69t114 203h124q-20 -105 -56.5 -163t-165.5 -193q-108 -111 -108 -195q0 -40 38 -66t96 -26q36 0 92 18zM878 604q-7 134 -61 222q-96 154 -276 154q-121 0 -210 -73q-113 -93 -138 -303h685z" />
    <glyph glyph-name="Ecaron" unicode="&#x11a;" horiz-adv-x="1214" 
d="M1158 1462v-120h-876v-525h820v-120h-820v-577h885v-120h-1024v1462h1015zM344 1860h130l195 -199l199 199h117l-252 -276h-134z" />
    <glyph glyph-name="ecaron" unicode="&#x11b;" horiz-adv-x="1063" 
d="M997 348q-20 -101 -63 -172q-125 -207 -386 -207q-238 0 -370 169q-116 150 -116 379q0 254 138 414q136 156 344 156q168 0 288 -103q93 -82 135.5 -198t41.5 -289h-817q3 -108 26 -177q80 -244 332 -244q127 0 209 69t114 203h124zM878 604q-7 134 -62 222
q-95 154 -275 154q-121 0 -210 -73q-113 -93 -138 -303h685zM276 1505h128l160 -217l163 217h115l-217 -291h-129z" />
    <glyph glyph-name="Gcircumflex" unicode="&#x11c;" horiz-adv-x="1518" 
d="M1398 743v-743h-92l-29 273q-42 -93 -118 -164q-155 -143 -396 -143q-215 0 -377 105q-160 104 -243 297q-68 158 -68 349q0 347 198 569q187 210 497 210q289 0 463 -184q118 -124 145 -300h-135q-30 164 -159.5 264t-312.5 100q-273 0 -429 -209q-128 -171 -128 -448
q0 -264 129 -432q155 -201 428 -201q217 0 357 136q146 142 147 407h-501v114h624zM1112 1584h-130l-195 199l-199 -199h-117l252 276h134z" />
    <glyph glyph-name="gcircumflex" unicode="&#x11d;" horiz-adv-x="1139" 
d="M1016 1056v-955q0 -120 -14.5 -193t-49.5 -133q-112 -189 -410 -189q-195 0 -308.5 83.5t-125.5 235.5h130q31 -215 305 -215q204 0 283 114q63 90 63 266v177q-110 -233 -365 -233q-216 0 -343 154q-115 141 -115 371q0 250 128 397q131 151 341 151q241 0 360 -228v197
h121zM535 980q-167 0 -261 -138q-78 -115 -78 -291q0 -217 108 -332q93 -98 234 -98q175 0 272 140q78 112 78 296q0 218 -112 330q-94 93 -241 93zM859 1214h-128l-160 216l-163 -216h-115l217 291h130z" />
    <glyph glyph-name="Gdotaccent" unicode="&#x120;" horiz-adv-x="1518" 
d="M1398 743v-743h-92l-29 273q-42 -93 -118 -164q-155 -143 -396 -143q-215 0 -377 105q-160 104 -243 297q-68 158 -68 349q0 347 198 569q187 210 497 210q289 0 463 -184q118 -124 145 -300h-135q-30 164 -159.5 264t-312.5 100q-273 0 -429 -209q-128 -171 -128 -448
q0 -264 129 -432q155 -201 428 -201q217 0 357 136q146 142 147 407h-501v114h624zM843 1821v-205h-139v205h139z" />
    <glyph glyph-name="gdotaccent" unicode="&#x121;" horiz-adv-x="1139" 
d="M1016 1056v-955q0 -120 -14.5 -193t-49.5 -133q-112 -189 -410 -189q-195 0 -308.5 83.5t-125.5 235.5h130q31 -215 305 -215q204 0 283 114q63 90 63 266v177q-110 -233 -365 -233q-216 0 -343 154q-115 141 -115 371q0 250 128 397q131 151 341 151q241 0 360 -228v197
h121zM535 980q-167 0 -261 -138q-78 -115 -78 -291q0 -217 108 -332q93 -98 234 -98q175 0 272 140q78 112 78 296q0 218 -112 330q-94 93 -241 93zM642 1465v-209h-132v209h132z" />
    <glyph glyph-name="Gcommaaccent" unicode="&#x122;" horiz-adv-x="1518" 
d="M1398 743v-743h-92l-29 273q-42 -93 -118 -164q-155 -143 -396 -143q-215 0 -377 105q-160 104 -243 297q-68 158 -68 349q0 347 198 569q187 210 497 210q289 0 463 -184q118 -124 145 -300h-135q-30 164 -159.5 264t-312.5 100q-273 0 -429 -209q-128 -171 -128 -448
q0 -264 129 -432q155 -201 428 -201q217 0 357 136q146 142 147 407h-501v114h624zM844 -124v-134q4 -198 -155 -238v66q76 36 83 142h-68v164h140z" />
    <glyph glyph-name="gcommaaccent" unicode="&#x123;" horiz-adv-x="1139" 
d="M1013 1056v-955q0 -120 -14.5 -193t-49.5 -133q-112 -189 -410 -189q-195 0 -308.5 83.5t-125.5 235.5h130q31 -215 305 -215q204 0 283 114q63 90 63 266v177q-110 -233 -365 -233q-216 0 -343 154q-115 141 -115 371q0 250 128 397q131 151 341 151q241 0 360 -228v197
h121zM532 980q-167 0 -261 -138q-78 -115 -78 -291q0 -217 108 -332q93 -98 234 -98q175 0 272 140q78 112 78 296q0 218 -112 330q-94 93 -241 93zM498 1213v134q-3 198 155 238v-66q-76 -36 -83 -142h68v-164h-140z" />
    <glyph glyph-name="Hcircumflex" unicode="&#x124;" horiz-adv-x="1442" 
d="M1298 1462v-1462h-139v706h-876v-706h-139v1462h139v-636h876v636h139zM1042 1584h-130l-195 199l-199 -199h-117l252 276h134z" />
    <glyph glyph-name="hcircumflex" unicode="&#x125;" horiz-adv-x="1100" 
d="M251 1462v-479q0 -22 -3 -125q108 229 368 229q220 0 317 -156q52 -85 52 -251v-680h-130v664q0 147 -47 210q-73 100 -225 100q-94 0 -167.5 -43t-114.5 -122q-29 -54 -39.5 -116t-10.5 -176v-517h-129v1462h129zM607 1584h-130l-195 199l-199 -199h-117l252 276h134z
" />
    <glyph glyph-name="Hbar" unicode="&#x126;" horiz-adv-x="1442" 
d="M1297 1224h153v-117h-153v-1107h-139v706h-875v-706h-139v1107h-154v117h154v238h139v-238h875v238h139v-238zM283 1107v-281h875v281h-875z" />
    <glyph glyph-name="hbar" unicode="&#x127;" horiz-adv-x="1147" 
d="M286 0h-129v1215h-146v102h146v145h129v-145h351v-102h-351v-232q0 -22 -3 -125q53 113 146 171t221 58q221 0 318 -156q52 -85 52 -251v-680h-130v664q0 147 -47 210q-73 100 -225 100q-94 0 -167.5 -43t-114.5 -122q-29 -54 -39.5 -116t-10.5 -176v-517z" />
    <glyph glyph-name="Itilde" unicode="&#x128;" horiz-adv-x="455" 
d="M297 1462v-1462h-139v1462h139zM551 1823q-18 -97 -63.5 -148t-112.5 -51q-41 0 -77 12.5t-141 63.5q-38 19 -78 19q-70 0 -98 -103h-77q16 96 64.5 148t122.5 52q58 0 137 -40q74 -37 96.5 -45.5t49.5 -8.5q72 0 97 101h80z" />
    <glyph glyph-name="itilde" unicode="&#x129;" horiz-adv-x="379" 
d="M254 1056v-1056h-129v1056h129zM480 1465q-16 -97 -56.5 -148t-102.5 -51q-36 0 -68.5 12.5t-126.5 63.5q-34 18 -70 18q-61 0 -83 -102h-75q15 96 58.5 147.5t109.5 51.5q52 0 123 -40q68 -37 88 -45t44 -8q60 0 82 101h77z" />
    <glyph glyph-name="Imacron" unicode="&#x12a;" horiz-adv-x="455" 
d="M297 1462v-1462h-139v1462h139zM450 1759v-92h-445v92h445z" />
    <glyph glyph-name="imacron" unicode="&#x12b;" horiz-adv-x="379" 
d="M255 1056v-1056h-129v1056h129zM404 1408v-92h-430v92h430z" />
    <glyph glyph-name="Ibreve" unicode="&#x12c;" horiz-adv-x="490" 
d="M314 1462v-1462h-139v1462h139zM512 1860q-10 -93 -47 -152q-74 -117 -223 -117q-117 0 -188 72.5t-76 196.5h81q8 -64 34 -100q53 -75 153 -75q161 0 185 175h81z" />
    <glyph glyph-name="ibreve" unicode="&#x12d;" horiz-adv-x="450" 
d="M291 1056v-1056h-129v1056h129zM462 1494q-11 -88 -46 -147q-66 -111 -194 -111q-125 0 -191 111q-37 62 -43 147h79q32 -165 165 -165q116 0 152 165h78z" />
    <glyph glyph-name="Iogonek" unicode="&#x12e;" horiz-adv-x="455" 
d="M297 0q-57 -79 -73.5 -115t-16.5 -80q0 -99 88 -99q28 0 71 15v-75q-53 -22 -96 -22q-87 0 -134 55q-39 45 -39 101q0 54 37 113.5t101 106.5h-77v1462h139v-1462z" />
    <glyph glyph-name="iogonek" unicode="&#x12f;" horiz-adv-x="379" 
d="M256 -2q-84 -110 -84 -200q0 -38 23 -65.5t56 -27.5q21 0 66 15v-75q-53 -22 -90 -22q-76 0 -125 55q-39 44 -39 99q0 97 131 221h-67v1056h129v-1056zM255 1462v-206h-129v206h129z" />
    <glyph glyph-name="Idotaccent" unicode="&#x130;" horiz-adv-x="455" 
d="M297 1462v-1462h-139v1462h139zM295 1821v-205h-139v205h139z" />
    <glyph glyph-name="IJ" unicode="&#x132;" horiz-adv-x="1489" 
d="M313 1462v-1462h-139v1462h139zM1337 1462v-1030q0 -118 -14 -185.5t-51 -125.5q-34 -53 -68.5 -78.5t-94.5 -41.5q-100 -27 -200 -27q-128 0 -223 52t-139 145t-44 262q0 21 1 54h134v-15v-33q0 -145 33 -213q64 -132 253 -132q158 0 226 100q48 71 48 255v1013h139z
" />
    <glyph glyph-name="ij" unicode="&#x133;" horiz-adv-x="764" 
d="M228 1462v-206h-129v206h129zM228 1056v-1056h-129v1056h129zM665 1056v-1126q0 -113 -10 -166t-38 -91q-58 -78 -209 -78q-28 0 -62 6v107q30 -3 52 -3q88 0 113 40t25 181v1130h129zM665 1462v-206h-129v206h129z" />
    <glyph glyph-name="Jcircumflex" unicode="&#x134;" horiz-adv-x="1024" 
d="M867 1462v-1030q0 -118 -14 -185.5t-51 -125.5q-34 -53 -68.5 -78.5t-94.5 -41.5q-100 -27 -200 -27q-128 0 -223 52t-139 145t-44 262q0 21 1 54h134v-15v-33q0 -145 33 -213q64 -132 253 -132q158 0 226 100q48 71 48 255v1013h139zM1116 1584h-130l-195 199l-199 -199
h-117l252 276h134z" />
    <glyph glyph-name="jcircumflex" unicode="&#x135;" horiz-adv-x="379" 
d="M254 1056v-1126q0 -113 -10 -166t-38 -91q-58 -78 -209 -78q-28 0 -62 6v107q30 -3 52 -3q88 0 113 40t25 181v1130h129zM471 1214h-128l-160 216l-163 -216h-115l217 291h130z" />
    <glyph glyph-name="Kcommaaccent" unicode="&#x136;" horiz-adv-x="1327" 
d="M1330 1462l-659 -597l692 -865h-179l-612 770l-280 -254v-516h-139v1462h139v-786q69 67 96 92l756 694h186zM755 -124v-134q4 -198 -155 -238v66q76 36 83 142h-68v164h140z" />
    <glyph glyph-name="kcommaaccent" unicode="&#x137;" horiz-adv-x="1024" 
d="M1014 1056l-452 -388l483 -668h-161l-421 579l-210 -178v-401h-129v1462h129v-921q75 70 80 74l509 441h172zM604 -124v-134q3 -197 -154 -238v66q42 22 59.5 52.5t22.5 89.5h-68v164h140z" />
    <glyph glyph-name="kgreenlandic" unicode="&#x138;" horiz-adv-x="1103" 
d="M1053 1056l-452 -388l483 -668h-161l-421 579l-210 -178v-401h-129v1056h129v-515q75 70 80 74l509 441h172z" />
    <glyph glyph-name="Lacute" unicode="&#x139;" horiz-adv-x="1100" 
d="M1100 120v-120h-962v1462h139v-1342h823zM573 1860l-289 -276h-107l227 276h169z" />
    <glyph glyph-name="lacute" unicode="&#x13a;" horiz-adv-x="379" 
d="M254 1462v-1462h-129v1462h129zM477 1860l-245 -276h-100l191 276h154z" />
    <glyph glyph-name="Lcommaaccent" unicode="&#x13b;" horiz-adv-x="1100" 
d="M1100 120v-120h-962v1462h139v-1342h823zM679 -124v-134q4 -198 -155 -238v66q76 36 83 142h-68v164h140z" />
    <glyph glyph-name="lcommaaccent" unicode="&#x13c;" horiz-adv-x="379" 
d="M254 1462v-1462h-129v1462h129zM262 -124v-134q3 -197 -154 -238v66q42 22 59.5 52.5t22.5 89.5h-68v164h140z" />
    <glyph glyph-name="Lcaron" unicode="&#x13d;" horiz-adv-x="1100" 
d="M1100 120v-120h-962v1462h139v-1342h823zM679 1462v-134q3 -195 -154 -238v66q42 23 59.5 53t22.5 89h-68v164h140z" />
    <glyph glyph-name="lcaron" unicode="&#x13e;" horiz-adv-x="522" 
d="M259 1462v-1462h-129v1462h129zM540 1462v-134q4 -199 -155 -238v66q42 21 60 51.5t23 90.5h-68v164h140z" />
    <glyph glyph-name="Ldot" unicode="&#x13f;" horiz-adv-x="1100" 
d="M1100 120v-120h-962v1462h139v-1342h823zM728 858v-209h-132v209h132z" />
    <glyph glyph-name="ldot" unicode="&#x140;" horiz-adv-x="606" 
d="M270 1462v-1462h-129v1462h129zM515 842v-209h-131v209h131z" />
    <glyph glyph-name="Nacute" unicode="&#x143;" horiz-adv-x="1442" 
d="M1298 1462v-1462h-155l-680 981q-126 181 -193 314q6 -73 8 -248l1 -102v-945h-133v1462h154l683 -991q101 -147 191 -306q-9 196 -9 386v911h133zM1034 1860l-289 -276h-107l227 276h169z" />
    <glyph glyph-name="nacute" unicode="&#x144;" horiz-adv-x="1100" 
d="M245 1056v-198q46 80 87 120q110 109 287 109q142 0 238 -69q72 -51 100 -125t28 -214v-679h-129v638q0 176 -46 240q-68 96 -220 96q-144 0 -235 -89q-56 -56 -79 -135t-23 -219v-531h-129v1056h121zM845 1505l-259 -291h-104l205 291h158z" />
    <glyph glyph-name="Ncommaaccent" unicode="&#x145;" horiz-adv-x="1442" 
d="M1298 1462v-1462h-155l-680 981q-126 181 -193 314q6 -73 8 -248l1 -102v-945h-133v1462h154l683 -991q101 -147 191 -306q-9 196 -9 386v911h133zM758 -124v-134q4 -198 -155 -238v66q76 36 83 142h-68v164h140z" />
    <glyph glyph-name="ncommaaccent" unicode="&#x146;" horiz-adv-x="1100" 
d="M245 1056v-198q46 80 87 120q110 109 287 109q142 0 238 -69q72 -51 100 -125t28 -214v-679h-129v638q0 176 -46 240q-68 96 -220 96q-144 0 -235 -89q-56 -56 -79 -135t-23 -219v-531h-129v1056h121zM626 -124v-134q3 -197 -154 -238v66q42 22 59.5 52.5t22.5 89.5h-68
v164h140z" />
    <glyph glyph-name="Ncaron" unicode="&#x147;" horiz-adv-x="1442" 
d="M1298 1462v-1462h-155l-680 981q-126 181 -193 314q6 -73 8 -248l1 -102v-945h-133v1462h154l683 -991q101 -147 191 -306q-9 196 -9 386v911h133zM408 1860h130l195 -199l199 199h117l-252 -276h-134z" />
    <glyph glyph-name="ncaron" unicode="&#x148;" horiz-adv-x="1100" 
d="M245 1056v-198q46 80 87 120q110 109 287 109q142 0 238 -69q72 -51 100 -125t28 -214v-679h-129v638q0 176 -46 240q-68 96 -220 96q-144 0 -235 -89q-56 -56 -79 -135t-23 -219v-531h-129v1056h121zM297 1505h128l160 -217l163 217h115l-217 -291h-129z" />
    <glyph glyph-name="napostrophe" unicode="&#x149;" horiz-adv-x="1137" 
d="M213 1646v-150q0 -83 -12.5 -128.5t-46.5 -90.5q-42 -56 -122 -80v79q50 26 70.5 66t21.5 111h-79v193h168zM276 1056v-198q46 80 86 120q111 109 288 109q142 0 238 -69q72 -51 100 -125.5t28 -213.5v-679h-129v638q0 176 -46 240q-68 96 -220 96q-144 0 -235 -89
q-56 -56 -79 -135t-23 -219v-531h-129v1056h121z" />
    <glyph glyph-name="Eng" unicode="&#x14a;" horiz-adv-x="1505" 
d="M315 1462v-266q61 104 121 157q156 143 401 143q193 0 322 -90q126 -89 158 -249q13 -67 13 -200v-1027q0 -113 -10.5 -166t-39.5 -91q-60 -78 -217 -78q-28 0 -62 6v107q30 -3 52 -3q88 0 113 40.5t25 180.5v977q0 139 -15 214.5t-52 125.5t-92 81q-98 55 -230 55
q-208 0 -339 -124q-82 -79 -115 -189t-33 -307v-759h-139v1462h139z" />
    <glyph glyph-name="eng" unicode="&#x14b;" horiz-adv-x="1176" 
d="M283 1056v-198q46 80 87 120q110 109 287 109q142 0 238 -69q72 -51 100 -125t28 -214v-749q0 -113 -10 -166t-38 -91q-58 -78 -209 -78q-28 0 -62 6v107q30 -3 52 -3q88 0 113 40t25 181v712q0 177 -46 240q-68 96 -220 96q-144 0 -235 -89q-56 -56 -79 -135t-23 -219
v-531h-129v1056h121z" />
    <glyph glyph-name="Omacron" unicode="&#x14c;" horiz-adv-x="1518" 
d="M769 1496q294 0 488 -215q191 -211 191 -554q0 -303 -154 -505q-194 -256 -537 -256q-339 0 -533 256q-154 203 -154 507q0 347 189 552q197 215 510 215zM751 1376q-232 0 -388 -176q-154 -173 -154 -464q0 -275 131 -448q80 -105 204 -159q100 -43 215 -43
q240 0 393 171q157 175 157 469q0 292 -151 469q-154 181 -407 181zM1091 1759v-92h-664v92h664z" />
    <glyph glyph-name="omacron" unicode="&#x14d;" horiz-adv-x="1139" 
d="M578 1087q229 0 367 -166q124 -147 124 -397q0 -263 -143 -413q-135 -142 -355 -142q-240 0 -377 165q-125 150 -125 393q0 236 118 385q138 175 391 175zM566 980q-158 0 -260 -119q-105 -122 -105 -332q0 -213 102 -334q100 -119 270 -119q162 0 258 111
q108 124 108 338q0 206 -97 329q-100 126 -276 126zM857 1408v-92h-576v92h576z" />
    <glyph glyph-name="Obreve" unicode="&#x14e;" horiz-adv-x="1518" 
d="M769 1496q294 0 488 -215q191 -211 191 -554q0 -303 -154 -505q-194 -256 -537 -256q-339 0 -533 256q-154 203 -154 507q0 347 189 552q197 215 510 215zM751 1376q-232 0 -388 -176q-154 -173 -154 -464q0 -275 131 -448q80 -105 204 -159q100 -43 215 -43
q240 0 393 171q157 175 157 469q0 292 -151 469q-154 181 -407 181zM1055 1860q-14 -92 -52 -149q-80 -120 -247 -120q-127 0 -206 72.5t-87 196.5h81q12 -61 40 -98q60 -77 176 -77q175 0 215 175h80z" />
    <glyph glyph-name="obreve" unicode="&#x14f;" horiz-adv-x="1139" 
d="M578 1087q229 0 367 -166q124 -147 124 -397q0 -263 -143 -413q-135 -142 -355 -142q-240 0 -377 165q-125 150 -125 393q0 236 118 385q138 175 391 175zM566 980q-158 0 -260 -119q-105 -122 -105 -332q0 -213 102 -334q100 -119 270 -119q162 0 258 111
q108 124 108 338q0 206 -97 329q-100 126 -276 126zM836 1501q-12 -91 -47 -151q-71 -122 -223 -122q-113 0 -184 73.5t-79 199.5h79q32 -179 193 -179q146 0 182 179h79z" />
    <glyph glyph-name="Ohungarumlaut" unicode="&#x150;" horiz-adv-x="1518" 
d="M769 1496q294 0 488 -215q191 -211 191 -554q0 -303 -154 -505q-194 -256 -537 -256q-339 0 -533 256q-154 203 -154 507q0 347 189 552q197 215 510 215zM751 1376q-232 0 -388 -176q-154 -173 -154 -464q0 -275 131 -448q80 -105 204 -159q100 -43 215 -43
q240 0 393 171q157 175 157 469q0 292 -151 469q-154 181 -407 181zM1207 1860l-237 -276h-98l176 276h159zM871 1860l-237 -276h-98l176 276h159z" />
    <glyph glyph-name="ohungarumlaut" unicode="&#x151;" horiz-adv-x="1139" 
d="M578 1087q229 0 367 -166q124 -147 124 -397q0 -263 -143 -413q-135 -142 -355 -142q-240 0 -377 165q-125 150 -125 393q0 236 118 385q138 175 391 175zM566 980q-158 0 -260 -119q-105 -122 -105 -332q0 -213 102 -334q100 -119 270 -119q162 0 258 111
q108 124 108 338q0 206 -97 329q-100 126 -276 126zM962 1505l-211 -291h-96l157 291h150zM685 1505l-212 -291h-96l157 291h151z" />
    <glyph glyph-name="Racute" unicode="&#x154;" horiz-adv-x="1366" 
d="M143 1462h644q194 0 302 -66q171 -105 171 -326q0 -141 -74.5 -236t-211.5 -128q125 -21 187 -97q41 -51 53 -104.5t26 -256.5q9 -115 21 -164.5t40 -83.5h-158q-29 44 -36 202q-8 178 -25.5 250.5t-64.5 121.5q-41 42 -111.5 60.5t-194.5 18.5h-429v-653h-139v1462z
M282 1342v-576h412q208 0 299 53q128 73 128 240q0 170 -139 242q-80 41 -240 41h-460zM948 1860l-289 -276h-107l227 276h169z" />
    <glyph glyph-name="racute" unicode="&#x155;" horiz-adv-x="645" 
d="M653 1072v-131q-21 1 -37 1q-164 0 -266 -118q-54 -62 -73.5 -144t-19.5 -248v-432h-129v1056h121v-253q113 273 404 269zM650 1505l-259 -291h-104l205 291h158z" />
    <glyph glyph-name="Rcommaaccent" unicode="&#x156;" horiz-adv-x="1366" 
d="M153 1462h644q194 0 302 -66q171 -105 171 -326q0 -141 -74.5 -236t-211.5 -128q125 -21 187 -97q41 -51 53 -104.5t26 -256.5q9 -115 21 -164.5t40 -83.5h-158q-29 44 -36 202q-8 178 -25.5 250.5t-64.5 121.5q-41 42 -111.5 60.5t-194.5 18.5h-429v-653h-139v1462z
M292 1342v-576h412q208 0 299 53q128 73 128 240q0 170 -139 242q-80 41 -240 41h-460zM756 -124v-134q4 -198 -155 -238v66q76 36 83 142h-68v164h140z" />
    <glyph glyph-name="rcommaaccent" unicode="&#x157;" horiz-adv-x="645" 
d="M656 1072v-131q-21 1 -37 1q-164 0 -266 -118q-54 -62 -73.5 -144t-19.5 -248v-432h-129v1056h121v-253q113 273 404 269zM267 -124v-134q3 -197 -154 -238v66q42 22 59.5 52.5t22.5 89.5h-68v164h140z" />
    <glyph glyph-name="Rcaron" unicode="&#x158;" horiz-adv-x="1366" 
d="M140 1462h644q194 0 302 -66q171 -105 171 -326q0 -141 -74.5 -236t-211.5 -128q125 -21 187 -97q41 -51 53 -104.5t26 -256.5q9 -115 21 -164.5t40 -83.5h-158q-29 44 -36 202q-8 178 -25.5 250.5t-64.5 121.5q-41 42 -111.5 60.5t-194.5 18.5h-429v-653h-139v1462z
M279 1342v-576h412q208 0 299 53q128 73 128 240q0 170 -139 242q-80 41 -240 41h-460zM330 1860h130l195 -199l199 199h117l-252 -276h-134z" />
    <glyph glyph-name="rcaron" unicode="&#x159;" horiz-adv-x="645" 
d="M653 1072v-131q-21 1 -37 1q-164 0 -266 -118q-54 -62 -73.5 -144t-19.5 -248v-432h-129v1056h121v-253q113 273 404 269zM80 1505h128l160 -217l163 217h115l-217 -291h-129z" />
    <glyph glyph-name="Sacute" unicode="&#x15a;" horiz-adv-x="1290" 
d="M1158 1041h-134q-15 169 -111 249q-108 90 -295 90q-160 0 -254 -63q-111 -76 -111 -217q0 -124 89 -179q75 -45 305 -98q174 -40 248 -63t129 -55q181 -103 181 -307q0 -207 -166 -330q-139 -102 -385 -102q-274 0 -427 132q-75 65 -116 162t-41 208v16h134
q5 -167 81 -258q119 -143 379 -143q207 0 309 89q97 84 97 213q0 161 -171 231q-77 33 -322 90q-146 34 -213 58t-120 60q-127 89 -127 268q0 187 137 295.5t374 108.5q244 0 383 -119t147 -336zM926 1860l-289 -276h-107l227 276h169z" />
    <glyph glyph-name="sacute" unicode="&#x15b;" horiz-adv-x="985" 
d="M877 750h-127q-9 84 -40 130q-67 100 -244 100q-142 0 -209 -70q-40 -43 -40 -109q0 -77 58 -114.5t245 -80.5q198 -45 283 -101q52 -34 81.5 -90.5t29.5 -121.5q0 -74 -35 -139t-98 -108q-112 -77 -287 -77q-242 0 -357 141q-73 89 -77 235h125q8 -107 49 -162
q79 -107 263 -107q164 0 242 85q48 51 48 120q0 79 -61.5 122.5t-229.5 83.5q-141 34 -193 50t-93 39q-56 31 -88 87t-32 124q0 164 143 246q94 54 240 54q223 0 329 -123q65 -75 75 -214zM785 1505l-259 -291h-104l205 291h158z" />
    <glyph glyph-name="Scircumflex" unicode="&#x15c;" horiz-adv-x="1290" 
d="M1158 1041h-134q-15 169 -111 249q-108 90 -295 90q-160 0 -254 -63q-111 -76 -111 -217q0 -124 89 -179q75 -45 305 -98q174 -40 248 -63t129 -55q181 -103 181 -307q0 -207 -166 -330q-139 -102 -385 -102q-274 0 -427 132q-75 65 -116 162t-41 208v16h134
q5 -167 81 -258q119 -143 379 -143q207 0 309 89q97 84 97 213q0 161 -171 231q-77 33 -322 90q-146 34 -213 58t-120 60q-127 89 -127 268q0 187 137 295.5t374 108.5q244 0 383 -119t147 -336zM983 1584h-130l-195 199l-199 -199h-117l252 276h134z" />
    <glyph glyph-name="scircumflex" unicode="&#x15d;" horiz-adv-x="985" 
d="M877 750h-127q-9 84 -40 130q-67 100 -244 100q-142 0 -209 -70q-40 -43 -40 -109q0 -77 58 -114.5t245 -80.5q198 -45 283 -101q52 -34 81.5 -90.5t29.5 -121.5q0 -74 -35 -139t-98 -108q-112 -77 -287 -77q-242 0 -357 141q-73 89 -77 235h125q8 -107 49 -162
q79 -107 263 -107q164 0 242 85q48 51 48 120q0 79 -61.5 122.5t-229.5 83.5q-141 34 -193 50t-93 39q-56 31 -88 87t-32 124q0 164 143 246q94 54 240 54q223 0 329 -123q65 -75 75 -214zM784 1214h-128l-160 216l-163 -216h-115l217 291h130z" />
    <glyph glyph-name="Tcommaaccent" unicode="&#x162;" horiz-adv-x="1139" 
d="M1153 1462v-120h-513v-1342h-139v1342h-515v120h1167zM645 -124v-134q4 -198 -155 -238v66q76 36 83 142h-68v164h140z" />
    <glyph glyph-name="tcommaaccent" unicode="&#x163;" horiz-adv-x="606" 
d="M540 1056v-106h-219v-668q0 -103 16 -132q26 -45 112 -45q37 0 91 7v-111q-61 -8 -114 -8q-160 0 -208 86q-17 29 -21.5 78t-4.5 190v603h-184v106h184v323h129v-323h219zM410 -124v-134q3 -197 -154 -238v66q42 22 59.5 52.5t22.5 89.5h-68v164h140z" />
    <glyph glyph-name="Tcaron" unicode="&#x164;" horiz-adv-x="1139" 
d="M1153 1462v-120h-513v-1342h-139v1342h-515v120h1167zM247 1860h130l195 -199l199 199h117l-252 -276h-134z" />
    <glyph glyph-name="tcaron" unicode="&#x165;" horiz-adv-x="680" 
d="M552 1056v-106h-219v-668q0 -103 16 -132q26 -45 112 -45q37 0 91 7v-111q-61 -8 -114 -8q-160 0 -208 86q-17 29 -21.5 78t-4.5 190v603h-184v106h184v323h129v-323h219zM671 1559v-134q4 -199 -155 -238v66q42 21 60 51.5t23 90.5h-68v164h140z" />
    <glyph glyph-name="Tbar" unicode="&#x166;" horiz-adv-x="1139" 
d="M1153 1462v-120h-513v-465h365v-117h-365v-760h-139v760h-366v117h366v465h-515v120h1167z" />
    <glyph glyph-name="tbar" unicode="&#x167;" horiz-adv-x="606" 
d="M540 1056v-106h-219v-207h197v-102h-197v-359q0 -103 17 -132q25 -45 112 -45q39 0 90 7v-111q-62 -8 -115 -8q-159 0 -207 86q-17 29 -21.5 77.5t-4.5 189.5v295h-162v102h162v207h-184v106h184v323h129v-323h219z" />
    <glyph glyph-name="Utilde" unicode="&#x168;" horiz-adv-x="1403" 
d="M1272 1462v-876q0 -166 -22 -251q-48 -180 -186 -274.5t-353 -94.5q-357 0 -500 236q-43 72 -60.5 158.5t-17.5 230.5v871h139v-877q0 -128 15.5 -203.5t53.5 -134.5q105 -164 371 -164q255 0 353 158q37 59 52.5 138t15.5 208v875h139zM1026 1823q-18 -97 -63.5 -148
t-112.5 -51q-41 0 -77 12.5t-141 63.5q-38 19 -78 19q-70 0 -98 -103h-77q16 96 64.5 148t122.5 52q58 0 137 -40q74 -37 96.5 -45.5t49.5 -8.5q72 0 97 101h80z" />
    <glyph glyph-name="utilde" unicode="&#x169;" horiz-adv-x="1100" 
d="M975 1056v-1056h-121v197q-120 -228 -370 -228q-89 0 -168 34t-127 94q-72 91 -72 278v681h129v-625q0 -149 26 -214q26 -62 90 -98q68 -38 151 -38q84 0 155.5 39t115.5 109q62 100 62 285v542h129zM841 1465q-16 -97 -56.5 -148t-102.5 -51q-36 0 -68.5 12.5
t-126.5 63.5q-34 18 -70 18q-61 0 -83 -102h-75q15 96 58.5 147.5t109.5 51.5q52 0 123 -40q68 -37 88 -45t44 -8q60 0 82 101h77z" />
    <glyph glyph-name="Umacron" unicode="&#x16a;" horiz-adv-x="1403" 
d="M1272 1462v-876q0 -166 -22 -251q-48 -180 -186 -274.5t-353 -94.5q-357 0 -500 236q-43 72 -60.5 158.5t-17.5 230.5v871h139v-877q0 -128 15.5 -203.5t53.5 -134.5q105 -164 371 -164q255 0 353 158q37 59 52.5 138t15.5 208v875h139zM1033 1759v-92h-664v92h664z" />
    <glyph glyph-name="umacron" unicode="&#x16b;" horiz-adv-x="1100" 
d="M975 1056v-1056h-121v197q-120 -228 -370 -228q-89 0 -168 34t-127 94q-72 91 -72 278v681h129v-625q0 -149 26 -214q26 -62 90 -98q68 -38 151 -38q84 0 155.5 39t115.5 109q62 100 62 285v542h129zM833 1408v-92h-576v92h576z" />
    <glyph glyph-name="Ubreve" unicode="&#x16c;" horiz-adv-x="1403" 
d="M1272 1462v-876q0 -166 -22 -251q-48 -180 -186 -274.5t-353 -94.5q-357 0 -500 236q-43 72 -60.5 158.5t-17.5 230.5v871h139v-877q0 -128 15.5 -203.5t53.5 -134.5q105 -164 371 -164q255 0 353 158q37 59 52.5 138t15.5 208v875h139zM997 1860q-14 -92 -52 -149
q-80 -120 -247 -120q-127 0 -206 72.5t-87 196.5h81q12 -61 40 -98q60 -77 176 -77q175 0 215 175h80z" />
    <glyph glyph-name="ubreve" unicode="&#x16d;" horiz-adv-x="1100" 
d="M975 1056v-1056h-121v197q-120 -228 -370 -228q-89 0 -168 34t-127 94q-72 91 -72 278v681h129v-625q0 -149 26 -214q26 -62 90 -98q68 -38 151 -38q84 0 155.5 39t115.5 109q62 100 62 285v542h129zM816 1501q-12 -91 -47 -151q-71 -122 -223 -122q-113 0 -184 73.5
t-79 199.5h79q32 -179 193 -179q146 0 182 179h79z" />
    <glyph glyph-name="Uring" unicode="&#x16e;" horiz-adv-x="1403" 
d="M1272 1462v-876q0 -166 -22 -251q-48 -180 -186 -274.5t-353 -94.5q-357 0 -500 236q-43 72 -60.5 158.5t-17.5 230.5v871h139v-877q0 -128 15.5 -203.5t53.5 -134.5q105 -164 371 -164q255 0 353 158q37 59 52.5 138t15.5 208v875h139zM707 1967q90 0 153 -70
q55 -60 55 -142q0 -94 -70 -158q-61 -54 -142 -54q-95 0 -158 70q-54 61 -54 144q0 91 70 155q60 55 146 55zM701 1882q-51 0 -88 -37.5t-37 -89.5q0 -53 37 -90t90 -37t90 37.5t37 90.5t-37.5 89.5t-91.5 36.5z" />
    <glyph glyph-name="uring" unicode="&#x16f;" horiz-adv-x="1100" 
d="M975 1056v-1056h-121v197q-120 -228 -370 -228q-89 0 -168 34t-127 94q-72 91 -72 278v681h129v-625q0 -149 26 -214q26 -62 90 -98q68 -38 151 -38q84 0 155.5 39t115.5 109q62 100 62 285v542h129zM563 1579q86 0 148 -68q53 -58 53 -136q0 -92 -68 -152
q-58 -53 -137 -53q-91 0 -152 68q-53 58 -53 138q0 88 68 150q58 53 141 53zM557 1494q-48 0 -83 -35.5t-35 -83.5q0 -50 35 -85t85 -35t85 35t35 85t-35.5 84.5t-86.5 34.5z" />
    <glyph glyph-name="Uhungarumlaut" unicode="&#x170;" horiz-adv-x="1403" 
d="M1272 1462v-876q0 -166 -22 -251q-48 -180 -186 -274.5t-353 -94.5q-357 0 -500 236q-43 72 -60.5 158.5t-17.5 230.5v871h139v-877q0 -128 15.5 -203.5t53.5 -134.5q105 -164 371 -164q255 0 353 158q37 59 52.5 138t15.5 208v875h139zM1136 1860l-237 -276h-98l176 276
h159zM800 1860l-237 -276h-98l176 276h159z" />
    <glyph glyph-name="uhungarumlaut" unicode="&#x171;" horiz-adv-x="1100" 
d="M975 1056v-1056h-121v197q-120 -228 -370 -228q-89 0 -168 34t-127 94q-72 91 -72 278v681h129v-625q0 -149 26 -214q26 -62 90 -98q68 -38 151 -38q84 0 155.5 39t115.5 109q62 100 62 285v542h129zM928 1505l-211 -291h-96l157 291h150zM651 1505l-212 -291h-96
l157 291h151z" />
    <glyph glyph-name="Uogonek" unicode="&#x172;" horiz-adv-x="1403" 
d="M1103 -277v-77q-65 -22 -121 -22q-106 0 -164 53q-49 46 -49 111q0 106 152 205q-123 -27 -216 -27q-351 0 -494 236q-43 72 -60.5 158.5t-17.5 230.5v871h139v-877q0 -128 15.5 -203.5t53.5 -134.5q105 -164 370 -164q255 0 354 158q37 59 52.5 138.5t15.5 207.5v875
h139v-876q0 -182 -30 -277q-26 -80 -62.5 -131.5t-114.5 -118.5q-100 -85 -144 -144.5t-44 -111.5q0 -55 54 -81q37 -17 80 -17q37 0 92 18z" />
    <glyph glyph-name="uogonek" unicode="&#x173;" horiz-adv-x="1100" 
d="M975 0q-149 -87 -149 -200q0 -42 37 -68.5t96 -26.5q36 0 92 18v-77q-65 -22 -120 -22q-107 0 -165 53q-49 46 -49 110q0 121 182 213h-45v197q-120 -228 -370 -228q-89 0 -168 34t-127 94q-72 91 -72 278v681h129v-625q0 -149 26 -214q26 -62 90 -98q68 -38 151 -38
q84 0 155.5 39t115.5 109q62 100 62 285v542h129v-1056z" />
    <glyph glyph-name="Wcircumflex" unicode="&#x174;" horiz-adv-x="1858" 
d="M1856 1462l-405 -1462h-151l-297 1029q-48 167 -75 302q-31 -129 -79 -297l-293 -1034h-152l-403 1462h146l272 -1014q43 -161 68 -303q23 123 74 303l289 1014h159l296 -1029q41 -139 70 -288q27 144 65 287l277 1030h139zM1249 1584h-130l-195 199l-199 -199h-117
l252 276h134z" />
    <glyph glyph-name="wcircumflex" unicode="&#x175;" horiz-adv-x="1518" 
d="M1504 1056l-343 -1056h-140l-209 694q-22 74 -53 208q-33 -137 -53 -206l-206 -696h-143l-344 1056h141l200 -644q27 -85 75 -273q54 231 69 279l189 638h148l200 -670q22 -71 61 -245q38 156 64 241l210 674h134zM1041 1214h-128l-160 216l-163 -216h-115l217 291h130z
" />
    <glyph glyph-name="Ycircumflex" unicode="&#x176;" horiz-adv-x="1251" 
d="M1277 1462l-579 -857v-605h-139v605l-581 857h167l408 -612q36 -54 79 -129q45 79 75 124l410 617h160zM943 1584h-130l-195 199l-199 -199h-117l252 276h134z" />
    <glyph glyph-name="ycircumflex" unicode="&#x177;" horiz-adv-x="948" 
d="M948 1056l-415 -1096q-77 -203 -117 -263q-65 -98 -194 -98q-42 0 -86 6l-28 4v114q59 -14 95 -14q57 0 97 37t71 117l56 139q0 3 -1 6l-425 1048h141l287 -727q14 -35 62 -186q42 136 66 199l259 714h132zM756 1214h-128l-160 216l-163 -216h-115l217 291h130z" />
    <glyph glyph-name="Zacute" unicode="&#x179;" horiz-adv-x="1176" 
d="M1134 1462v-122l-890 -1131q-48 -57 -75 -92q55 0 210 3h775v-120h-1143v125l897 1138q48 56 68 82q-153 -3 -192 -3h-706v120h1056zM904 1860l-289 -276h-107l227 276h169z" />
    <glyph glyph-name="zacute" unicode="&#x17a;" horiz-adv-x="948" 
d="M898 1056v-91l-630 -775q-43 -50 -69 -84l52 1h59h618v-107h-885v105l619 761l73 84q-27 0 -85 -1h-560v107h808zM759 1505l-259 -291h-104l205 291h158z" />
    <glyph glyph-name="Zdotaccent" unicode="&#x17b;" horiz-adv-x="1176" 
d="M1137 1462v-122l-890 -1131q-48 -57 -75 -92q55 0 210 3h775v-120h-1143v125l897 1138q48 56 68 82q-153 -3 -192 -3h-706v120h1056zM672 1821v-205h-139v205h139z" />
    <glyph glyph-name="zdotaccent" unicode="&#x17c;" horiz-adv-x="948" 
d="M892 1056v-91l-630 -775q-43 -50 -69 -84l52 1h59h618v-107h-885v105l619 761l73 84q-27 0 -85 -1h-560v107h808zM562 1465v-209h-132v209h132z" />
    <glyph glyph-name="longs" unicode="&#x17f;" horiz-adv-x="570" 
d="M549 1466v-110q-50 8 -88 8q-102 0 -133 -56q-19 -34 -19 -147v-1161h-129v949h-180v107h180v90q0 97 7.5 141.5t28.5 79.5q66 106 230 106q47 0 103 -7z" />
    <glyph glyph-name="uni018F" unicode="&#x18f;" horiz-adv-x="1583" 
d="M1320 796q-13 175 -76 300q-69 137 -202 211q-117 65 -249 65q-206 0 -373 -146q-43 -37 -116 -118l-111 76q103 120 170 172q182 140 430 140q316 0 506 -230q170 -207 170 -535q0 -327 -170 -534q-190 -230 -508 -230q-216 0 -378 111q-169 115 -248 336
q-51 141 -51 298q0 28 3 84h1203zM262 676q12 -186 76 -310q69 -137 202 -211q116 -64 251 -64q190 0 332 120q177 149 198 465h-1059z" />
    <glyph glyph-name="Ohorn" unicode="&#x1a0;" horiz-adv-x="1579" 
d="M1318 1246q69 36 76 138h-68v164h140v-134q0 -89 -25 -140t-85 -82q123 -195 123 -466q0 -302 -154 -504q-194 -256 -537 -256q-339 0 -533 256q-154 203 -154 509q0 342 189 550q194 215 500 215q302 0 498 -215q16 -17 30 -35zM782 1376q-232 0 -388 -176
q-154 -173 -154 -464q0 -275 131 -448q80 -105 204 -159q100 -43 215 -43q240 0 393 171q157 175 157 469q0 292 -151 469q-154 181 -407 181z" />
    <glyph glyph-name="ohorn" unicode="&#x1a1;" horiz-adv-x="1181" 
d="M1016 850q59 35 68 134h-68v164h140v-134q0 -89 -25.5 -140.5t-85.5 -82.5q45 -114 45 -269q0 -262 -143 -411q-135 -142 -355 -142q-239 0 -376 165q-125 150 -125 395q0 235 118 383q139 175 384 175q286 0 423 -237zM588 980q-158 0 -260 -119q-105 -122 -105 -332
q0 -213 101 -334q101 -119 271 -119q161 0 257 111q108 124 108 338q0 206 -97 329q-99 126 -275 126z" />
    <glyph glyph-name="Uhorn" unicode="&#x1af;" horiz-adv-x="1447" 
d="M1295 1462v-876q0 -166 -22 -251q-48 -180 -186 -274.5t-353 -94.5q-357 0 -500 236q-43 72 -60.5 158.5t-17.5 230.5v871h139v-877q0 -128 15.5 -203.5t53.5 -134.5q105 -164 371 -164q255 0 353 158q37 59 52.5 138t15.5 208v875h139zM1531 1526v-134q4 -197 -155 -238
v66q76 36 83 142h-68v164h140z" />
    <glyph glyph-name="uhorn" unicode="&#x1b0;" horiz-adv-x="1174" 
d="M1012 1056v-1056h-121v197q-120 -228 -370 -228q-89 0 -168 34t-127 94q-72 91 -72 278v681h129v-625q0 -149 26 -214q26 -62 90 -98q68 -38 151 -38q84 0 155.5 39t115.5 109q62 100 62 285v542h129zM1235 1149v-134q4 -196 -154 -238v66q42 22 59.5 52.5t22.5 89.5h-68
v164h140z" />
    <glyph glyph-name="uni01C4" unicode="&#x1c4;" horiz-adv-x="2470" 
d="M176 0v1462h534q245 0 381 -98q154 -110 216 -344q35 -129 35 -285q0 -323 -153 -528q-90 -120 -214 -164q-120 -43 -296 -43h-503zM322 124h325q227 0 329 69q220 148 220 540q0 314 -129 468q-52 62 -116 92q-97 45 -250 45h-379v-1214zM2387 1462v-124l-915 -1214h940
v-124h-1135v89l937 1249h-832v124h1005zM1809 1587l-234 277h149l161 -193l161 193h148l-234 -277h-151z" />
    <glyph glyph-name="uni01C5" unicode="&#x1c5;" horiz-adv-x="2317" 
d="M176 0v1462h534q245 0 381 -98q154 -110 216 -344q35 -129 35 -285q0 -323 -153 -528q-90 -120 -214 -164q-120 -43 -296 -43h-503zM322 124h325q227 0 329 69q220 148 220 540q0 314 -129 468q-52 62 -116 92q-97 45 -250 45h-379v-1214zM2280 114v-114h-846v97l656 849
h-609v114h772v-102l-651 -844h678zM1777 1214l-234 277h149l160 -193l162 193h147l-233 -277h-151z" />
    <glyph glyph-name="uni01C6" unicode="&#x1c6;" horiz-adv-x="2020" 
d="M1040 1462v-1462h-131v153q-58 -81 -118 -119q-97 -63 -224 -63q-220 0 -347 165q-119 153 -119 396q0 230 112 381q131 176 353 176q212 0 343 -185v558h131zM566 972q-150 0 -242 -116t-92 -326q0 -215 95 -331q91 -110 244 -110t244 110q94 115 94 329q0 213 -91 328
q-92 116 -252 116zM1982 114v-114h-846v97l656 849h-609v114h772v-102l-651 -844h678zM1470 1214l-234 278h149l161 -194l161 194h148l-234 -278h-151z" />
    <glyph glyph-name="uni01C7" unicode="&#x1c7;" horiz-adv-x="1984" 
d="M322 1462v-1338h705v-124h-851v1462h146zM1663 1462h146v-1024q0 -460 -407 -460q-406 0 -406 460v43h146v-43q0 -336 260 -336q261 0 261 336v1024z" />
    <glyph glyph-name="uni01C8" unicode="&#x1c8;" horiz-adv-x="1063" 
d="M321 1462v-1338h705v-124h-851v1462h146zM1176 1060h131v-1120q0 -123 -22 -170q-51 -107 -207 -107h-83v106h50q70 0 97 26q34 32 34 154v1111zM1308 1462v-175h-132v175h132z" />
    <glyph glyph-name="uni01C9" unicode="&#x1c9;" horiz-adv-x="703" 
d="M300 1462v-1462h-139v1462h139zM488 1060h131v-1120q0 -124 -22 -170q-51 -107 -207 -107h-83v106h50q70 0 97 26q34 32 34 154v1111zM620 1462v-175h-131v175h131z" />
    <glyph glyph-name="uni01CA" unicode="&#x1ca;" horiz-adv-x="2383" 
d="M1297 0h-150l-851 1285q8 -135 10 -588v-697h-131v1462h152l849 -1280q-10 232 -10 601v679h131v-1462zM2062 1462h146v-1024q0 -460 -407 -460q-406 0 -406 460v43h146v-43q0 -336 260 -336q261 0 261 336v1024z" />
    <glyph glyph-name="uni01CB" unicode="&#x1cb;" horiz-adv-x="1473" 
d="M1297 0h-150l-851 1285q8 -135 10 -588v-697h-131v1462h152l849 -1280q-10 233 -10 602v678h131v-1462zM1472 1060h131v-1120q0 -123 -22 -170q-51 -107 -207 -107h-83v106h50q70 0 97 26q34 32 34 154v1111zM1604 1462v-175h-132v175h132z" />
    <glyph glyph-name="uni01CC" unicode="&#x1cc;" horiz-adv-x="1133" 
d="M161 1060h131v-150q66 97 142 138t190 41q183 0 278 -110q37 -44 53.5 -103.5t16.5 -152.5v-723h-131v694q0 81 -11 126.5t-39 77.5q-63 74 -184 74q-138 0 -230 -93q-85 -86 -85 -257v-622h-131v1060zM1113 1060h131v-1120q0 -123 -22 -170q-51 -107 -207 -107h-83v106
h50q70 0 97 26q34 32 34 154v1111zM1245 1462v-175h-132v175h132z" />
    <glyph glyph-name="uni01CD" unicode="&#x1cd;" horiz-adv-x="1367" 
d="M765 1467l584 -1467h-156l-176 460h-669l-180 -460h-149l591 1467h155zM974 573l-210 541q-47 122 -79 222q-44 -125 -80 -215l-215 -548h584zM363 1860h130l195 -199l199 199h117l-252 -276h-134z" />
    <glyph glyph-name="uni01CE" unicode="&#x1ce;" horiz-adv-x="1095" 
d="M1055 107v-99q-48 -17 -103 -17q-75 0 -106 43.5t-31 150.5q-51 -80 -105 -123q-118 -93 -294 -93q-153 0 -242 71q-103 80 -103 228q0 208 199 285q57 23 108.5 31t262.5 29q96 9 132 38t36 97q0 123 -68 176q-70 56 -208 56q-136 0 -205.5 -60t-82.5 -190h-124
q8 172 119 264.5t308 92.5q216 0 322 -108q37 -39 51 -91.5t14 -157.5l-1 -322q1 -194 2.5 -229t7.5 -51q13 -29 62 -29q22 0 49 8zM809 576q-33 -28 -77 -39.5t-214 -34.5t-241 -72q-75 -52 -75 -150q0 -94 66 -149q67 -57 180 -57q157 0 259 93t102 237v172zM258 1505h128
l160 -217l163 217h115l-217 -291h-129z" />
    <glyph glyph-name="uni01CF" unicode="&#x1cf;" horiz-adv-x="490" 
d="M314 1462v-1462h-139v1462h139zM-76 1860h130l195 -199l199 199h117l-252 -276h-134z" />
    <glyph glyph-name="uni01D0" unicode="&#x1d0;" horiz-adv-x="450" 
d="M290 1056v-1056h-129v1056h129zM-58 1505h128l160 -217l163 217h115l-217 -291h-129z" />
    <glyph glyph-name="uni01D1" unicode="&#x1d1;" horiz-adv-x="1579" 
d="M800 1496q294 0 488 -215q191 -211 191 -554q0 -303 -154 -505q-194 -256 -537 -256q-339 0 -533 256q-154 203 -154 507q0 347 189 552q197 215 510 215zM782 1376q-232 0 -388 -176q-154 -173 -154 -464q0 -275 131 -448q80 -105 204 -159q100 -43 215 -43
q240 0 393 171q157 175 157 469q0 292 -151 469q-154 181 -407 181zM469 1860h131l195 -199l198 199h117l-252 -276h-134z" />
    <glyph glyph-name="uni01D2" unicode="&#x1d2;" horiz-adv-x="1181" 
d="M599 1087q229 0 367 -166q124 -147 124 -397q0 -263 -143 -413q-135 -142 -355 -142q-240 0 -377 165q-125 150 -125 393q0 236 118 385q138 175 391 175zM587 980q-158 0 -260 -119q-105 -122 -105 -332q0 -213 102 -334q100 -119 270 -119q162 0 258 111
q108 124 108 338q0 206 -97 329q-100 126 -276 126zM307 1505h128l160 -217l163 217h115l-217 -291h-129z" />
    <glyph glyph-name="uni01D3" unicode="&#x1d3;" horiz-adv-x="1447" 
d="M1295 1462v-876q0 -166 -22 -251q-48 -180 -186 -274.5t-353 -94.5q-357 0 -500 236q-43 72 -60.5 158.5t-17.5 230.5v871h139v-877q0 -128 15.5 -203.5t53.5 -134.5q105 -164 371 -164q255 0 353 158q37 59 52.5 138t15.5 208v875h139zM405 1860h130l195 -199l199 199
h117l-252 -276h-134z" />
    <glyph glyph-name="uni01D4" unicode="&#x1d4;" horiz-adv-x="1174" 
d="M1012 1056v-1056h-121v197q-120 -228 -370 -228q-89 0 -168 34t-127 94q-72 91 -72 278v681h129v-625q0 -149 26 -214q26 -62 90 -98q68 -38 151 -38q84 0 155.5 39t115.5 109q62 100 62 285v542h129zM299 1505h128l160 -217l163 217h115l-217 -291h-129z" />
    <glyph glyph-name="uni01DD" unicode="&#x1dd;" horiz-adv-x="1133" 
d="M101 708q20 102 63 172q126 207 386 207q238 0 369 -169q117 -150 117 -378q0 -255 -138 -415q-135 -156 -344 -156q-168 0 -288 103q-93 82 -135.5 198t-41.5 289h816q-1 103 -25 177q-80 244 -332 244q-126 0 -209 -69.5t-114 -202.5h-124zM220 452q7 -134 61 -222
q96 -154 276 -154q121 0 210 73q113 94 138 303h-685z" />
    <glyph glyph-name="uni01E6" unicode="&#x1e6;" horiz-adv-x="1566" 
d="M1422 743v-743h-92l-29 273q-42 -93 -118 -164q-155 -143 -396 -143q-215 0 -377 105q-160 104 -243 297q-68 158 -68 349q0 347 198 569q187 210 497 210q289 0 463 -184q118 -124 145 -300h-135q-30 164 -159.5 264t-312.5 100q-273 0 -429 -209q-128 -171 -128 -448
q0 -264 129 -432q155 -201 428 -201q217 0 357 136q146 142 147 407h-501v114h624zM465 1860h130l195 -199l199 199h117l-252 -276h-134z" />
    <glyph glyph-name="uni01E7" unicode="&#x1e7;" horiz-adv-x="1202" 
d="M1041 1056v-955q0 -120 -14.5 -193t-49.5 -133q-112 -189 -410 -189q-195 0 -308.5 83.5t-125.5 235.5h130q31 -215 305 -215q204 0 283 114q63 90 63 266v177q-110 -233 -365 -233q-216 0 -343 154q-115 141 -115 371q0 250 128 397q131 151 341 151q241 0 360 -228v197
h121zM560 980q-167 0 -261 -138q-78 -115 -78 -291q0 -217 108 -332q93 -98 234 -98q175 0 272 140q78 112 78 296q0 218 -112 330q-94 93 -241 93zM314 1505h128l160 -217l163 217h115l-217 -291h-129z" />
    <glyph glyph-name="uni01F4" unicode="&#x1f4;" horiz-adv-x="1566" 
d="M1422 743v-743h-92l-29 273q-42 -93 -118 -164q-155 -143 -396 -143q-215 0 -377 105q-160 104 -243 297q-68 158 -68 349q0 347 198 569q187 210 497 210q289 0 463 -184q118 -124 145 -300h-135q-30 164 -159.5 264t-312.5 100q-273 0 -429 -209q-128 -171 -128 -448
q0 -264 129 -432q155 -201 428 -201q217 0 357 136q146 142 147 407h-501v114h624zM1100 1860l-289 -276h-107l227 276h169z" />
    <glyph glyph-name="uni01F5" unicode="&#x1f5;" horiz-adv-x="1202" 
d="M1041 1056v-955q0 -120 -14.5 -193t-49.5 -133q-112 -189 -410 -189q-195 0 -308.5 83.5t-125.5 235.5h130q31 -215 305 -215q204 0 283 114q63 90 63 266v177q-110 -233 -365 -233q-216 0 -343 154q-115 141 -115 371q0 250 128 397q131 151 341 151q241 0 360 -228v197
h121zM560 980q-167 0 -261 -138q-78 -115 -78 -291q0 -217 108 -332q93 -98 234 -98q175 0 272 140q78 112 78 296q0 218 -112 330q-94 93 -241 93zM804 1505l-259 -291h-104l205 291h158z" />
    <glyph glyph-name="Aringacute" unicode="&#x1fa;" horiz-adv-x="1367" 
d="M765 1467l584 -1467h-156l-176 460h-669l-180 -460h-149l591 1467h155zM974 573l-210 541q-47 122 -79 222q-44 -125 -80 -215l-215 -548h584zM688 1967q90 0 153 -70q55 -60 55 -142q0 -94 -70 -158q-61 -54 -142 -54q-95 0 -158 70q-54 61 -54 144q0 91 70 155
q60 55 146 55zM682 1882q-51 0 -88 -37.5t-37 -89.5q0 -53 37 -90t90 -37t90 37.5t37 90.5t-37.5 89.5t-91.5 36.5zM776 2147l-289 -276h-107l227 276h169z" />
    <glyph glyph-name="aringacute" unicode="&#x1fb;" horiz-adv-x="1095" 
d="M1055 107v-99q-48 -17 -103 -17q-75 0 -106 43.5t-31 150.5q-51 -80 -105 -123q-118 -93 -294 -93q-153 0 -242 71q-103 80 -103 228q0 208 199 285q57 23 108.5 31t262.5 29q96 9 132 38t36 97q0 123 -68 176q-70 56 -208 56q-136 0 -205.5 -60t-82.5 -190h-124
q8 172 119 264.5t308 92.5q216 0 322 -108q37 -39 51 -91.5t14 -157.5l-1 -322q1 -194 2.5 -229t7.5 -51q13 -29 62 -29q22 0 49 8zM809 576q-33 -28 -77 -39.5t-214 -34.5t-241 -72q-75 -52 -75 -150q0 -94 66 -149q67 -57 180 -57q157 0 259 93t102 237v172zM562 1579
q87 0 148 -68q53 -58 53 -136q0 -91 -68 -152q-58 -53 -136 -53q-91 0 -152 68q-53 58 -53 138q0 88 68 150q58 53 140 53zM556 1494q-48 0 -82.5 -35.5t-34.5 -83.5q0 -50 35 -85t85 -35q49 0 84 35t35 85t-35.5 84.5t-86.5 34.5zM688 1855l-259 -291h-104l205 291h158z
" />
    <glyph glyph-name="AEacute" unicode="&#x1fc;" horiz-adv-x="1917" 
d="M1825 1462v-120h-756v-525h705v-120h-705v-577h765v-120h-904v478h-524l-245 -478h-160l764 1462h1060zM930 595v747h-85l-382 -747h467zM1405 1860l-289 -276h-107l227 276h169z" />
    <glyph glyph-name="aeacute" unicode="&#x1fd;" horiz-adv-x="1808" 
d="M1715 345q-28 -135 -104 -225q-128 -151 -352 -151q-296 0 -392 267q-49 -123 -172.5 -197t-279.5 -74q-155 0 -249.5 86.5t-94.5 227.5q0 150 106 234q83 66 315 88q234 22 270 46q25 17 34.5 39t9.5 62q0 115 -57 169q-66 63 -214 63q-143 0 -215 -61t-83 -192h-124
q15 153 95 237q114 123 331 123q190 0 281 -80q50 -43 76 -138q37 79 95 128q108 90 272 90q225 0 353 -161q111 -141 111 -381q0 -16 -1 -48h-800q-1 -155 50 -252q90 -169 295 -169q256 0 320 269h124zM1597 604q-3 139 -63 232q-93 144 -272 144q-91 0 -166.5 -42.5
t-118.5 -118.5q-42 -74 -54 -215h674zM805 574q-29 -26 -65 -36.5t-124 -18.5q-205 -19 -274 -44q-140 -50 -140 -190q0 -98 63 -158q65 -62 184 -62q171 0 278 124q43 49 60.5 107t17.5 152v126zM1151 1505l-259 -291h-104l205 291h158z" />
    <glyph glyph-name="Oslashacute" unicode="&#x1fe;" horiz-adv-x="1579" 
d="M1321 1242q158 -212 158 -515t-154 -505q-194 -256 -537 -256q-272 0 -460 174l-153 -165l-74 66l158 176q-158 211 -158 514q0 342 189 550q194 215 499 215q277 0 464 -178l149 168l74 -67zM1222 1150l-802 -919q53 -44 97 -71q120 -74 273 -74q240 0 393 171
q157 175 157 469q0 253 -118 424zM355 313l805 914q-162 149 -370 149q-241 0 -396 -176q-154 -174 -154 -463q0 -251 115 -424zM1072 1860l-289 -276h-107l227 276h169z" />
    <glyph glyph-name="oslashacute" unicode="&#x1ff;" horiz-adv-x="1181" 
d="M993 888q35 -56 54 -102q44 -110 44 -261q0 -265 -143 -414q-136 -142 -354 -142q-201 0 -341 124l-116 -126l-68 62l124 134q-103 157 -103 365q0 236 118 384q139 175 383 175q206 0 341 -127l112 119l68 -61zM899 800l-560 -622q114 -102 256 -102q161 0 258 111
q108 124 108 340q0 152 -62 273zM284 253l563 622q-110 105 -256 105q-164 0 -265 -119q-106 -123 -106 -328q0 -166 64 -280zM854 1505l-259 -291h-104l205 291h158z" />
    <glyph glyph-name="uni0200" unicode="&#x200;" horiz-adv-x="1354" 
d="M995 462h-644l-172 -462h-150l567 1462h152l577 -1462h-152zM948 578l-281 734l-272 -734h553zM734 1858l170 -278h-114l-244 278h188zM383 1858l170 -278h-114l-244 278h188z" />
    <glyph glyph-name="uni0201" unicode="&#x201;" horiz-adv-x="1127" 
d="M284 737h-139q4 157 88 241q111 111 336 111q197 0 303 -91q87 -75 87 -228v-594q0 -91 55 -91q19 0 64 14v-102q-62 -16 -102 -16q-70 0 -109.5 40t-39.5 112q0 8 1 23q-131 -185 -384 -185q-153 0 -242 69q-108 83 -108 236q0 145 97 229q71 62 236 89l313 51
q60 9 72 24.5t12 81.5q0 106 -42 151q-65 70 -221 70q-138 0 -204 -56t-73 -179zM828 547l-379 -64q-216 -36 -216 -202q0 -92 63 -146t169 -54q97 0 178 40t132 113q53 77 53 194v119zM674 1500l169 -278h-114l-244 278h189zM323 1500l169 -278h-114l-244 278h189z" />
    <glyph glyph-name="Scommaaccent" unicode="&#x218;" horiz-adv-x="1290" 
d="M1149 1041h-134q-15 169 -111 249q-108 90 -295 90q-160 0 -254 -63q-111 -76 -111 -217q0 -124 89 -179q75 -45 305 -98q174 -40 248 -63t129 -55q181 -103 181 -307q0 -207 -166 -330q-139 -102 -385 -102q-274 0 -427 132q-75 65 -116 162t-41 208v16h134
q5 -167 81 -258q119 -143 379 -143q207 0 309 89q97 84 97 213q0 161 -171 231q-77 33 -322 90q-146 34 -213 58t-120 60q-127 89 -127 268q0 187 137 295.5t374 108.5q244 0 383 -119t147 -336zM686 -124v-134q4 -198 -155 -238v66q76 36 83 142h-68v164h140z" />
    <glyph glyph-name="scommaaccent" unicode="&#x219;" horiz-adv-x="985" 
d="M868 750h-127q-9 84 -40 130q-67 100 -244 100q-142 0 -209 -70q-40 -43 -40 -109q0 -77 58 -114.5t245 -80.5q198 -45 283 -101q52 -34 81.5 -90.5t29.5 -121.5q0 -74 -35 -139t-98 -108q-112 -77 -287 -77q-242 0 -357 141q-73 89 -77 235h125q8 -107 49 -162
q79 -107 263 -107q164 0 242 85q48 51 48 120q0 79 -61.5 122.5t-229.5 83.5q-141 34 -193 50t-93 39q-56 31 -88 87t-32 124q0 164 143 246q94 54 240 54q223 0 329 -123q65 -75 75 -214zM529 -124v-134q3 -197 -154 -238v66q42 22 59.5 52.5t22.5 89.5h-68v164h140z" />
    <glyph glyph-name="uni021A" unicode="&#x21a;" horiz-adv-x="1139" 
d="M1153 1462v-120h-513v-1342h-139v1342h-515v120h1167zM645 -124v-134q4 -198 -155 -238v66q76 36 83 142h-68v164h140z" />
    <glyph glyph-name="uni021B" unicode="&#x21b;" horiz-adv-x="606" 
d="M540 1056v-106h-219v-668q0 -103 16 -132q26 -45 112 -45q37 0 91 7v-111q-61 -8 -114 -8q-160 0 -208 86q-17 29 -21.5 78t-4.5 190v603h-184v106h184v323h129v-323h219zM410 -124v-134q3 -197 -154 -238v66q42 22 59.5 52.5t22.5 89.5h-68v164h140z" />
    <glyph glyph-name="uni0226" unicode="&#x226;" horiz-adv-x="1367" 
d="M765 1467l584 -1467h-156l-176 460h-669l-180 -460h-149l591 1467h155zM974 573l-210 541q-47 122 -79 222q-44 -125 -80 -215l-215 -548h584zM762 1821v-205h-139v205h139z" />
    <glyph glyph-name="uni0227" unicode="&#x227;" horiz-adv-x="1095" 
d="M1055 107v-99q-48 -17 -103 -17q-75 0 -106 43.5t-31 150.5q-51 -80 -105 -123q-118 -93 -294 -93q-153 0 -242 71q-103 80 -103 228q0 208 199 285q57 23 108.5 31t262.5 29q96 9 132 38t36 97q0 123 -68 176q-70 56 -208 56q-136 0 -205.5 -60t-82.5 -190h-124
q8 172 119 264.5t308 92.5q216 0 322 -108q37 -39 51 -91.5t14 -157.5l-1 -322q1 -194 2.5 -229t7.5 -51q13 -29 62 -29q22 0 49 8zM809 576q-33 -28 -77 -39.5t-214 -34.5t-241 -72q-75 -52 -75 -150q0 -94 66 -149q67 -57 180 -57q157 0 259 93t102 237v172zM618 1465
v-209h-132v209h132z" />
    <glyph glyph-name="uni0237" unicode="&#x237;" horiz-adv-x="379" 
d="M254 1056v-1126q0 -113 -10 -166t-38 -91q-58 -78 -209 -78q-28 0 -62 6v107q30 -3 52 -3q88 0 113 40t25 181v1130h129z" />
    <glyph glyph-name="uni0259" unicode="&#x259;" horiz-adv-x="1133" 
d="M101 708q20 102 63 172q126 207 386 207q238 0 369 -169q117 -150 117 -378q0 -255 -138 -415q-135 -156 -344 -156q-168 0 -288 103q-93 82 -135.5 198t-41.5 289h816q-1 103 -25 177q-80 244 -332 244q-126 0 -209 -69.5t-114 -202.5h-124zM220 452q7 -134 61 -222
q96 -154 276 -154q121 0 210 73q113 94 138 303h-685z" />
    <glyph glyph-name="uni02BB" unicode="&#x2bb;" horiz-adv-x="508" 
d="M347 953h-186v238q0 237 186 271v-98q-51 -16 -68.5 -55.5t-18.5 -136.5h87v-219z" />
    <glyph glyph-name="uni02BC" unicode="&#x2bc;" horiz-adv-x="490" 
d="M329 1462v-167q0 -91 -12 -141.5t-47 -100.5q-42 -62 -122 -88v87q50 30 70.5 74t21.5 122h-79v214h168z" />
    <glyph glyph-name="uni02C9" unicode="&#x2c9;" horiz-adv-x="379" 
d="M477 1408v-92h-576v92h576z" />
    <glyph glyph-name="uni0309" unicode="&#x309;" horiz-adv-x="1095" 
d="M722 1201v-60h-95v118q64 4 92 30.5t28 84.5q0 80 -61 80q-36 0 -42 -39h-93q11 135 145 135q74 0 117 -46.5t43 -128.5q0 -143 -134 -174z" />
    <glyph glyph-name="uni037E" unicode="&#x37e;" horiz-adv-x="569" 
d="M384 212v-151q0 -153 -41 -230.5t-140 -113.5v85q89 40 94 198h-81v212h168zM384 1056v-219h-168v219h168z" />
    <glyph glyph-name="tonos" unicode="&#x384;" horiz-adv-x="1063" 
d="M479 1175l-21 347h147l-21 -347h-105z" />
    <glyph glyph-name="dieresistonos" unicode="&#x385;" horiz-adv-x="1063" 
d="M207 1262v186h132v-186h-132zM724 1262v186h132v-186h-132zM479 1175l-21 347h147l-21 -347h-105z" />
    <glyph glyph-name="Alphatonos" unicode="&#x386;" horiz-adv-x="1372" 
d="M1015 463h-667l-176 -463h-142l577 1462h147l587 -1462h-143zM969 575l-293 753l-285 -753h578zM210 1090l-21 432h147l-21 -432h-105z" />
    <glyph glyph-name="Epsilontonos" unicode="&#x388;" horiz-adv-x="1423" 
d="M21 1090l-21 432h147l-21 -432h-105zM1312 1462v-120h-850v-534h780v-112h-780v-576h869v-120h-1008v1462h989z" />
    <glyph glyph-name="Etatonos" unicode="&#x389;" horiz-adv-x="1607" 
d="M21 1090l-21 432h147l-21 -432h-105zM1292 716h-830v-716h-139v1462h139v-626h830v626h139v-1462h-139v716z" />
    <glyph glyph-name="Iotatonos" unicode="&#x38a;" horiz-adv-x="639" 
d="M21 1090l-21 432h147l-21 -432h-105zM462 1462v-1462h-139v1462h139z" />
    <glyph glyph-name="Omicrontonos" unicode="&#x38c;" horiz-adv-x="1708" 
d="M21 1090l-21 432h147l-21 -432h-105zM916 1496q207 0 372 -112q179 -121 254 -335q51 -143 51 -318q0 -326 -173 -533q-193 -231 -514 -231t-514 231q-173 207 -173 531q0 328 173 536q192 231 524 231zM898 1376q-157 0 -294 -92q-246 -165 -246 -553q0 -284 136 -452
q78 -97 197 -148q102 -44 215 -44q167 0 302 91q145 97 205 280q41 123 41 271q0 284 -136 455q-77 97 -197 148q-104 44 -223 44z" />
    <glyph glyph-name="Upsilontonos" unicode="&#x38e;" horiz-adv-x="1450" 
d="M21 1090l-21 432h147l-21 -432h-105zM888 642v-642h-132v642l-568 820h164l471 -700l465 700h161z" />
    <glyph glyph-name="Omegatonos" unicode="&#x38f;" horiz-adv-x="1708" 
d="M21 1090l-21 432h147l-21 -432h-105zM1212 120h381v-120h-574v151q130 27 229 103q206 160 206 496q0 275 -136 440q-78 94 -197 144q-102 42 -215 42q-167 0 -302 -88q-246 -161 -246 -537q0 -369 246 -525q86 -54 189 -75v-151h-574v120h381q-97 36 -168 100
q-213 193 -213 543q0 312 173 511q192 222 514 222t514 -222q173 -199 173 -511q0 -237 -100 -405.5t-281 -237.5z" />
    <glyph glyph-name="iotadieresistonos" unicode="&#x390;" horiz-adv-x="464" 
d="M296 1056v-1056h-129v1056h129zM-93 1262v186h132v-186h-132zM424 1262v186h132v-186h-132zM179 1175l-21 347h147l-21 -347h-105z" />
    <glyph glyph-name="Alpha" unicode="&#x391;" horiz-adv-x="1372" 
d="M1015 463h-667l-176 -463h-142l577 1462h147l587 -1462h-143zM969 575l-293 753l-285 -753h578z" />
    <glyph glyph-name="Beta" unicode="&#x392;" horiz-adv-x="1390" 
d="M177 0v1462h601q120 0 195 -21t131 -70q116 -99 116 -272q0 -166 -109 -260q-33 -29 -108 -62q104 -31 155 -71q129 -104 129 -292q0 -200 -131 -312q-78 -66 -172 -85q-87 -17 -197 -17h-610zM309 816h452q96 0 156 19t103 62q68 68 68 182t-68 182q-43 43 -103.5 62
t-156.5 19h-451v-526zM309 120h494q176 0 260 68q88 72 88 224q0 151 -84 221.5t-265 70.5h-493v-584z" />
    <glyph glyph-name="Gamma" unicode="&#x393;" horiz-adv-x="1074" 
d="M316 0h-139v1462h859v-120h-720v-1342z" />
    <glyph glyph-name="Epsilon" unicode="&#x395;" horiz-adv-x="1277" 
d="M1166 1462v-120h-850v-534h780v-112h-780v-576h869v-120h-1008v1462h989z" />
    <glyph glyph-name="Zeta" unicode="&#x396;" horiz-adv-x="1272" 
d="M1188 1462v-121l-938 -1221h963v-120h-1150v86l961 1256h-853v120h1017z" />
    <glyph glyph-name="Eta" unicode="&#x397;" horiz-adv-x="1461" 
d="M1145 716h-830v-716h-139v1462h139v-626h830v626h139v-1462h-139v716z" />
    <glyph glyph-name="Theta" unicode="&#x398;" horiz-adv-x="1604" 
d="M1146 696h-688v112h688v-112zM812 1496q207 0 372 -112q179 -121 254 -335q51 -144 51 -318q0 -326 -173 -533q-193 -231 -514 -231t-514 231q-173 207 -173 531q0 328 173 536q192 231 524 231zM794 1376q-158 0 -294 -92q-246 -165 -246 -553q0 -284 135 -452
q79 -97 198 -148q102 -44 215 -44q167 0 302 91q145 97 205 280q41 124 41 271q0 284 -136 455q-77 97 -197 148q-104 44 -223 44z" />
    <glyph glyph-name="Iota" unicode="&#x399;" horiz-adv-x="492" 
d="M315 1462v-1462h-139v1462h139z" />
    <glyph glyph-name="Kappa" unicode="&#x39a;" horiz-adv-x="1365" 
d="M662 864l672 -864h-171l-600 771l-248 -227v-544h-139v1462h139v-766l822 766h183z" />
    <glyph glyph-name="Lambda" unicode="&#x39b;" horiz-adv-x="1285" 
d="M565 1462h143l546 -1462h-152l-357 1009l-30 86l-34 96q-35 95 -47 128l-17 -51q-59 -174 -89 -259l-350 -1009h-148z" />
    <glyph glyph-name="Mu" unicode="&#x39c;" horiz-adv-x="1717" 
d="M922 0h-128l-499 1301q14 -418 14 -820v-481h-132v1462h179l505 -1321l507 1321h173v-1462h-132v387q0 606 12 900z" />
    <glyph glyph-name="Nu" unicode="&#x39d;" horiz-adv-x="1490" 
d="M1313 0h-144l-880 1304q9 -149 11 -607v-697h-124v1462h146l878 -1300q-11 260 -11 621v679h124v-1462z" />
    <glyph glyph-name="Xi" unicode="&#x39e;" horiz-adv-x="1212" 
d="M87 1462h1038v-120h-1038v120zM157 696v112h898v-112h-898zM68 0v120h1077v-120h-1077z" />
    <glyph glyph-name="Omicron" unicode="&#x39f;" horiz-adv-x="1604" 
d="M812 1496q207 0 372 -112q179 -121 254 -335q51 -144 51 -318q0 -326 -173 -533q-193 -231 -514 -231t-514 231q-173 207 -173 531q0 328 173 536q192 231 524 231zM794 1376q-158 0 -294 -92q-246 -165 -246 -553q0 -284 135 -452q79 -97 198 -148q102 -44 215 -44
q167 0 302 91q145 97 205 280q41 124 41 271q0 284 -136 455q-77 97 -197 148q-104 44 -223 44z" />
    <glyph glyph-name="Pi" unicode="&#x3a0;" horiz-adv-x="1461" 
d="M1145 1342h-830v-1342h-139v1462h1108v-1462h-139v1342z" />
    <glyph glyph-name="Rho" unicode="&#x3a1;" horiz-adv-x="1282" 
d="M315 641v-641h-139v1462h565q127 0 205 -21.5t139 -74.5q122 -104 122 -320q0 -205 -122 -309q-61 -52 -139.5 -74t-203.5 -22h-427zM315 761h366q205 0 293 69q94 73 94 222q0 148 -94 221q-47 37 -115.5 53t-178.5 16h-365v-581z" />
    <glyph glyph-name="Sigma" unicode="&#x3a3;" horiz-adv-x="1205" 
d="M691 732l-542 609v121h1017v-120h-840l530 -601l-618 -621h953v-120h-1150v86z" />
    <glyph glyph-name="Tau" unicode="&#x3a4;" horiz-adv-x="1122" 
d="M630 1342v-1342h-139v1342h-475v120h1090v-120h-476z" />
    <glyph glyph-name="Upsilon" unicode="&#x3a5;" horiz-adv-x="1263" 
d="M701 642v-642h-132v642l-568 820h164l471 -700l465 700h161z" />
    <glyph glyph-name="Phi" unicode="&#x3a6;" horiz-adv-x="1805" 
d="M836 -170v242q-276 4 -452 124q-143 98 -214 260q-55 128 -55 275q0 210 109 373q186 281 612 286v242h133v-242q275 -4 452 -124q144 -98 214 -260q55 -128 55 -275q0 -210 -108 -373q-187 -281 -613 -286v-242h-133zM836 192v1078q-238 -2 -378 -98
q-204 -141 -204 -441q0 -259 151.5 -399t430.5 -140zM969 192q141 0 251 36q190 63 273 233q58 118 58 270q0 258 -150.5 397.5t-431.5 141.5v-1078z" />
    <glyph glyph-name="Chi" unicode="&#x3a7;" horiz-adv-x="1217" 
d="M683 737l512 -737h-164l-421 639l-422 -639h-165l515 737l-500 725h164l410 -628l419 628h159z" />
    <glyph glyph-name="Psi" unicode="&#x3a8;" horiz-adv-x="1583" 
d="M862 1462v-970q246 11 367 146q50 56 72 131t22 190v503h139v-472q0 -127 -21 -220q-40 -178 -193.5 -283.5t-385.5 -115.5v-371h-139v371q-293 13 -453 172q-66 65 -99 142t-44 187q-5 57 -5 118v472h139v-503q0 -115 22 -189.5t72 -131.5q122 -136 368 -146v970h139z
" />
    <glyph glyph-name="uni03A9" unicode="&#x3a9;" horiz-adv-x="1532" 
d="M1072 120h381v-120h-574v151q130 27 229 103q206 160 206 496q0 275 -136 440q-77 94 -197 144q-102 42 -215 42q-167 0 -302 -88q-246 -161 -246 -537q0 -369 246 -525q86 -54 189 -75v-151h-574v120h381q-97 36 -168 100q-213 193 -213 543q0 312 173 511
q192 222 514 222t514 -222q173 -199 173 -511q0 -236 -100 -405t-281 -238z" />
    <glyph glyph-name="Iotadieresis" unicode="&#x3aa;" horiz-adv-x="492" 
d="M316 1462v-1462h-139v1462h139zM537 1821v-205h-139v205h139zM94 1821v-205h-139v205h139z" />
    <glyph glyph-name="Upsilondieresis" unicode="&#x3ab;" horiz-adv-x="1263" 
d="M701 642v-642h-132v642l-568 820h164l471 -700l465 700h161zM923 1821v-205h-139v205h139zM480 1821v-205h-139v205h139z" />
    <glyph glyph-name="alphatonos" unicode="&#x3ac;" horiz-adv-x="1286" 
d="M987 737l65 319h139l-134 -499l156 -557h-139l-93 335q-67 -140 -116 -204q-124 -160 -320 -160q-154 0 -263 94q-82 71 -128 193t-46 269q0 201 82 342q126 216 382 216q240 0 360 -217q23 -41 55 -131zM933 537q-47 178 -96 260q-104 176 -278 176q-155 0 -237 -132
q-77 -124 -77 -325q0 -239 109 -353q77 -80 186 -80q172 0 288 193q54 89 105 261zM536 1175l-21 347h147l-21 -347h-105z" />
    <glyph glyph-name="epsilontonos" unicode="&#x3ad;" horiz-adv-x="1025" 
d="M607 593v-102h-94l-76 1q-102 0 -159 -51q-62 -54 -62 -141q0 -96 76 -156t198 -60q254 0 338 243h131q-116 -356 -470 -356q-190 0 -303 101q-99 89 -99 223q0 150 124 219q26 14 82 31q-80 31 -123.5 93.5t-43.5 147.5q0 156 136 239q97 60 237 60q181 0 298.5 -95
t140.5 -259h-130q-19 99 -80 158q-87 84 -235 84q-92 0 -151 -36q-87 -53 -87 -158q0 -56 29 -100.5t79 -65.5q47 -20 149 -20h95zM471 1175l-21 347h147l-21 -347h-105z" />
    <glyph glyph-name="etatonos" unicode="&#x3ae;" horiz-adv-x="1167" 
d="M168 1056h129v-159q60 86 116 124q93 64 230 64q186 0 283 -110q40 -45 56.5 -103t16.5 -150v-1059h-129v1029q0 82 -11.5 128t-40.5 79q-65 74 -192 74q-146 0 -241 -94q-88 -86 -88 -259v-620h-129v1056zM531 1175l-21 347h147l-21 -347h-105z" />
    <glyph glyph-name="iotatonos" unicode="&#x3af;" horiz-adv-x="465" 
d="M297 1056v-1056h-129v1056h129zM180 1175l-21 347h147l-21 -347h-105z" />
    <glyph glyph-name="upsilondieresistonos" unicode="&#x3b0;" horiz-adv-x="1167" 
d="M870 1056h129v-681q0 -152 -47 -233q-99 -171 -368 -171q-222 0 -333 122q-45 50 -64 114.5t-19 167.5v681h129v-673q0 -143 63 -216q71 -83 225 -83q145 0 215 73.5t70 225.5v673zM259 1262v186h132v-186h-132zM776 1262v186h132v-186h-132zM531 1175l-21 347h147
l-21 -347h-105z" />
    <glyph glyph-name="alpha" unicode="&#x3b1;" horiz-adv-x="1286" 
d="M987 737l65 319h139l-134 -499l156 -557h-139l-93 335q-67 -140 -116 -204q-124 -160 -320 -160q-154 0 -263 94q-82 71 -128 193t-46 269q0 201 82 342q126 216 382 216q240 0 360 -217q23 -41 55 -131zM933 537q-47 178 -96 260q-104 176 -278 176q-155 0 -237 -132
q-77 -124 -77 -325q0 -239 109 -353q77 -80 186 -80q172 0 288 193q54 89 105 261z" />
    <glyph glyph-name="beta" unicode="&#x3b2;" horiz-adv-x="1202" 
d="M787 792q113 -28 165 -65q150 -105 150 -310q0 -151 -81 -274q-114 -172 -346 -172q-192 0 -310 112q-18 17 -68 80v-500h-129v1284q0 150 26 244q49 173 207 244q94 42 211 42q185 0 301 -103q115 -103 115 -268q0 -181 -132 -269q-35 -24 -109 -45zM567 724v101h45
q130 0 208.5 73t78.5 196q0 130 -88 205q-76 65 -200 65q-87 0 -158 -37.5t-107 -102.5q-49 -87 -49 -269v-404q0 -130 33 -233q33 -102 117 -165q92 -70 213 -70q171 0 257 139q56 89 56 206q0 145 -91.5 220.5t-266.5 75.5h-48z" />
    <glyph glyph-name="gamma" unicode="&#x3b3;" horiz-adv-x="994" 
d="M561 -16v-321h-129v321l-423 1072h150l209 -560q11 -31 37 -94q40 -100 92 -261q17 65 94 257l41 98l207 560h144z" />
    <glyph glyph-name="delta" unicode="&#x3b4;" horiz-adv-x="1217" 
d="M618 1076l-359 284v98h790v-109h-594l408 -323q128 -101 187.5 -220.5t59.5 -275.5q0 -256 -143 -410q-137 -149 -358 -149t-359 149q-142 154 -142 408q0 199 89 340q63 99 162.5 154t216.5 55q12 0 42 -1zM603 972q-108 0 -194 -59q-164 -113 -164 -385q0 -189 86 -309
q46 -65 119 -100.5t159 -35.5q112 0 200 60q78 53 121 153.5t43 229.5q0 191 -86 311q-97 135 -284 135z" />
    <glyph glyph-name="epsilon" unicode="&#x3b5;" horiz-adv-x="1025" 
d="M607 593v-102h-94l-76 1q-102 0 -159 -51q-62 -54 -62 -141q0 -96 76 -156t198 -60q254 0 338 243h131q-116 -356 -470 -356q-190 0 -303 101q-99 89 -99 223q0 150 124 219q26 14 82 31q-80 31 -123.5 93.5t-43.5 147.5q0 156 136 239q97 60 237 60q181 0 298.5 -95
t140.5 -259h-130q-19 99 -80 158q-87 84 -235 84q-92 0 -151 -36q-87 -53 -87 -158q0 -56 29 -100.5t79 -65.5q47 -20 149 -20h95z" />
    <glyph glyph-name="zeta" unicode="&#x3b6;" horiz-adv-x="951" 
d="M770 1349h-616v109h790v-98q-255 -192 -383 -312q-176 -165 -249 -305q-75 -144 -75 -291q0 -181 97 -275t284 -94h102q185 0 185 -120q0 -109 -125 -300h-140q112 179 112 248q0 33 -20 46t-71 13h-61q-197 0 -320 91q-172 126 -172 387q0 219 123 403q79 118 194.5 225
t344.5 273z" />
    <glyph glyph-name="eta" unicode="&#x3b7;" horiz-adv-x="1167" 
d="M168 1056h129v-159q60 86 116 124q93 64 230 64q186 0 283 -110q40 -45 56.5 -103t16.5 -150v-1059h-129v1029q0 82 -11.5 128t-40.5 79q-65 74 -192 74q-146 0 -241 -94q-88 -86 -88 -259v-620h-129v1056z" />
    <glyph glyph-name="theta" unicode="&#x3b8;" horiz-adv-x="1217" 
d="M616 1477q145 0 264 -102t180 -296q50 -158 50 -355q0 -335 -143 -552q-63 -96 -159 -149q-91 -51 -199 -51q-154 0 -272 101t-179 297q-50 158 -50 351q0 344 142 555q135 201 366 201zM973 714h-728q0 -193 51 -348q50 -150 140 -221q77 -61 173 -61q137 0 232 122
q126 161 132 508zM247 815h723q-15 170 -48 267q-49 148 -141 221q-76 61 -172 61q-138 0 -233 -122q-56 -72 -85 -168.5t-44 -258.5z" />
    <glyph glyph-name="iota" unicode="&#x3b9;" horiz-adv-x="465" 
d="M297 1056v-1056h-129v1056h129z" />
    <glyph glyph-name="kappa" unicode="&#x3ba;" horiz-adv-x="1092" 
d="M297 502l564 554h172l-471 -442l490 -614h-158l-419 531l-178 -167v-364h-129v1056h129v-554z" />
    <glyph glyph-name="lambda" unicode="&#x3bb;" horiz-adv-x="948" 
d="M413 1050l-160 408h136l580 -1458h-150l-210 560l-36 96q-68 181 -97 253q-30 -77 -59 -158q-26 -70 -72 -191l-207 -560h-144z" />
    <glyph glyph-name="uni03BC" unicode="&#x3bc;" horiz-adv-x="1100" 
d="M263 39v-376h-129v1393h129v-708q0 -105 28 -157q58 -107 216 -107q147 0 241 92q88 87 88 259v621h129v-1056h-129v159q-46 -67 -80 -97q-102 -91 -261 -91q-78 0 -129.5 15t-102.5 53z" />
    <glyph glyph-name="nu" unicode="&#x3bd;" horiz-adv-x="1018" 
d="M577 0h-138l-417 1056h150l209 -560l36 -96q75 -198 97 -253q28 70 60 158q23 64 72 191l206 560h145z" />
    <glyph glyph-name="xi" unicode="&#x3be;" horiz-adv-x="926" 
d="M512 791q-91 20 -143 62q-105 82 -105 227q0 179 165 269h-300v109h791v-97h-98q-141 0 -203.5 -11t-114.5 -44t-81.5 -91t-29.5 -126q0 -147 117 -216q79 -46 196 -46h43v-109h-124q-159 0 -246 -47q-67 -36 -105.5 -109.5t-38.5 -166.5q0 -157 89.5 -234.5t269.5 -77.5
h103q183 0 183 -124q0 -102 -123 -296h-141q111 177 111 252q0 55 -90 55h-60q-193 0 -301 74q-168 115 -168 346q0 252 201 354q78 39 203 47z" />
    <glyph glyph-name="omicron" unicode="&#x3bf;" horiz-adv-x="1217" 
d="M616 1085q213 0 351 -149q143 -153 143 -408q0 -254 -143 -408q-137 -149 -358 -149t-359 149q-142 154 -142 406q0 256 142 410q137 149 366 149zM603 973q-106 0 -194 -61q-164 -112 -164 -384q0 -189 86 -309q46 -65 119 -100.5t159 -35.5q112 0 200 60
q78 53 121 153.5t43 229.5q0 191 -86 311q-98 136 -284 136z" />
    <glyph glyph-name="rho" unicode="&#x3c1;" horiz-adv-x="1237" 
d="M297 163v-500h-129v817q0 146 22.5 241t75.5 169q138 195 390 195q222 0 354 -161q119 -144 119 -383t-115 -390q-136 -180 -359 -180q-172 0 -289 113q-23 22 -69 79zM644 973q-165 0 -260 -128q-87 -118 -87 -317t87 -317q94 -128 265 -128t265 128q87 118 87 315
q0 202 -87 319q-96 128 -270 128z" />
    <glyph glyph-name="sigma1" unicode="&#x3c2;" horiz-adv-x="1096" 
d="M796 -337h-141q112 181 112 253q0 54 -90 54h-62q-203 0 -330 108q-177 150 -177 446q0 241 125 393q139 168 371 168q176 0 292 -95.5t140 -258.5h-130q-20 101 -80 158q-87 84 -228 84q-177 0 -274 -131q-87 -116 -87 -307q0 -271 153 -384q53 -38 106 -53t138 -15h102
q184 0 184 -122q0 -107 -124 -298z" />
    <glyph glyph-name="sigma" unicode="&#x3c3;" horiz-adv-x="1218" 
d="M1143 1059v-101l-253 18q84 -47 132 -119q88 -134 88 -328q0 -255 -143 -409q-137 -149 -358 -149t-359 149q-142 153 -142 409q0 198 90 339q73 115 182 166.5t277 51.5q112 0 318 -16q111 -8 168 -11zM603 972q-108 0 -194 -59q-164 -113 -164 -385q0 -189 86 -309
q46 -65 119 -100.5t159 -35.5q112 0 200 60q78 53 121 153.5t43 229.5q0 191 -86 311q-97 135 -284 135z" />
    <glyph glyph-name="tau" unicode="&#x3c4;" horiz-adv-x="885" 
d="M507 955v-955h-129v955h-351v101h831v-101h-351z" />
    <glyph glyph-name="upsilon" unicode="&#x3c5;" horiz-adv-x="1167" 
d="M870 1056h129v-681q0 -152 -47 -233q-99 -171 -368 -171q-222 0 -333 122q-45 50 -64 114.5t-19 167.5v681h129v-673q0 -143 63 -216q71 -83 225 -83q145 0 215 73.5t70 225.5v673z" />
    <glyph glyph-name="phi" unicode="&#x3c6;" horiz-adv-x="1384" 
d="M758 -337h-133v307q-110 0 -205 36q-155 57 -237.5 190.5t-82.5 327.5q0 346 239 488l62 -98q-55 -39 -84 -78q-84 -111 -84 -307q0 -213 103 -331t289 -119v1003q66 3 90 3q255 0 393 -118q176 -152 176 -439q0 -355 -258 -494q-119 -64 -268 -64v-307zM758 79
q158 3 255 86q138 119 138 363q0 210 -104 329t-289 119v-897z" />
    <glyph glyph-name="chi" unicode="&#x3c7;" horiz-adv-x="957" 
d="M551 390l413 -727h-149l-338 601l-332 -601h-151l415 727l-372 666h148l295 -536l298 536h150z" />
    <glyph glyph-name="psi" unicode="&#x3c8;" horiz-adv-x="1428" 
d="M785 -337h-129v307q-244 -1 -378 140q-124 133 -118 353v593h129v-595q0 -170 82 -264q96 -111 285 -119v978h129v-978q177 6 271 105t94 278v595h129v-629q0 -209 -133.5 -332.5t-360.5 -124.5v-307z" />
    <glyph glyph-name="omega" unicode="&#x3c9;" horiz-adv-x="1408" 
d="M703 220q-12 -102 -56 -157q-71 -92 -203 -92q-157 0 -250 132q-94 131 -94 385q0 478 320 578l38 -106q-65 -20 -121 -85q-108 -124 -108 -375q0 -181 55 -291q63 -125 176 -125q111 0 156 119q25 63 25 212v126h125v-126q0 -159 30 -227q48 -104 151 -104
q113 0 176 125q56 111 56 292q0 179 -62 302t-168 157l38 106q320 -97 320 -580q0 -279 -116 -412q-90 -103 -229 -103q-113 0 -178 63t-81 186z" />
    <glyph glyph-name="iotadieresis" unicode="&#x3ca;" horiz-adv-x="453" 
d="M292 1056v-1056h-132v1056h132zM126 1448v-190h-125v190h125zM452 1448v-190h-125v190h125z" />
    <glyph glyph-name="upsilondieresis" unicode="&#x3cb;" horiz-adv-x="1133" 
d="M840 1056h132v-679q0 -105 -18.5 -169.5t-62.5 -114.5q-108 -123 -324 -123q-217 0 -325 123q-44 50 -62.5 115t-18.5 169v679h132v-671q0 -142 60 -214q69 -84 213 -84q139 0 206.5 73.5t67.5 224.5v671zM455 1448v-190h-139v190h139zM817 1448v-190h-139v190h139z" />
    <glyph glyph-name="omicrontonos" unicode="&#x3cc;" horiz-adv-x="1217" 
d="M616 1085q213 0 351 -149q143 -153 143 -408q0 -254 -143 -408q-137 -149 -358 -149t-359 149q-142 154 -142 406q0 256 142 410q137 149 366 149zM603 973q-106 0 -194 -61q-164 -112 -164 -384q0 -189 86 -309q46 -65 119 -100.5t159 -35.5q112 0 200 60
q78 53 121 153.5t43 229.5q0 191 -86 311q-98 136 -284 136zM557 1175l-21 347h147l-21 -347h-105z" />
    <glyph glyph-name="upsilontonos" unicode="&#x3cd;" horiz-adv-x="1167" 
d="M870 1056h129v-681q0 -152 -47 -233q-99 -171 -368 -171q-222 0 -333 122q-45 50 -64 114.5t-19 167.5v681h129v-673q0 -143 63 -216q71 -83 225 -83q145 0 215 73.5t70 225.5v673zM531 1175l-21 347h147l-21 -347h-105z" />
    <glyph glyph-name="omegatonos" unicode="&#x3ce;" horiz-adv-x="1408" 
d="M703 220q-12 -102 -56 -157q-71 -92 -203 -92q-157 0 -250 132q-94 131 -94 385q0 478 320 578l38 -106q-65 -20 -121 -85q-108 -124 -108 -375q0 -181 55 -291q63 -125 176 -125q111 0 156 119q25 63 25 212v126h125v-126q0 -159 30 -227q48 -104 151 -104
q113 0 176 125q56 111 56 292q0 179 -62 302t-168 157l38 106q320 -97 320 -580q0 -279 -116 -412q-90 -103 -229 -103q-113 0 -178 63t-81 186zM651 1175l-21 347h147l-21 -347h-105z" />
    <glyph glyph-name="uni03D1" unicode="&#x3d1;" horiz-adv-x="1133" 
d="M33 583h211q7 -214 34 -294q65 -195 256 -195q227 0 286 270q21 92 23 316v13h-35q-264 0 -427 106q-201 130 -201 349q0 164 117 258q91 74 227 74q192 0 313 -135q81 -90 111 -200.5t36 -336.5q55 1 90 4v-112q-33 -3 -91 -4q0 -194 -21 -318q-20 -125 -83 -229
q-109 -182 -350 -182q-389 0 -411 508h-85v108zM843 806l1 96q0 233 -102 359q-81 99 -220 99q-81 0 -137 -48q-70 -61 -70 -162q0 -89 53 -166q57 -82 172.5 -130.5t255.5 -48.5z" />
    <glyph glyph-name="uni03D5" unicode="&#x3d5;" horiz-adv-x="1339" 
d="M736 -336h-135v307q-142 -1 -258 64q-250 138 -250 495t250 495q116 65 258 64v373h135v-373q142 1 258 -64q250 -138 250 -495t-250 -495q-116 -65 -258 -64v-307zM601 84v892q-144 1 -240 -86q-133 -119 -133 -360q0 -207 100.5 -327t272.5 -119zM736 84q144 -1 240 86
q133 119 133 360q0 207 -100 327t-273 119v-892z" />
    <glyph glyph-name="uni040d" unicode="&#x400;" horiz-adv-x="1286" 
d="M1193 1462v-120h-876v-525h820v-120h-820v-577h885v-120h-1024v1462h1015zM390 1860h168l228 -276h-108z" />
    <glyph glyph-name="afii10023" unicode="&#x401;" horiz-adv-x="1214" 
d="M1158 1462v-120h-876v-525h820v-120h-820v-577h885v-120h-1024v1462h1015zM946 1821v-205h-139v205h139zM503 1821v-205h-139v205h139z" />
    <glyph glyph-name="afii10051" unicode="&#x402;" horiz-adv-x="1536" 
d="M1189 1462v-120h-601v-510q134 201 381 201q219 0 344 -141q129 -145 129 -424q0 -286 -113 -453q-133 -197 -410 -197q-21 0 -64 2v121q33 -2 49 -2q207 0 305 147q94 141 94 377q0 232 -95 343q-91 107 -248 107q-189 0 -294 -146q-78 -109 -78 -321v-446h-139v1342
h-439v120h1179z" />
    <glyph glyph-name="afii10052" unicode="&#x403;" horiz-adv-x="1063" 
d="M1051 1342h-769v-1342h-139v1462h908v-120zM925 1860l-289 -276h-107l227 276h169z" />
    <glyph glyph-name="afii10053" unicode="&#x404;" horiz-adv-x="1442" 
d="M226 817h656v-120h-659q8 -206 86 -348q70 -128 185.5 -195.5t262.5 -67.5q206 0 333.5 124.5t154.5 349.5h136q-18 -218 -140 -372q-176 -222 -488 -222q-331 0 -516 245q-154 203 -154 517q0 338 191 557q185 211 492 211q290 0 462 -186q118 -128 136 -287h-139
q-25 124 -109 212q-134 141 -355 141q-322 0 -465 -297q-52 -108 -70 -262z" />
    <glyph glyph-name="afii10054" unicode="&#x405;" horiz-adv-x="1290" 
d="M1161 1041h-134q-15 169 -111 249q-108 90 -295 90q-160 0 -254 -63q-111 -76 -111 -217q0 -124 89 -179q75 -45 305 -98q174 -40 248 -63t129 -55q181 -103 181 -307q0 -207 -166 -330q-139 -102 -385 -102q-274 0 -427 132q-75 65 -116 162t-41 208v16h134
q5 -167 81 -258q119 -143 379 -143q207 0 309 89q97 84 97 213q0 161 -171 231q-77 33 -322 90q-146 34 -213 58t-120 60q-127 89 -127 268q0 187 137 295.5t374 108.5q244 0 383 -119t147 -336z" />
    <glyph glyph-name="afii10055" unicode="&#x406;" horiz-adv-x="455" 
d="M297 1462v-1462h-139v1462h139z" />
    <glyph glyph-name="afii10056" unicode="&#x407;" horiz-adv-x="455" 
d="M297 1462v-1462h-139v1462h139zM518 1821v-205h-139v205h139zM75 1821v-205h-139v205h139z" />
    <glyph glyph-name="afii10057" unicode="&#x408;" horiz-adv-x="1024" 
d="M876 1462v-1030q0 -118 -14 -185.5t-51 -125.5q-34 -53 -68.5 -78.5t-94.5 -41.5q-100 -27 -200 -27q-128 0 -223 52t-139 145t-44 262q0 21 1 54h134v-15v-33q0 -145 33 -213q64 -132 253 -132q158 0 226 100q48 71 48 255v1013h139z" />
    <glyph glyph-name="afii10058" unicode="&#x409;" 
d="M1027 0v1342h-488q-47 -572 -86.5 -814.5t-103.5 -354.5q-57 -101 -138.5 -144.5t-216.5 -45.5v120h19q116 0 183 82t105 270q46 225 94 1007h771v-623h349q207 0 321 -81q162 -114 162 -346q0 -228 -167 -339q-61 -41 -135 -57t-198 -16h-471zM1166 120h302
q108 0 163 10.5t102 39.5q126 78 126 249q0 168 -130 249q-45 28 -101.5 39.5t-152.5 11.5h-309v-599z" />
    <glyph glyph-name="afii10059" unicode="&#x40a;" 
d="M1001 0v714h-713v-714h-139v1462h139v-628h713v628h139v-628h376q207 0 321 -80q162 -114 162 -344q0 -227 -167 -338q-61 -40 -134.5 -56t-198.5 -16h-498zM1140 120h329q108 0 163.5 10.5t101.5 38.5q126 78 126 247q0 167 -130 248q-44 27 -101 38.5t-152 11.5h-337
v-594z" />
    <glyph glyph-name="afii10060" unicode="&#x40b;" horiz-adv-x="1536" 
d="M1194 1462v-120h-640v-510q134 201 384 201q222 0 346 -129t124 -359v-545h-139v454q0 127 -10.5 189t-41.5 120q-38 71 -114.5 110.5t-174.5 39.5q-191 0 -296 -146q-78 -109 -78 -321v-446h-139v1342h-388v120h1167z" />
    <glyph glyph-name="afii10061" unicode="&#x40c;" horiz-adv-x="1327" 
d="M640 864l672 -864h-171l-600 771l-248 -227v-544h-139v1462h139v-766l822 766h183zM1006 1860l-289 -276h-107l227 276h169z" />
    <glyph glyph-name="uni045D" unicode="&#x40d;" horiz-adv-x="1505" 
d="M177 0v1462h139v-1260l858 1260h155v-1462h-139v1260l-858 -1260h-155zM453 1860h168l228 -276h-108z" />
    <glyph glyph-name="afii10062" unicode="&#x40e;" horiz-adv-x="1214" 
d="M1261 1462l-833 -1462h-148l247 426l-565 1036h167l475 -913l497 913h160zM907 1860q-14 -92 -52 -149q-80 -120 -247 -120q-127 0 -206 72.5t-87 196.5h81q12 -61 40 -98q60 -77 176 -77q175 0 215 175h80z" />
    <glyph glyph-name="afii10145" unicode="&#x40f;" horiz-adv-x="1442" 
d="M651 0h-507v1462h139v-1342h876v1342h139v-1462h-508v-263h-139v263z" />
    <glyph glyph-name="afii10017" unicode="&#x410;" horiz-adv-x="1290" 
d="M726 1467l584 -1467h-156l-176 460h-669l-180 -460h-149l591 1467h155zM935 573l-210 541q-47 122 -79 222q-44 -125 -80 -215l-215 -548h584z" />
    <glyph glyph-name="afii10018" unicode="&#x411;" horiz-adv-x="1366" 
d="M320 1342v-503h463q207 0 321 -81q162 -114 162 -346q0 -228 -167 -339q-60 -41 -134 -57t-199 -16h-585v1462h913v-120h-774zM320 120h417q107 0 162.5 10.5t101.5 39.5q126 78 126 249q0 168 -130 249q-45 28 -101.5 39.5t-151.5 11.5h-424v-599z" />
    <glyph glyph-name="afii10019" unicode="&#x412;" horiz-adv-x="1366" 
d="M145 1462h591q114 0 185.5 -13t128.5 -45q86 -46 134 -127.5t48 -179.5q0 -120 -68.5 -207t-186.5 -116q96 -20 149 -52q163 -98 163 -304q0 -171 -112 -284q-71 -71 -165.5 -102.5t-239.5 -31.5h-627v1462zM284 1342v-528h390q177 0 257 29q75 28 118.5 91t43.5 145
q0 164 -144 229q-74 34 -240 34h-425zM284 703v-583h436q212 0 303 56q127 78 127 240q0 172 -154 244q-92 43 -286 43h-426z" />
    <glyph glyph-name="afii10020" unicode="&#x413;" horiz-adv-x="1063" 
d="M1048 1342h-769v-1342h-139v1462h908v-120z" />
    <glyph glyph-name="afii10021" unicode="&#x414;" horiz-adv-x="1442" 
d="M381 1462h922v-1342h132v-383h-139v263h-1194v-263h-139v383h35q104 0 170 58q87 77 128 323.5t85 960.5zM264 120h900v1222h-637q-59 -707 -112 -937q-47 -202 -151 -285z" />
    <glyph glyph-name="afii10022" unicode="&#x415;" horiz-adv-x="1214" 
d="M1158 1462v-120h-876v-525h820v-120h-820v-577h885v-120h-1024v1462h1015z" />
    <glyph glyph-name="afii10024" unicode="&#x416;" horiz-adv-x="2028" 
d="M944 1462h139v-636h204l451 636h160l-480 -675l586 -787h-175l-527 706h-219v-706h-139v706h-219l-526 -706h-176l586 787l-480 675h160l451 -636h204v636z" />
    <glyph glyph-name="afii10025" unicode="&#x417;" horiz-adv-x="1290" 
d="M72 560h137q21 -185 102 -297q129 -177 380 -177q175 0 275 100q102 102 102 251q0 170 -144 229q-76 31 -214 31h-166v120h153q108 0 165.5 15t104.5 55q83 71 83 194q0 143 -105 223q-98 73 -266 73q-179 0 -298 -93.5t-153 -259.5h-138q16 171 147 305
q84 87 190.5 127t254.5 40q259 0 388 -121q121 -114 121 -293q0 -158 -96 -251q-50 -48 -147 -69q112 -24 172 -89q90 -96 90 -250q0 -200 -130 -328q-69 -67 -157 -98t-209 -31q-136 0 -229 26.5t-171 86.5q-107 82 -169.5 207t-72.5 274z" />
    <glyph glyph-name="afii10026" unicode="&#x418;" horiz-adv-x="1442" 
d="M145 0v1462h139v-1260l858 1260h155v-1462h-139v1260l-858 -1260h-155z" />
    <glyph glyph-name="afii10027" unicode="&#x419;" horiz-adv-x="1442" 
d="M145 0v1462h139v-1260l858 1260h155v-1462h-139v1260l-858 -1260h-155zM1017 1860q-14 -92 -52 -149q-80 -120 -247 -120q-127 0 -206 72.5t-87 196.5h81q12 -61 40 -98q60 -77 176 -77q175 0 215 175h80z" />
    <glyph glyph-name="afii10028" unicode="&#x41a;" horiz-adv-x="1327" 
d="M644 864l672 -864h-171l-600 771l-248 -227v-544h-139v1462h139v-766l822 766h183z" />
    <glyph glyph-name="afii10029" unicode="&#x41b;" horiz-adv-x="1366" 
d="M1093 1342h-533l-8 -96q-48 -531 -65 -661.5t-53 -251.5q-40 -137 -100.5 -215t-150.5 -112q-60 -22 -168 -23v120h18q117 0 184 81.5t105 270.5q46 225 94 1007h816v-1462h-139v1342z" />
    <glyph glyph-name="afii10030" unicode="&#x41c;" horiz-adv-x="1706" 
d="M1566 1462v-1462h-133v884q0 270 16 460l-15 -43l-26 -71q-42 -120 -55 -152l-431 -1078h-126l-439 1065q-42 102 -95 271q14 -299 14 -449v-887h-133v1462h191l425 -1043q54 -132 100 -275q59 176 97 272l418 1046h192z" />
    <glyph glyph-name="afii10031" unicode="&#x41d;" horiz-adv-x="1442" 
d="M1298 1462v-1462h-139v706h-876v-706h-139v1462h139v-636h876v636h139z" />
    <glyph glyph-name="afii10032" unicode="&#x41e;" horiz-adv-x="1518" 
d="M769 1496q294 0 488 -215q191 -211 191 -554q0 -303 -154 -505q-194 -256 -537 -256q-339 0 -533 256q-154 203 -154 507q0 347 189 552q197 215 510 215zM751 1376q-232 0 -388 -176q-154 -173 -154 -464q0 -275 131 -448q80 -105 204 -159q100 -43 215 -43
q240 0 393 171q157 175 157 469q0 292 -151 469q-154 181 -407 181z" />
    <glyph glyph-name="afii10033" unicode="&#x41f;" horiz-adv-x="1442" 
d="M1159 1342h-876v-1342h-139v1462h1154v-1462h-139v1342z" />
    <glyph glyph-name="afii10034" unicode="&#x420;" horiz-adv-x="1290" 
d="M149 1462h585q125 0 199 -16t134 -57q167 -111 167 -339q0 -232 -162 -346q-114 -81 -321 -81h-463v-623h-139v1462zM288 1342v-599h424q95 0 151.5 11.5t101.5 39.5q130 81 130 249q0 171 -126 249q-46 29 -101.5 39.5t-162.5 10.5h-417z" />
    <glyph glyph-name="afii10035" unicode="&#x421;" horiz-adv-x="1442" 
d="M1381 560q-18 -217 -140 -372q-176 -222 -488 -222q-331 0 -516 245q-154 204 -154 518q0 337 191 556q185 211 491 211q290 0 462 -186q118 -128 136 -286h-138q-26 123 -110 211q-133 141 -355 141q-273 0 -421 -220q-117 -175 -117 -426q0 -259 115 -427
q149 -217 420 -217q205 0 333 124t154 350h137z" />
    <glyph glyph-name="afii10036" unicode="&#x422;" horiz-adv-x="1139" 
d="M1153 1462v-120h-513v-1342h-139v1342h-515v120h1167z" />
    <glyph glyph-name="afii10037" unicode="&#x423;" horiz-adv-x="1214" 
d="M1261 1462l-833 -1462h-148l247 426l-565 1036h167l475 -913l497 913h160z" />
    <glyph glyph-name="afii10038" unicode="&#x424;" horiz-adv-x="1536" 
d="M702 -170v242q-250 4 -410 125q-131 100 -194 260q-49 127 -49 274q0 211 97 372q169 282 556 287v242h133v-242q250 -4 410 -125q131 -99 194 -260q49 -128 49 -274q0 -210 -97 -372q-169 -282 -556 -287v-242h-133zM702 192v1078q-211 -2 -335 -99q-179 -140 -179 -440
q0 -259 133.5 -399t380.5 -140zM835 192q126 0 222 36q168 63 242 234q50 117 50 269q0 258 -133 397.5t-381 141.5v-1078z" />
    <glyph glyph-name="afii10039" unicode="&#x425;" horiz-adv-x="1176" 
d="M1173 1462l-501 -710l528 -752h-167l-367 525q-12 18 -37 58q-18 29 -42 66l-84 -124l-369 -525h-159l530 752l-498 710h165l326 -468q22 -32 90 -146q91 140 96 147l333 467h156z" />
    <glyph glyph-name="afii10040" unicode="&#x426;" horiz-adv-x="1479" 
d="M1308 0h-1146v1462h139v-1342h876v1342h139v-1342h131v-383h-139v263z" />
    <glyph glyph-name="afii10041" unicode="&#x427;" horiz-adv-x="1311" 
d="M1198 1462v-1462h-139v604q-51 -84 -127 -137q-143 -101 -357 -101q-270 0 -407 179q-99 129 -99 319v87v511h139v-495q0 -227 66 -325q103 -154 323 -154q128 0 231 51.5t160 143.5q41 66 56 138.5t15 208.5v432h139z" />
    <glyph glyph-name="afii10042" unicode="&#x428;" horiz-adv-x="2138" 
d="M1810 120v1342h139v-1462h-1759v1462h139v-1342h671v1342h139v-1342h671z" />
    <glyph glyph-name="afii10043" unicode="&#x429;" horiz-adv-x="2175" 
d="M1960 0h-1752v1462h139v-1342h671v1342h139v-1342h671v1342h139v-1342h132v-383h-139v263z" />
    <glyph glyph-name="afii10044" unicode="&#x42a;" horiz-adv-x="1608" 
d="M-9 1462h636v-623h448q207 0 321 -81q162 -114 162 -346q0 -228 -167 -339q-61 -41 -134.5 -57t-198.5 -16h-570v1342h-497v120zM627 120h402q107 0 162.5 10.5t101.5 39.5q126 78 126 249q0 168 -130 249q-44 28 -101 39.5t-152 11.5h-409v-599z" />
    <glyph glyph-name="afii10045" unicode="&#x42b;" horiz-adv-x="1722" 
d="M162 0v1462h139v-623h448q208 0 322 -81q162 -114 162 -346q0 -228 -167 -339q-61 -41 -135 -57t-199 -16h-570zM301 120h402q108 0 163 10.5t102 39.5q126 78 126 249q0 168 -130 249q-45 28 -102 39.5t-152 11.5h-409v-599zM1559 1462v-1462h-139v1462h139z" />
    <glyph glyph-name="afii10046" unicode="&#x42c;" horiz-adv-x="1290" 
d="M157 0v1462h139v-623h448q208 0 322 -81q162 -114 162 -346q0 -228 -167 -339q-61 -41 -135 -57t-199 -16h-570zM296 120h402q108 0 163 10.5t102 39.5q126 78 126 249q0 168 -130 249q-45 28 -102 39.5t-152 11.5h-409v-599z" />
    <glyph glyph-name="afii10047" unicode="&#x42d;" horiz-adv-x="1442" 
d="M1216 817q-15 162 -83 288q-146 271 -451 271q-181 0 -305.5 -94.5t-159.5 -258.5h-138q18 172 154 306q170 167 443 167q323 0 511 -235q172 -215 172 -533q0 -313 -154 -517q-185 -245 -516 -245q-330 0 -507 248q-104 146 -121 346h137q22 -186 108 -297
q136 -177 379 -177q219 0 361 145q157 160 174 466h-659v120h655z" />
    <glyph glyph-name="afii10048" unicode="&#x42e;" 
d="M619 706h-354v-706h-139v1462h139v-636h358q20 218 119 370q95 146 246 225q143 75 320 75q305 0 498 -215q191 -212 191 -554q0 -303 -154 -505q-194 -256 -537 -256q-302 0 -491.5 204t-195.5 536zM1300 1376q-232 0 -388 -176q-154 -173 -154 -464q0 -275 131 -448
q80 -105 204 -159q99 -43 215 -43q241 0 393 171q157 175 157 469q0 291 -151 469q-154 181 -407 181z" />
    <glyph glyph-name="afii10049" unicode="&#x42f;" horiz-adv-x="1290" 
d="M1151 1462v-1462h-139v653h-387q-124 0 -194.5 -18.5t-111.5 -60.5q-47 -49 -64.5 -121.5t-24.5 -250.5q-7 -158 -37 -202h-157q32 41 42.5 97t26.5 279q10 137 49 202q62 104 208 128q-137 34 -211.5 128.5t-74.5 235.5q0 221 171 326q108 66 302 66h602zM1012 1342
h-418q-159 0 -239 -41q-140 -72 -140 -242q0 -167 128 -240q91 -53 299 -53h370v576z" />
    <glyph glyph-name="afii10065" unicode="&#x430;" horiz-adv-x="1063" 
d="M1045 107v-99q-48 -17 -103 -17q-75 0 -106 43.5t-31 150.5q-51 -80 -105 -123q-118 -93 -294 -93q-153 0 -242 71q-103 80 -103 228q0 208 199 285q57 23 108.5 31t262.5 29q96 9 132 38t36 97q0 123 -68 176q-70 56 -208 56q-136 0 -205.5 -60t-82.5 -190h-124
q8 172 119 264.5t308 92.5q216 0 322 -108q37 -39 51 -91.5t14 -157.5l-1 -322q1 -194 2.5 -229t7.5 -51q13 -29 62 -29q22 0 49 8zM799 576q-33 -28 -77 -39.5t-214 -34.5t-241 -72q-75 -52 -75 -150q0 -94 66 -149q67 -57 180 -57q157 0 259 93t102 237v172z" />
    <glyph glyph-name="afii10066" unicode="&#x431;" horiz-adv-x="1139" 
d="M736 1548h128v-24q0 -149 -75 -213q-34 -28 -73.5 -41t-193.5 -46q-96 -21 -151 -57.5t-86 -99.5q-19 -39 -42 -133q37 45 79 73q118 80 268 80q143 0 261 -78q222 -147 222 -484q0 -265 -143 -414q-135 -142 -355 -142q-240 0 -377 165q-69 81 -94 178q-31 116 -31 254
q0 213 47.5 393.5t123.5 258.5q71 72 186 105q30 9 166 37q75 15 107.5 51t32.5 105v32zM570 980q-159 0 -261 -119q-105 -122 -105 -333q0 -212 102 -333q100 -119 271 -119q161 0 258 111q108 124 108 338q0 206 -97 329q-100 126 -276 126z" />
    <glyph glyph-name="afii10067" unicode="&#x432;" horiz-adv-x="1063" 
d="M145 1056h427q151 0 227 -42q62 -34 96.5 -92.5t34.5 -129.5q0 -86 -50 -149.5t-134 -82.5q225 -52 225 -258q0 -88 -43 -157.5t-121 -107.5q-76 -37 -209 -37h-453v1056zM274 949v-349h258q116 0 167 19q48 18 76.5 60t28.5 96q0 108 -92 152q-46 22 -152 22h-286z
M274 493v-386h286q139 0 199 37q83 52 83 160q0 98 -68.5 143.5t-213.5 45.5h-286z" />
    <glyph glyph-name="afii10068" unicode="&#x433;" horiz-adv-x="819" 
d="M829 1056v-107h-576v-949h-129v1056h705z" />
    <glyph glyph-name="afii10069" unicode="&#x434;" horiz-adv-x="1139" 
d="M310 1056h692v-949h114v-370h-129v263h-883v-263h-129v370h36q141 0 191 158t108 791zM226 107h647v842h-444q-46 -469 -69 -582q-41 -200 -134 -260z" />
    <glyph glyph-name="afii10070" unicode="&#x435;" horiz-adv-x="1063" 
d="M997 348q-20 -101 -63 -172q-125 -207 -386 -207q-238 0 -370 169q-116 150 -116 379q0 254 138 414q136 156 344 156q168 0 288 -103q93 -82 135.5 -198t41.5 -289h-817q3 -108 26 -177q80 -244 332 -244q127 0 209 69t114 203h124zM878 604q-7 134 -62 222
q-95 154 -275 154q-121 0 -210 -73q-113 -93 -138 -303h685z" />
    <glyph glyph-name="afii10072" unicode="&#x436;" horiz-adv-x="1518" 
d="M694 1056h129v-450h135l308 450h153l-348 -488l395 -568h-155l-345 499h-143v-499h-129v499h-143l-345 -499h-155l395 568l-348 488h153l308 -450h135v450z" />
    <glyph glyph-name="afii10073" unicode="&#x437;" horiz-adv-x="993" 
d="M60 377h129q21 -147 106 -224t227 -77q113 0 189 60q82 65 82 174q0 86 -58 136q-64 54 -154 54l-50 -1h-85v107h79h3h7q98 0 140 18q103 44 103 155q0 91 -71.5 146t-188.5 55q-269 0 -320 -258h-130q18 148 106 241q118 124 342 124q195 0 304 -98q88 -80 88 -201
q0 -95 -46.5 -153t-140.5 -82q73 -22 111 -51q91 -71 91 -201q0 -148 -109 -240t-286 -92q-221 0 -342 129q-102 108 -126 279z" />
    <glyph glyph-name="afii10074" unicode="&#x438;" horiz-adv-x="1100" 
d="M119 0v1056h129v-885l588 885h144v-1056h-129v884l-588 -884h-144z" />
    <glyph glyph-name="afii10075" unicode="&#x439;" horiz-adv-x="1100" 
d="M119 0v1056h129v-885l588 885h144v-1056h-129v884l-588 -884h-144zM816 1501q-12 -91 -47 -151q-71 -122 -223 -122q-113 0 -184 73.5t-79 199.5h79q32 -179 193 -179q146 0 182 179h79z" />
    <glyph glyph-name="afii10076" unicode="&#x43a;" horiz-adv-x="1024" 
d="M263 502l564 554h172l-471 -442l490 -614h-158l-419 531l-178 -167v-364h-129v1056h129v-554z" />
    <glyph glyph-name="afii10077" unicode="&#x43b;" horiz-adv-x="1100" 
d="M869 949h-444q-39 -384 -61 -526t-57 -225q-46 -110 -121.5 -160.5t-193.5 -49.5v110q111 -1 168 86q46 69 74.5 242t70.5 630h693v-1056h-129v949z" />
    <glyph glyph-name="afii10078" unicode="&#x43c;" horiz-adv-x="1366" 
d="M137 1056h200l278 -709q38 -98 72 -228q31 123 70 225l272 712h201v-1056h-129v638q0 193 12 333l-11 -33q-36 -113 -59 -174l-289 -764h-134l-296 755q-30 79 -68 210q10 -193 10 -324v-641h-129v1056z" />
    <glyph glyph-name="afii10079" unicode="&#x43d;" horiz-adv-x="1100" 
d="M851 499h-603v-499h-129v1056h129v-450h603v450h129v-1056h-129v499z" />
    <glyph glyph-name="afii10080" unicode="&#x43e;" horiz-adv-x="1139" 
d="M578 1087q229 0 367 -166q124 -147 124 -397q0 -263 -143 -413q-135 -142 -355 -142q-240 0 -377 165q-125 150 -125 393q0 236 118 385q138 175 391 175zM566 980q-158 0 -260 -119q-105 -122 -105 -332q0 -213 102 -334q100 -119 270 -119q162 0 258 111
q108 124 108 338q0 206 -97 329q-100 126 -276 126z" />
    <glyph glyph-name="afii10081" unicode="&#x43f;" horiz-adv-x="1100" 
d="M851 949h-603v-949h-129v1056h861v-1056h-129v949z" />
    <glyph glyph-name="afii10082" unicode="&#x440;" horiz-adv-x="1176" 
d="M249 1056v-201q116 232 377 232q213 0 344 -151q134 -153 134 -411q0 -239 -121 -391q-130 -165 -351 -165q-271 0 -375 228v-589h-129v1448h121zM606 980q-167 0 -264 -129q-90 -119 -90 -325q0 -210 97 -327q102 -123 268 -123q171 0 268 135q89 123 89 312
q0 207 -97 332q-96 125 -271 125z" />
    <glyph glyph-name="afii10083" unicode="&#x441;" horiz-adv-x="1063" 
d="M1009 377q-21 -145 -95 -242q-126 -166 -351 -166q-252 0 -384 189q-103 147 -103 360q0 275 147 428q135 141 345 141q184 0 298 -96.5t135 -268.5h-131q-20 99 -68 157q-82 101 -232 101q-189 0 -286 -150q-78 -122 -78 -302q0 -190 83 -312q96 -140 269 -140
q132 0 216.5 79t104.5 222h130z" />
    <glyph glyph-name="afii10084" unicode="&#x442;" horiz-adv-x="909" 
d="M520 949v-949h-129v949h-351v107h831v-107h-351z" />
    <glyph glyph-name="afii10085" unicode="&#x443;" horiz-adv-x="948" 
d="M948 1056l-415 -1096q-77 -203 -117 -263q-65 -98 -194 -98q-42 0 -86 6l-28 4v114q59 -14 95 -14q57 0 97 37t71 117q31 82 36 93q20 37 20 46q0 3 -1 6l-425 1048h141l287 -727q14 -35 62 -186q42 136 66 199l259 714h132z" />
    <glyph glyph-name="afii10086" unicode="&#x444;" horiz-adv-x="1638" 
d="M755 -392v579q-22 -78 -66 -127q-83 -91 -214 -91q-182 0 -277 153q-101 161 -101 406t101 407q95 152 280 152q103 0 175.5 -53t101.5 -150v578h129v-578q21 71 66 118q83 85 211 85q185 0 280 -152q101 -162 101 -407q0 -244 -101 -406q-95 -153 -277 -153
q-106 0 -178.5 56.5t-101.5 161.5v-579h-129zM486 981q-84 0 -148 -66q-109 -110 -109 -387q0 -200 64 -326q31 -60 83 -93.5t114 -33.5q129 0 197 129q67 129 67 322q0 200 -67 326q-69 129 -201 129zM1145 981q-125 0 -193 -129q-68 -128 -68 -324t68 -324
q67 -129 197 -129q88 0 152 65q109 111 109 385q0 206 -64 329q-67 127 -201 127z" />
    <glyph glyph-name="afii10087" unicode="&#x445;" horiz-adv-x="985" 
d="M944 1056l-376 -493l418 -563h-164l-282 387q-21 30 -52 80q-46 -67 -54 -79l-280 -388h-154l409 554l-378 502h163l229 -309q6 -8 65 -98q50 73 69 98l233 309h154z" />
    <glyph glyph-name="afii10088" unicode="&#x446;" horiz-adv-x="1139" 
d="M969 0h-846v1056h129v-949h603v949h129v-949h114v-370h-129v263z" />
    <glyph glyph-name="afii10089" unicode="&#x447;" horiz-adv-x="1024" 
d="M794 1056h129v-1056h-129v490q-105 -192 -361 -192q-222 0 -319 156q-52 84 -52 250v352h129v-335q0 -147 47 -211q73 -99 224 -99q94 0 167.5 43t114.5 122q29 55 39.5 116t10.5 176v188z" />
    <glyph glyph-name="afii10090" unicode="&#x448;" horiz-adv-x="1616" 
d="M1359 107v949h129v-1056h-1360v1056h129v-949h487v949h129v-949h486z" />
    <glyph glyph-name="afii10091" unicode="&#x449;" horiz-adv-x="1655" 
d="M1483 0h-1345v1056h129v-949h487v949h129v-949h486v949h129v-949h114v-370h-129v263z" />
    <glyph glyph-name="afii10092" unicode="&#x44a;" horiz-adv-x="1251" 
d="M391 949h-386v107h515v-427h309q144 0 225 -49q70 -42 109.5 -112.5t39.5 -153.5q0 -87 -44 -160.5t-120 -113.5t-210 -40h-438v949zM520 522v-415h271q141 0 200 40q84 56 84 167q0 124 -98 177q-58 31 -186 31h-271z" />
    <glyph glyph-name="afii10093" unicode="&#x44b;" horiz-adv-x="1366" 
d="M150 0v1056h129v-427h310q143 0 224 -49q70 -42 109.5 -112.5t39.5 -153.5q0 -87 -44 -160.5t-120 -113.5t-209 -40h-439zM279 522v-415h271q141 0 200 40q83 56 83 167q0 124 -98 177q-57 31 -185 31h-271zM1228 1056v-1056h-129v1056h129z" />
    <glyph glyph-name="afii10094" unicode="&#x44c;" horiz-adv-x="1024" 
d="M150 0v1056h129v-427h310q143 0 224 -49q70 -42 109.5 -112.5t39.5 -153.5q0 -87 -44 -160.5t-120 -113.5t-209 -40h-439zM279 522v-415h271q141 0 200 40q83 56 83 167q0 124 -98 177q-57 31 -185 31h-271z" />
    <glyph glyph-name="afii10095" unicode="&#x44d;" horiz-adv-x="1063" 
d="M855 606q-11 104 -51 183q-95 191 -308 191q-123 0 -199.5 -66t-101.5 -192h-130q18 148 106 241q118 124 326 124q230 0 368 -166q125 -150 125 -403q0 -235 -124 -387q-131 -162 -364 -162q-182 0 -300 108t-145 300h129q15 -106 66 -177q89 -124 255 -124
q156 0 250.5 114t101.5 309h-416v107h412z" />
    <glyph glyph-name="afii10096" unicode="&#x44e;" horiz-adv-x="1556" 
d="M496 499h-245v-499h-129v1056h129v-450h248q16 141 70 240q64 116 176 179q109 62 253 62q236 0 374 -166q124 -148 124 -397q0 -264 -143 -413q-136 -142 -355 -142q-186 0 -314 102q-172 138 -188 428zM993 980q-159 0 -261 -119q-105 -122 -105 -334q0 -213 102 -332
t271 -119q161 0 258 111q108 123 108 337q0 207 -97 330q-100 126 -276 126z" />
    <glyph glyph-name="afii10097" unicode="&#x44f;" horiz-adv-x="1063" 
d="M796 441h-296q-146 0 -194 -34q-44 -30 -59 -80.5t-22 -190.5q-6 -110 -24 -136h-137q31 41 39 172q9 140 19 182t41 77q24 26 50 38.5t82 23.5q-196 61 -196 256q0 198 163 272q77 35 244 35h419v-1056h-129v441zM796 548v401h-299q-129 0 -189 -39q-81 -52 -81 -160
q0 -103 66 -152.5t204 -49.5h299z" />
    <glyph glyph-name="uni0400" unicode="&#x450;" horiz-adv-x="1133" 
d="M1032 348q-20 -101 -63 -172q-125 -207 -386 -207q-238 0 -370 169q-116 150 -116 379q0 254 138 414q136 156 344 156q168 0 288 -103q93 -82 135.5 -198t41.5 -289h-817q3 -108 26 -177q80 -244 332 -244q127 0 209 69t114 203h124zM913 604q-7 134 -62 222
q-95 154 -275 154q-121 0 -210 -73q-113 -93 -138 -303h685zM302 1505h157l206 -291h-104z" />
    <glyph glyph-name="afii10071" unicode="&#x451;" horiz-adv-x="1063" 
d="M997 348q-20 -101 -63 -172q-125 -207 -386 -207q-238 0 -370 169q-116 150 -116 379q0 254 138 414q136 156 344 156q168 0 288 -103q93 -82 135.5 -198t41.5 -289h-817q3 -108 26 -177q80 -244 332 -244q127 0 209 69t114 203h124zM878 604q-7 134 -62 222
q-95 154 -275 154q-121 0 -210 -73q-113 -93 -138 -303h685zM787 1465v-209h-132v209h132zM416 1465v-209h-132v209h132z" />
    <glyph glyph-name="afii10099" unicode="&#x452;" horiz-adv-x="1100" 
d="M111 0v1215h-146v102h146v145h129v-145h351v-102h-351v-232q0 -22 -3 -125q55 113 150.5 171t226.5 58q228 0 327 -156q54 -85 54 -251v-1072h-130v1056q0 147 -49 211q-76 99 -233 99q-202 0 -292 -165q-29 -55 -40 -116.5t-11 -175.5v-517h-129z" />
    <glyph glyph-name="afii10100" unicode="&#x453;" horiz-adv-x="819" 
d="M832 1056v-107h-576v-949h-129v1056h705zM748 1505l-259 -291h-104l205 291h158z" />
    <glyph glyph-name="afii10101" unicode="&#x454;" horiz-adv-x="1063" 
d="M210 606h413v-107h-416q7 -124 44 -212q90 -211 307 -211q133 0 217 79t105 222h129q-21 -145 -94 -242q-126 -166 -351 -166q-253 0 -385 189q-103 147 -103 360q0 274 147 428q135 141 346 141q183 0 297 -96.5t135 -268.5h-131q-19 99 -67 157q-83 101 -233 101
q-103 0 -183.5 -50t-124.5 -141q-44 -90 -52 -183z" />
    <glyph glyph-name="afii10102" unicode="&#x455;" horiz-adv-x="985" 
d="M883 750h-127q-9 84 -40 130q-67 100 -244 100q-142 0 -209 -70q-40 -43 -40 -109q0 -77 58 -114.5t245 -80.5q198 -45 283 -101q52 -34 81.5 -90.5t29.5 -121.5q0 -74 -35 -139t-98 -108q-112 -77 -287 -77q-242 0 -357 141q-73 89 -77 235h125q8 -107 49 -162
q79 -107 263 -107q164 0 242 85q48 51 48 120q0 79 -61.5 122.5t-229.5 83.5q-141 34 -193 50t-93 39q-56 31 -88 87t-32 124q0 164 143 246q94 54 240 54q223 0 329 -123q65 -75 75 -214z" />
    <glyph glyph-name="afii10103" unicode="&#x456;" horiz-adv-x="379" 
d="M254 1462v-206h-129v206h129zM254 1056v-1056h-129v1056h129z" />
    <glyph glyph-name="afii10104" unicode="&#x457;" horiz-adv-x="379" 
d="M254 1056v-1056h-129v1056h129zM441 1465v-209h-132v209h132zM70 1465v-209h-132v209h132z" />
    <glyph glyph-name="afii10105" unicode="&#x458;" horiz-adv-x="379" 
d="M254 1056v-1126q0 -113 -10 -166t-38 -91q-58 -78 -209 -78q-28 0 -62 6v107q30 -3 52 -3q88 0 113 40t25 181v1130h129zM254 1462v-206h-129v206h129z" />
    <glyph glyph-name="afii10106" unicode="&#x459;" horiz-adv-x="1593" 
d="M785 0v949h-339q-38 -385 -60 -526.5t-57 -224.5q-46 -110 -121.5 -160.5t-193.5 -49.5v110h13q137 0 190 158q28 82 52 256.5t58 543.5h587v-427h261q144 0 225 -49q70 -41 109.5 -112t39.5 -154q0 -87 -44 -160.5t-120 -113.5t-210 -40h-390zM914 522v-415h223
q141 0 200 40q84 56 84 167q0 124 -98 177q-58 31 -186 31h-223z" />
    <glyph glyph-name="afii10107" unicode="&#x45a;" horiz-adv-x="1593" 
d="M769 0v509h-523v-509h-129v1056h129v-440h523v440h129v-440h279q144 0 225 -48q70 -40 109.5 -109.5t39.5 -150.5q0 -86 -44 -158t-120 -111t-210 -39h-408zM898 509v-402h241q141 0 200 38q83 55 83 163q0 120 -98 171q-57 30 -185 30h-241z" />
    <glyph glyph-name="afii10108" unicode="&#x45b;" horiz-adv-x="1100" 
d="M111 0v1215h-146v102h146v145h129v-145h351v-102h-351v-232q0 -22 -3 -125q55 113 150.5 171t226.5 58q228 0 327 -156q54 -85 54 -251v-680h-130v664q0 147 -49 211q-76 99 -233 99q-202 0 -292 -165q-29 -54 -40 -116t-11 -176v-517h-129z" />
    <glyph glyph-name="afii10109" unicode="&#x45c;" horiz-adv-x="1024" 
d="M258 502l564 554h172l-471 -442l490 -614h-158l-419 531l-178 -167v-364h-129v1056h129v-554zM821 1505l-259 -291h-104l205 291h158z" />
    <glyph glyph-name="uni0450" unicode="&#x45d;" horiz-adv-x="1200" 
d="M169 0v1056h129v-885l588 885h144v-1056h-129v884l-588 -884h-144zM331 1505h157l206 -291h-104z" />
    <glyph glyph-name="afii10110" unicode="&#x45e;" horiz-adv-x="948" 
d="M948 1056l-415 -1096q-77 -203 -117 -263q-65 -98 -194 -98q-42 0 -86 6l-28 4v114q59 -14 95 -14q57 0 97 37t71 117q31 82 36 93q20 37 20 46q0 3 -1 6l-425 1048h141l287 -727q14 -35 62 -186q42 136 66 199l259 714h132zM746 1501q-12 -91 -47 -151
q-71 -122 -223 -122q-113 0 -184 73.5t-79 199.5h79q32 -179 193 -179q146 0 182 179h79z" />
    <glyph glyph-name="afii10193" unicode="&#x45f;" horiz-adv-x="1100" 
d="M485 0h-366v1056h129v-949h603v949h129v-1056h-366v-263h-129v263z" />
    <glyph glyph-name="afii10050" unicode="&#x490;" horiz-adv-x="1063" 
d="M119 0v1462h823v181h139v-301h-823v-1342h-139z" />
    <glyph glyph-name="afii10098" unicode="&#x491;" horiz-adv-x="819" 
d="M112 0v1056h599v196h129v-303h-599v-949h-129z" />
    <glyph glyph-name="uni0492" unicode="&#x492;" horiz-adv-x="1063" 
d="M321 696v-696h-146v696h-87v124h87v642h851v-124h-705v-518h517v-124h-517z" />
    <glyph glyph-name="uni0493" unicode="&#x493;" horiz-adv-x="934" 
d="M298 575v-575h-129v575h-154v107h154v374h729v-107h-600v-267h345v-107h-345z" />
    <glyph glyph-name="uni0496" unicode="&#x496;" horiz-adv-x="1958" 
d="M911 0v706h-219l-526 -706h-176l586 787l-480 675h160l451 -636h204v636h139v-636h204l452 636h160l-481 -675l497 -667h100v-384h-139v264h-47l-527 706h-219v-706h-139z" />
    <glyph glyph-name="uni0497" unicode="&#x497;" horiz-adv-x="1444" 
d="M657 0v499h-143l-345 -499h-155l395 568l-348 488h153l308 -450h135v450h129v-450h135l308 450h153l-348 -488l329 -472h112v-420h-131v324h-69l-345 499h-144v-499h-129z" />
    <glyph glyph-name="uni049A" unicode="&#x49a;" horiz-adv-x="1377" 
d="M179 0v1462h139v-787q68 67 96 93l755 694h186l-658 -597l610 -764h139v-422h-146v321h-91l-612 770l-279 -254v-516h-139z" />
    <glyph glyph-name="uni049B" unicode="&#x49b;" horiz-adv-x="1059" 
d="M170 0v1056h129v-564l589 564h172l-439 -406l362 -500h123v-474h-131v324h-28h-17l-407 559l-224 -207v-352h-129z" />
    <glyph glyph-name="uni049C" unicode="&#x49c;" horiz-adv-x="1351" 
d="M528 764v-343h-93v343h-114v-764h-146v1462h146v-564h114v268h93v-268h25l574 564h192l-656 -621l668 -841h-179l-587 764h-37z" />
    <glyph glyph-name="uni049D" unicode="&#x49d;" horiz-adv-x="1059" 
d="M343 484h-52v-484h-131v1056h131v-442h52v197h89v-197h24l386 442h165l-458 -493l475 -563h-161l-404 484h-27v-190h-89v190z" />
    <glyph glyph-name="uni04A2" unicode="&#x4a2;" horiz-adv-x="1507" 
d="M1265 0h-73v706h-876v-706h-139v1462h139v-636h876v636h139v-1333h80v-451h-146v322z" />
    <glyph glyph-name="uni04A3" unicode="&#x4a3;" horiz-adv-x="1133" 
d="M972 134h83v-453h-131v319h-83v511h-549v-511h-131v1056h131v-439h549v439h131v-922z" />
    <glyph glyph-name="uni04AE" unicode="&#x4ae;" horiz-adv-x="1273" 
d="M1287 1462l-579 -857v-605h-139v605l-581 857h167l408 -612q36 -54 79 -129q45 79 75 124l410 617h160z" />
    <glyph glyph-name="uni04Af" unicode="&#x4af;" horiz-adv-x="994" 
d="M561 -16v-321h-129v321l-423 1072h150l209 -560q11 -31 37 -94q40 -100 92 -261q17 65 94 257l41 98l207 560h144z" />
    <glyph glyph-name="uni04B0" unicode="&#x4b0;" horiz-adv-x="1248" 
d="M697 432h379v-122h-379v-310h-139v310h-355v122h355v208l-558 822h171l457 -692l452 692h169l-552 -822v-208z" />
    <glyph glyph-name="uni04B1" unicode="&#x4b1;" horiz-adv-x="994" 
d="M561 0v-337h-129v337h-350v107h302l-375 949h150l209 -560q11 -30 37 -94q40 -99 92 -261q17 65 94 257l42 98l206 560h145l-375 -949h302v-107h-350z" />
    <glyph glyph-name="uni04B2" unicode="&#x4b2;" horiz-adv-x="1254" 
d="M1127 0h-56l-366 525q-13 19 -37 58q-20 32 -42 67l-84 -125l-369 -525h-159l530 752l-498 710h165l326 -468q22 -33 90 -146q89 139 95 147l334 467h155l-500 -710l431 -614h131v-459h-146v321z" />
    <glyph glyph-name="uni04B3" unicode="&#x4b3;" horiz-adv-x="977" 
d="M868 140h101v-459h-131v319h-27l-323 453l-319 -453h-161l407 553l-365 503h158l283 -399l285 399h159l-369 -503z" />
    <glyph glyph-name="uni04B6" unicode="&#x4b6;" horiz-adv-x="1438" 
d="M1123 0v604q-51 -84 -127 -137q-143 -101 -357 -101q-269 0 -407 179q-99 129 -99 319v87v511h139v-495q0 -227 66 -325q103 -154 323 -154q128 0 231 51.5t160 143.5q41 66 56 138.5t15 208.5v432h139v-1342h132v-383h-139v263h-132z" />
    <glyph glyph-name="uni04B7" unicode="&#x4b7;" horiz-adv-x="1155" 
d="M856 0v491q-106 -193 -361 -193q-222 0 -319 156q-52 84 -52 250v352h129v-335q0 -147 47 -211q73 -99 224 -99q94 0 167.5 43t114.5 122q29 55 39.5 116t10.5 176v188h129v-949h114v-370h-129v263h-114z" />
    <glyph glyph-name="uni04B8" unicode="&#x4b8;" horiz-adv-x="1438" 
d="M133 1462h139v-429q0 -147 22 -228t78 -141q94 -99 261 -110v288h98v-284q413 60 392 537v367h139v-1462h-139v669q-111 -195 -392 -232v-234h-98v228q-212 4 -344 118q-156 136 -156 380v87v446z" />
    <glyph glyph-name="uni04B9" unicode="&#x4b9;" horiz-adv-x="1155" 
d="M488 298q-189 2 -289 124q-42 51 -58.5 113.5t-16.5 168.5v352h129v-335q0 -96 15.5 -148t55.5 -91q57 -56 164 -70v300h95v-297q288 55 273 453v188h129v-1056h-129v490q-83 -151 -273 -185v-219h-95v212z" />
    <glyph glyph-name="uni04BB" unicode="&#x4bb;" horiz-adv-x="1213" 
d="M297 1462v-479q0 -22 -3 -125q111 229 378 229q227 0 326 -156q30 -47 42 -103.5t12 -147.5v-680h-130v664q0 147 -49 211q-76 99 -233 99q-202 0 -291 -165q-30 -54 -41 -116t-11 -176v-517h-129v1462h129z" />
    <glyph glyph-name="uni04C0" unicode="&#x4c0;" horiz-adv-x="455" 
d="M297 1462v-1462h-139v1462h139z" />
    <glyph glyph-name="uni04CF" unicode="&#x4cf;" horiz-adv-x="455" 
d="M297 1462v-1462h-139v1462h139z" />
    <glyph glyph-name="uni04D8" unicode="&#x4d8;" horiz-adv-x="1583" 
d="M1320 796q-13 175 -76 300q-69 137 -202 211q-117 65 -249 65q-206 0 -373 -146q-43 -37 -116 -118l-111 76q103 120 170 172q182 140 430 140q316 0 506 -230q170 -207 170 -535q0 -327 -170 -534q-190 -230 -508 -230q-216 0 -378 111q-169 115 -248 336
q-51 141 -51 298q0 28 3 84h1203zM262 676q12 -186 76 -310q69 -137 202 -211q116 -64 251 -64q190 0 332 120q177 149 198 465h-1059z" />
    <glyph glyph-name="uni04D9" unicode="&#x4d9;" horiz-adv-x="1133" 
d="M101 708q20 102 63 172q126 207 386 207q238 0 369 -169q117 -150 117 -378q0 -255 -138 -415q-135 -156 -344 -156q-168 0 -288 103q-93 82 -135.5 198t-41.5 289h816q-1 103 -25 177q-80 244 -332 244q-126 0 -209 -69.5t-114 -202.5h-124zM220 452q7 -134 61 -222
q96 -154 276 -154q121 0 210 73q113 94 138 303h-685z" />
    <glyph glyph-name="uni04E2" unicode="&#x4e2;" horiz-adv-x="1505" 
d="M177 0v1462h139v-1260l858 1260h155v-1462h-139v1260l-858 -1260h-155zM1104 1759v-92h-664v92h664z" />
    <glyph glyph-name="uni04E3" unicode="&#x4e3;" horiz-adv-x="1200" 
d="M169 0v1056h129v-885l588 885h144v-1056h-129v884l-588 -884h-144zM888 1408v-92h-576v92h576z" />
    <glyph glyph-name="uni04E8" unicode="&#x4e8;" horiz-adv-x="1581" 
d="M801 1496q294 0 488 -215q191 -211 191 -554q0 -303 -154 -505q-194 -256 -537 -256q-339 0 -533 256q-154 203 -154 506q0 348 189 553q198 215 510 215zM1340 700h-1098q8 -190 76 -326q74 -145 211 -222q119 -66 262 -66q241 0 389.5 166.5t159.5 447.5zM245 820h1091
q-17 172 -90 297q-74 125 -195 194q-116 65 -260 65q-189 0 -328 -111q-196 -156 -218 -445z" />
    <glyph glyph-name="uni04E9" unicode="&#x4e9;" horiz-adv-x="1195" 
d="M606 1087q229 0 367 -166q124 -147 124 -396q0 -264 -143 -414q-135 -142 -355 -142q-240 0 -377 165q-125 150 -125 393q0 236 118 385q138 175 391 175zM230 482q11 -143 63 -233q47 -82 127.5 -127.5t180.5 -45.5q159 0 253.5 105t111.5 301h-736zM964 589
q-12 125 -58 210q-46 86 -126.5 133.5t-180.5 47.5q-155 0 -253 -104t-115 -287h733z" />
    <glyph glyph-name="uni04EE" unicode="&#x4ee;" horiz-adv-x="1266" 
d="M1287 1462l-833 -1462h-148l247 426l-565 1036h167l475 -913l497 913h160zM970 1759v-92h-664v92h664z" />
    <glyph glyph-name="uni04EF" unicode="&#x4ef;" horiz-adv-x="973" 
d="M960 1056l-415 -1096q-77 -203 -117 -263q-65 -98 -194 -98q-42 0 -86 6l-28 4v114q59 -14 95 -14q57 0 97 37t71 117q31 82 36 93q20 37 20 46q0 3 -1 6l-425 1048h141l287 -727q14 -35 62 -186q42 136 66 199l259 714h132zM774 1408v-92h-576v92h576z" />
    <glyph glyph-name="uni1E1E" unicode="&#x1e1e;" horiz-adv-x="1151" 
d="M1112 1462v-120h-796v-525h708v-120h-708v-697h-139v1462h935zM715 1821v-205h-139v205h139z" />
    <glyph glyph-name="Wgrave" unicode="&#x1e80;" horiz-adv-x="1915" 
d="M1885 1462l-405 -1462h-151l-297 1029q-48 167 -75 302q-31 -129 -79 -297l-293 -1034h-152l-403 1462h146l272 -1014q43 -161 68 -303q23 123 74 303l289 1014h159l296 -1029q41 -139 70 -288q27 144 65 287l277 1030h139zM642 1860h168l228 -276h-108z" />
    <glyph glyph-name="wgrave" unicode="&#x1e81;" horiz-adv-x="1525" 
d="M1508 1056l-343 -1056h-140l-209 694q-22 74 -53 208q-33 -137 -53 -206l-206 -696h-143l-344 1056h141l200 -644q27 -85 75 -273q54 231 69 279l189 638h148l200 -670q22 -71 61 -245q38 156 64 241l210 674h134zM475 1505h157l206 -291h-104z" />
    <glyph glyph-name="Wacute" unicode="&#x1e82;" horiz-adv-x="1915" 
d="M1885 1462l-405 -1462h-151l-297 1029q-48 167 -75 302q-31 -129 -79 -297l-293 -1034h-152l-403 1462h146l272 -1014q43 -161 68 -303q23 123 74 303l289 1014h159l296 -1029q41 -139 70 -288q27 144 65 287l277 1030h139zM1270 1860l-289 -276h-107l227 276h169z" />
    <glyph glyph-name="wacute" unicode="&#x1e83;" horiz-adv-x="1525" 
d="M1508 1056l-343 -1056h-140l-209 694q-22 74 -53 208q-33 -137 -53 -206l-206 -696h-143l-344 1056h141l200 -644q27 -85 75 -273q54 231 69 279l189 638h148l200 -670q22 -71 61 -245q38 156 64 241l210 674h134zM1029 1505l-259 -291h-104l205 291h158z" />
    <glyph glyph-name="Wdieresis" unicode="&#x1e84;" horiz-adv-x="1915" 
d="M1885 1462l-405 -1462h-151l-297 1029q-48 167 -75 302q-31 -129 -79 -297l-293 -1034h-152l-403 1462h146l272 -1014q43 -161 68 -303q23 123 74 303l289 1014h159l296 -1029q41 -139 70 -288q27 144 65 287l277 1030h139zM1249 1821v-205h-139v205h139zM806 1821v-205
h-139v205h139z" />
    <glyph glyph-name="wdieresis" unicode="&#x1e85;" horiz-adv-x="1525" 
d="M1508 1056l-343 -1056h-140l-209 694q-22 74 -53 208q-33 -137 -53 -206l-206 -696h-143l-344 1056h141l200 -644q27 -85 75 -273q54 231 69 279l189 638h148l200 -670q22 -71 61 -245q38 156 64 241l210 674h134zM1014 1465v-209h-132v209h132zM643 1465v-209h-132v209
h132z" />
    <glyph glyph-name="Adotbelow" unicode="&#x1ea0;" horiz-adv-x="1367" 
d="M765 1467l584 -1467h-156l-176 460h-669l-180 -460h-149l591 1467h155zM974 573l-210 541q-47 122 -79 222q-44 -125 -80 -215l-215 -548h584zM752 -131v-205h-139v205h139z" />
    <glyph glyph-name="adotbelow" unicode="&#x1ea1;" horiz-adv-x="1095" 
d="M1055 107v-99q-48 -17 -103 -17q-75 0 -106 43.5t-31 150.5q-51 -80 -105 -123q-118 -93 -294 -93q-153 0 -242 71q-103 80 -103 228q0 208 199 285q57 23 108.5 31t262.5 29q96 9 132 38t36 97q0 123 -68 176q-70 56 -208 56q-136 0 -205.5 -60t-82.5 -190h-124
q8 172 119 264.5t308 92.5q216 0 322 -108q37 -39 51 -91.5t14 -157.5l-1 -322q1 -194 2.5 -229t7.5 -51q13 -29 62 -29q22 0 49 8zM809 576q-33 -28 -77 -39.5t-214 -34.5t-241 -72q-75 -52 -75 -150q0 -94 66 -149q67 -57 180 -57q157 0 259 93t102 237v172zM614 -132
v-209h-132v209h132z" />
    <glyph glyph-name="Ahookabove" unicode="&#x1ea2;" horiz-adv-x="1367" 
d="M765 1467l584 -1467h-156l-176 460h-669l-180 -460h-149l591 1467h155zM974 573l-210 541q-47 122 -79 222q-44 -125 -80 -215l-215 -548h584zM722 1616h-73v115l22 2q116 12 139 25q36 20 36 61q0 38 -28.5 62t-73.5 24q-56 0 -140 -32l-23 56l16 6q85 30 158 30
q76 0 126 -36q61 -44 61 -115q0 -58 -41 -90.5t-113 -32.5q-24 0 -66 2v-77z" />
    <glyph glyph-name="ahookabove" unicode="&#x1ea3;" horiz-adv-x="1095" 
d="M1055 107v-99q-48 -17 -103 -17q-75 0 -106 43.5t-31 150.5q-51 -80 -105 -123q-118 -93 -294 -93q-153 0 -242 71q-103 80 -103 228q0 208 199 285q57 23 108.5 31t262.5 29q96 9 132 38t36 97q0 123 -68 176q-70 56 -208 56q-136 0 -205.5 -60t-82.5 -190h-124
q8 172 119 264.5t308 92.5q216 0 322 -108q37 -39 51 -91.5t14 -157.5l-1 -322q1 -194 2.5 -229t7.5 -51q13 -29 62 -29q22 0 49 8zM809 576q-33 -28 -77 -39.5t-214 -34.5t-241 -72q-75 -52 -75 -150q0 -94 66 -149q67 -57 180 -57q157 0 259 93t102 237v172zM581 1213h-73
v115q11 0 22 2q116 11 139 25q36 20 36 61q0 38 -28.5 62t-73.5 24q-54 0 -140 -32l-23 56q8 3 16 5q86 31 157 31q78 0 127 -36q61 -44 61 -115q0 -58 -41 -90.5t-115 -32.5q-30 0 -64 2v-77z" />
    <glyph glyph-name="Acircumflexacute" unicode="&#x1ea4;" horiz-adv-x="1367" 
d="M906 1691l200 243h168l-288 -276h-49l67 -74h-130l-195 199l-198 -199h-118l253 276h134zM765 1467l584 -1467h-156l-176 460h-669l-180 -460h-149l591 1467h155zM974 573l-210 541q-47 122 -79 222q-44 -125 -80 -215l-215 -548h584z" />
    <glyph glyph-name="acircumflexacute" unicode="&#x1ea5;" horiz-adv-x="1095" 
d="M749 1322l176 250h158l-259 -291h-44l51 -67h-128l-160 216l-163 -216h-115l217 291h130zM1055 107v-99q-48 -17 -103 -17q-75 0 -106 43.5t-31 150.5q-51 -80 -105 -123q-118 -93 -294 -93q-153 0 -242 71q-103 80 -103 228q0 208 199 285q57 23 108.5 31t262.5 29
q96 9 132 38t36 97q0 123 -68 176q-70 56 -208 56q-136 0 -205.5 -60t-82.5 -190h-124q8 172 119 264.5t308 92.5q216 0 322 -108q37 -39 51 -91.5t14 -157.5l-1 -322q1 -194 2.5 -229t7.5 -51q13 -29 62 -29q22 0 49 8zM809 576q-33 -28 -77 -39.5t-214 -34.5t-241 -72
q-75 -52 -75 -150q0 -94 66 -149q67 -57 180 -57q157 0 259 93t102 237v172z" />
    <glyph glyph-name="Acircumflexgrave" unicode="&#x1ea6;" horiz-adv-x="1367" 
d="M765 1467l584 -1467h-156l-176 460h-669l-180 -460h-149l591 1467h155zM974 573l-210 541q-47 122 -79 222q-44 -125 -80 -215l-215 -548h584zM1004 1584h-130l-195 199l-198 -199h-118l253 276h134zM711 1971h168l227 -277h-107z" />
    <glyph glyph-name="acircumflexgrave" unicode="&#x1ea7;" horiz-adv-x="1095" 
d="M1055 107v-99q-48 -17 -103 -17q-75 0 -106 43.5t-31 150.5q-51 -80 -105 -123q-118 -93 -294 -93q-153 0 -242 71q-103 80 -103 228q0 208 199 285q57 23 108.5 31t262.5 29q96 9 132 38t36 97q0 123 -68 176q-70 56 -208 56q-136 0 -205.5 -60t-82.5 -190h-124
q8 172 119 264.5t308 92.5q216 0 322 -108q37 -39 51 -91.5t14 -157.5l-1 -322q1 -194 2.5 -229t7.5 -51q13 -29 62 -29q22 0 49 8zM809 576q-33 -28 -77 -39.5t-214 -34.5t-241 -72q-75 -52 -75 -150q0 -94 66 -149q67 -57 180 -57q157 0 259 93t102 237v172zM831 1214
h-128l-160 216l-163 -216h-115l217 291h130zM570 1606h158l205 -291h-104z" />
    <glyph glyph-name="Acircumflexhookabove" unicode="&#x1ea8;" horiz-adv-x="1367" 
d="M930 1665l75 -81h-131l-195 199l-198 -199h-117l252 276h134l131 -142v61l22 2q116 12 139 25q36 21 36 62q0 38 -29 62t-74 24q-53 0 -139 -33l-23 57q12 4 22 7q78 29 152 29q77 0 126 -36q61 -44 61 -115q0 -58 -41 -90.5t-114 -32.5q-28 0 -65 2v-77h-24zM765 1467
l584 -1467h-156l-176 460h-669l-180 -460h-149l591 1467h155zM974 573l-210 541q-47 122 -79 222q-44 -125 -80 -215l-215 -548h584z" />
    <glyph glyph-name="acircumflexhookabove" unicode="&#x1ea9;" horiz-adv-x="1095" 
d="M737 1338v61l22 2q116 12 140 25q36 20 36 61q0 38 -29 62t-74 24q-55 0 -140 -32l-23 56l16 6q85 30 158 30q77 0 127 -36q61 -44 61 -115q0 -58 -41 -90.5t-115 -32.5q-27 0 -65 2v-77h-32l53 -70h-129l-159 216l-164 -216h-115l217 291h130zM1055 107v-99
q-48 -17 -103 -17q-75 0 -106 43.5t-31 150.5q-51 -80 -105 -123q-118 -93 -294 -93q-153 0 -242 71q-103 80 -103 228q0 208 199 285q57 23 108.5 31t262.5 29q96 9 132 38t36 97q0 123 -68 176q-70 56 -208 56q-136 0 -205.5 -60t-82.5 -190h-124q8 172 119 264.5
t308 92.5q216 0 322 -108q37 -39 51 -91.5t14 -157.5l-1 -322q1 -194 2.5 -229t7.5 -51q13 -29 62 -29q22 0 49 8zM809 576q-33 -28 -77 -39.5t-214 -34.5t-241 -72q-75 -52 -75 -150q0 -94 66 -149q67 -57 180 -57q157 0 259 93t102 237v172z" />
    <glyph glyph-name="Acircumflextilde" unicode="&#x1eaa;" horiz-adv-x="1367" 
d="M765 1467l584 -1467h-156l-176 460h-669l-180 -460h-149l591 1467h155zM974 573l-210 541q-47 122 -79 222q-44 -125 -80 -215l-215 -548h584zM1004 1584h-130l-195 199l-198 -199h-118l253 276h134zM1008 2115q-19 -98 -64 -149t-113 -51q-41 0 -76.5 12.5t-140.5 63.5
q-38 19 -79 19q-70 0 -97 -103h-78q17 96 65 148t122 52q58 0 137 -40q74 -37 96.5 -45.5t50.5 -8.5q71 0 97 102h80z" />
    <glyph glyph-name="acircumflextilde" unicode="&#x1eab;" horiz-adv-x="1095" 
d="M1055 107v-99q-48 -17 -103 -17q-75 0 -106 43.5t-31 150.5q-51 -80 -105 -123q-118 -93 -294 -93q-153 0 -242 71q-103 80 -103 228q0 208 199 285q57 23 108.5 31t262.5 29q96 9 132 38t36 97q0 123 -68 176q-70 56 -208 56q-136 0 -205.5 -60t-82.5 -190h-124
q8 172 119 264.5t308 92.5q216 0 322 -108q37 -39 51 -91.5t14 -157.5l-1 -322q1 -194 2.5 -229t7.5 -51q13 -29 62 -29q22 0 49 8zM809 576q-33 -28 -77 -39.5t-214 -34.5t-241 -72q-75 -52 -75 -150q0 -94 66 -149q67 -57 180 -57q157 0 259 93t102 237v172zM831 1214
h-128l-160 216l-163 -216h-115l217 291h130zM839 1746q-16 -97 -57 -148.5t-102 -51.5q-36 0 -68.5 12.5t-126.5 63.5q-34 19 -70 19q-61 0 -83 -103h-75q15 96 58.5 148t108.5 52q53 0 124 -40q68 -38 87.5 -46t44.5 -8q60 0 82 102h77z" />
    <glyph glyph-name="Acircumflexdotbelow" unicode="&#x1eac;" horiz-adv-x="1367" 
d="M765 1467l584 -1467h-156l-176 460h-669l-180 -460h-149l591 1467h155zM974 573l-210 541q-47 122 -79 222q-44 -125 -80 -215l-215 -548h584zM1004 1584h-130l-195 199l-198 -199h-118l253 276h134zM752 -131v-205h-139v205h139z" />
    <glyph glyph-name="acircumflexdotbelow" unicode="&#x1ead;" horiz-adv-x="1095" 
d="M1055 107v-99q-48 -17 -103 -17q-75 0 -106 43.5t-31 150.5q-51 -80 -105 -123q-118 -93 -294 -93q-153 0 -242 71q-103 80 -103 228q0 208 199 285q57 23 108.5 31t262.5 29q96 9 132 38t36 97q0 123 -68 176q-70 56 -208 56q-136 0 -205.5 -60t-82.5 -190h-124
q8 172 119 264.5t308 92.5q216 0 322 -108q37 -39 51 -91.5t14 -157.5l-1 -322q1 -194 2.5 -229t7.5 -51q13 -29 62 -29q22 0 49 8zM809 576q-33 -28 -77 -39.5t-214 -34.5t-241 -72q-75 -52 -75 -150q0 -94 66 -149q67 -57 180 -57q157 0 259 93t102 237v172zM831 1214
h-128l-160 216l-163 -216h-115l217 291h130zM614 -132v-209h-132v209h132z" />
    <glyph glyph-name="Abreveacute" unicode="&#x1eae;" horiz-adv-x="1367" 
d="M765 1467l584 -1467h-156l-176 460h-669l-180 -460h-149l591 1467h155zM974 573l-210 541q-47 122 -79 222q-44 -125 -80 -215l-215 -548h584zM980 1860q-14 -92 -52 -149q-80 -120 -248 -120q-126 0 -205 72.5t-87 196.5h80q13 -61 41 -98q60 -77 176 -77q175 0 215 175
h80zM1015 2097l-288 -276h-108l228 276h168z" />
    <glyph glyph-name="abreveacute" unicode="&#x1eaf;" horiz-adv-x="1095" 
d="M1055 107v-99q-48 -17 -103 -17q-75 0 -106 43.5t-31 150.5q-51 -80 -105 -123q-118 -93 -294 -93q-153 0 -242 71q-103 80 -103 228q0 208 199 285q57 23 108.5 31t262.5 29q96 9 132 38t36 97q0 123 -68 176q-70 56 -208 56q-136 0 -205.5 -60t-82.5 -190h-124
q8 172 119 264.5t308 92.5q216 0 322 -108q37 -39 51 -91.5t14 -157.5l-1 -322q1 -194 2.5 -229t7.5 -51q13 -29 62 -29q22 0 49 8zM809 576q-33 -28 -77 -39.5t-214 -34.5t-241 -72q-75 -52 -75 -150q0 -94 66 -149q67 -57 180 -57q157 0 259 93t102 237v172zM821 1501
q-12 -91 -47 -151q-70 -122 -223 -122q-113 0 -184 73.5t-79 199.5h79q33 -179 193 -179q147 0 182 179h79zM848 1752l-259 -290h-103l205 290h157z" />
    <glyph glyph-name="Abrevegrave" unicode="&#x1eb0;" horiz-adv-x="1367" 
d="M765 1467l584 -1467h-156l-176 460h-669l-180 -460h-149l591 1467h155zM974 573l-210 541q-47 122 -79 222q-44 -125 -80 -215l-215 -548h584zM980 1860q-14 -92 -52 -149q-80 -120 -248 -120q-126 0 -205 72.5t-87 196.5h80q13 -61 41 -98q60 -77 176 -77q175 0 215 175
h80zM346 2097h169l227 -276h-107z" />
    <glyph glyph-name="abrevegrave" unicode="&#x1eb1;" horiz-adv-x="1095" 
d="M1055 107v-99q-48 -17 -103 -17q-75 0 -106 43.5t-31 150.5q-51 -80 -105 -123q-118 -93 -294 -93q-153 0 -242 71q-103 80 -103 228q0 208 199 285q57 23 108.5 31t262.5 29q96 9 132 38t36 97q0 123 -68 176q-70 56 -208 56q-136 0 -205.5 -60t-82.5 -190h-124
q8 172 119 264.5t308 92.5q216 0 322 -108q37 -39 51 -91.5t14 -157.5l-1 -322q1 -194 2.5 -229t7.5 -51q13 -29 62 -29q22 0 49 8zM809 576q-33 -28 -77 -39.5t-214 -34.5t-241 -72q-75 -52 -75 -150q0 -94 66 -149q67 -57 180 -57q157 0 259 93t102 237v172zM821 1501
q-12 -91 -47 -151q-70 -122 -223 -122q-113 0 -184 73.5t-79 199.5h79q33 -179 193 -179q147 0 182 179h79zM242 1747h158l205 -292h-103z" />
    <glyph glyph-name="Abrevehookabove" unicode="&#x1eb2;" horiz-adv-x="1367" 
d="M765 1467l584 -1467h-156l-176 460h-669l-180 -460h-149l591 1467h155zM974 573l-210 541q-47 122 -79 222q-44 -125 -80 -215l-215 -548h584zM980 1860q-14 -92 -52 -149q-80 -120 -248 -120q-126 0 -205 72.5t-87 196.5h80q13 -61 41 -98q60 -77 176 -77q175 0 215 175
h80zM713 1820h-73v115l22 2q116 12 139 25q36 20 36 61q0 38 -28.5 62t-73.5 24q-55 0 -140 -32l-23 56q8 3 11 4q89 32 162 32q78 0 127 -36q61 -44 61 -115q0 -58 -41 -90.5t-113 -32.5q-24 0 -66 2v-77z" />
    <glyph glyph-name="abrevehookabove" unicode="&#x1eb3;" horiz-adv-x="1095" 
d="M1055 107v-99q-48 -17 -103 -17q-75 0 -106 43.5t-31 150.5q-51 -80 -105 -123q-118 -93 -294 -93q-153 0 -242 71q-103 80 -103 228q0 208 199 285q57 23 108.5 31t262.5 29q96 9 132 38t36 97q0 123 -68 176q-70 56 -208 56q-136 0 -205.5 -60t-82.5 -190h-124
q8 172 119 264.5t308 92.5q216 0 322 -108q37 -39 51 -91.5t14 -157.5l-1 -322q1 -194 2.5 -229t7.5 -51q13 -29 62 -29q22 0 49 8zM809 576q-33 -28 -77 -39.5t-214 -34.5t-241 -72q-75 -52 -75 -150q0 -94 66 -149q67 -57 180 -57q157 0 259 93t102 237v172zM821 1501
q-12 -91 -47 -151q-70 -122 -223 -122q-113 0 -184 73.5t-79 199.5h79q33 -179 193 -179q147 0 182 179h79zM589 1459h-73v115l22 2q116 12 139 25q36 20 36 61q0 38 -28.5 62t-73.5 24q-54 0 -140 -32l-23 57q8 2 11 3q88 32 162 32q78 0 127 -36q61 -44 61 -115
q0 -58 -40.5 -90.5t-112.5 -32.5q-23 0 -67 3v-78z" />
    <glyph glyph-name="Abrevetilde" unicode="&#x1eb4;" horiz-adv-x="1367" 
d="M765 1467l584 -1467h-156l-176 460h-669l-180 -460h-149l591 1467h155zM974 573l-210 541q-47 122 -79 222q-44 -125 -80 -215l-215 -548h584zM980 1860q-14 -92 -52 -149q-80 -120 -248 -120q-126 0 -205 72.5t-87 196.5h80q13 -61 41 -98q60 -77 176 -77q175 0 215 175
h80zM984 2145q-18 -97 -63.5 -148t-113.5 -51q-40 0 -76 12.5t-141 63.5q-38 18 -79 18q-69 0 -97 -103h-77q16 96 64.5 148t121.5 52q59 0 138 -40q74 -37 96 -45t50 -8q72 0 98 101h79z" />
    <glyph glyph-name="abrevetilde" unicode="&#x1eb5;" horiz-adv-x="1095" 
d="M1055 107v-99q-48 -17 -103 -17q-75 0 -106 43.5t-31 150.5q-51 -80 -105 -123q-118 -93 -294 -93q-153 0 -242 71q-103 80 -103 228q0 208 199 285q57 23 108.5 31t262.5 29q96 9 132 38t36 97q0 123 -68 176q-70 56 -208 56q-136 0 -205.5 -60t-82.5 -190h-124
q8 172 119 264.5t308 92.5q216 0 322 -108q37 -39 51 -91.5t14 -157.5l-1 -322q1 -194 2.5 -229t7.5 -51q13 -29 62 -29q22 0 49 8zM809 576q-33 -28 -77 -39.5t-214 -34.5t-241 -72q-75 -52 -75 -150q0 -94 66 -149q67 -57 180 -57q157 0 259 93t102 237v172zM821 1501
q-12 -91 -47 -151q-70 -122 -223 -122q-113 0 -184 73.5t-79 199.5h79q33 -179 193 -179q147 0 182 179h79zM829 1789q-16 -97 -56.5 -148t-101.5 -51q-37 0 -69 12.5t-127 64.5q-34 18 -70 18q-61 0 -83 -103h-75q15 96 58.5 148t109.5 52q52 0 123 -40q69 -38 88.5 -46
t43.5 -8q61 0 82 101h77z" />
    <glyph glyph-name="Abrevedotbelow" unicode="&#x1eb6;" horiz-adv-x="1367" 
d="M765 1467l584 -1467h-156l-176 460h-669l-180 -460h-149l591 1467h155zM974 573l-210 541q-47 122 -79 222q-44 -125 -80 -215l-215 -548h584zM980 1860q-14 -92 -52 -149q-80 -120 -248 -120q-126 0 -205 72.5t-87 196.5h80q13 -61 41 -98q60 -77 176 -77q175 0 215 175
h80zM752 -131v-205h-139v205h139z" />
    </font>
</defs>
</svg>
